<svg width="20" height="20" viewBox="0 0 20 20" fill="none" xmlns="http://www.w3.org/2000/svg">
<path d="M17.9999 15.091C17.9999 15.4767 17.8467 15.8467 17.5739 16.1195C17.3011 16.3923 16.9311 16.5455 16.5454 16.5455H3.45432C3.06854 16.5455 2.69857 16.3923 2.42579 16.1195C2.153 15.8467 1.99976 15.4767 1.99976 15.091V7.09087C1.99976 6.7051 2.153 6.33512 2.42579 6.06234C2.69857 5.78956 3.06854 5.63631 3.45432 5.63631H6.36344L7.818 3.45447H12.1817L13.6362 5.63631H16.5454C16.9311 5.63631 17.3011 5.78956 17.5739 6.06234C17.8467 6.33512 17.9999 6.7051 17.9999 7.09087V15.091Z" stroke="black" stroke-linecap="round" stroke-linejoin="round"/>
<path d="M9.99994 13.6364C11.6066 13.6364 12.9091 12.334 12.9091 10.7273C12.9091 9.12063 11.6066 7.81818 9.99994 7.81818C8.39328 7.81818 7.09082 9.12063 7.09082 10.7273C7.09082 12.334 8.39328 13.6364 9.99994 13.6364Z" stroke="black" stroke-linecap="round" stroke-linejoin="round"/>
</svg>
