<svg width="12" height="12" viewBox="0 0 12 12" fill="none" xmlns="http://www.w3.org/2000/svg">
<path fill-rule="evenodd" clip-rule="evenodd" d="M4.02439 1.63024L3.33341 2.66671H1.33341C0.965225 2.66671 0.666748 2.96518 0.666748 3.33337V10C0.666748 10.3682 0.965225 10.6667 1.33341 10.6667H10.6667C11.0349 10.6667 11.3334 10.3682 11.3334 10V3.33337C11.3334 2.96518 11.0349 2.66671 10.6667 2.66671H8.66675L7.97577 1.63024C7.85213 1.44477 7.64397 1.33337 7.42107 1.33337H4.57909C4.35619 1.33337 4.14804 1.44477 4.02439 1.63024ZM8.66671 6.66665C8.66671 8.13941 7.47281 9.33332 6.00005 9.33332C4.52729 9.33332 3.33338 8.13941 3.33338 6.66665C3.33338 5.19389 4.52729 3.99998 6.00005 3.99998C7.47281 3.99998 8.66671 5.19389 8.66671 6.66665ZM7.33339 6.66666C7.33339 7.40304 6.73643 7.99999 6.00005 7.99999C5.26368 7.99999 4.66672 7.40304 4.66672 6.66666C4.66672 5.93028 5.26368 5.33333 6.00005 5.33333C6.73643 5.33333 7.33339 5.93028 7.33339 6.66666Z" fill="#A6A6A6"/>
</svg>
