<svg width="14" height="14" viewBox="0 0 14 14" fill="none" xmlns="http://www.w3.org/2000/svg">
<path d="M10.5 4.66667C10.5 3.73841 10.1313 2.84818 9.47487 2.1918C8.8185 1.53542 7.92826 1.16667 7 1.16667C6.07174 1.16667 5.1815 1.53542 4.52513 2.1918C3.86875 2.84818 3.5 3.73841 3.5 4.66667C3.5 8.75 1.75 9.91667 1.75 9.91667H12.25C12.25 9.91667 10.5 8.75 10.5 4.66667Z" fill="#29AB91" stroke="#29AB91" stroke-linecap="round" stroke-linejoin="round"/>
<path d="M8.00906 12.25C7.9065 12.4268 7.7593 12.5735 7.58219 12.6756C7.40508 12.7776 7.20428 12.8313 6.99989 12.8313C6.7955 12.8313 6.5947 12.7776 6.41759 12.6756C6.24048 12.5735 6.09328 12.4268 5.99072 12.25" stroke="#29AB91" stroke-linecap="round" stroke-linejoin="round"/>
</svg>
