<svg width="17" height="17" viewBox="0 0 17 17" fill="none" xmlns="http://www.w3.org/2000/svg">
<path fill-rule="evenodd" clip-rule="evenodd" d="M12.674 4.19739L11.3871 2.91047L10.7437 3.55393L12.0306 4.84085L12.674 4.19739ZM13.6392 4.51912L12.0306 6.12777L9.45673 3.55393L11.0654 1.94528C11.2431 1.7676 11.5312 1.7676 11.7088 1.94528L13.6392 3.87566C13.8169 4.05335 13.8169 4.34144 13.6392 4.51912ZM2.76652 13.6419H14.5964C14.8477 13.6419 15.0514 13.8456 15.0514 14.0969C15.0514 14.3482 14.8477 14.5519 14.5964 14.5519H2.76652C2.51523 14.5519 2.31152 14.3482 2.31152 14.0969C2.31152 13.8456 2.51523 13.6419 2.76652 13.6419ZM8.81327 4.19738L11.3871 6.77122L6.23943 11.9189L3.69137 12.4285C3.44497 12.4778 3.20526 12.318 3.15598 12.0716C3.1442 12.0127 3.1442 11.952 3.15598 11.8931L3.66559 9.34506L8.81327 4.19738ZM4.50388 9.79371L4.18215 11.4024L5.7908 11.0806L10.1002 6.77124L8.81328 5.48432L4.50388 9.79371Z" fill="white"/>
<mask id="mask0" mask-type="alpha" maskUnits="userSpaceOnUse" x="2" y="1" width="14" height="14">
<path fill-rule="evenodd" clip-rule="evenodd" d="M12.674 4.19739L11.3871 2.91047L10.7437 3.55393L12.0306 4.84085L12.674 4.19739ZM13.6392 4.51912L12.0306 6.12777L9.45673 3.55393L11.0654 1.94528C11.2431 1.7676 11.5312 1.7676 11.7088 1.94528L13.6392 3.87566C13.8169 4.05335 13.8169 4.34144 13.6392 4.51912ZM2.76652 13.6419H14.5964C14.8477 13.6419 15.0514 13.8456 15.0514 14.0969C15.0514 14.3482 14.8477 14.5519 14.5964 14.5519H2.76652C2.51523 14.5519 2.31152 14.3482 2.31152 14.0969C2.31152 13.8456 2.51523 13.6419 2.76652 13.6419ZM8.81327 4.19738L11.3871 6.77122L6.23943 11.9189L3.69137 12.4285C3.44497 12.4778 3.20526 12.318 3.15598 12.0716C3.1442 12.0127 3.1442 11.952 3.15598 11.8931L3.66559 9.34506L8.81327 4.19738ZM4.50388 9.79371L4.18215 11.4024L5.7908 11.0806L10.1002 6.77124L8.81328 5.48432L4.50388 9.79371Z" fill="white"/>
</mask>
<g mask="url(#mask0)">
</g>
</svg>
