<?xml version="1.0" encoding="UTF-8"?>
<svg width="28px" height="23px" viewBox="0 0 28 23" version="1.1" xmlns="http://www.w3.org/2000/svg" xmlns:xlink="http://www.w3.org/1999/xlink">
    <!-- Generator: Sketch 53.2 (72643) - https://sketchapp.com -->
    <title>分组 2</title>
    <desc>Created with Sketch.</desc>
    <g id="讨论" stroke="none" stroke-width="1" fill="none" fill-rule="evenodd">
        <g id="切图" transform="translate(-2177.000000, -1271.000000)">
            <g id="分组-2" transform="translate(2175.000000, 1265.000000)">
                <rect id="矩形" x="0" y="0" width="32" height="32"></rect>
                <path d="M17.3333333,22.7954357 L26.6666667,22.7330852 L26.6666667,9.4435715 L19.7727513,9.45303035 L17.3540723,11.8717093 L17.3333333,22.7954357 Z M14.6666667,11.8717093 L12.2384055,9.50545663 L5.33333333,9.45821629 L5.33333333,22.7330852 L14.6666667,22.7954139 L14.6666667,11.8717093 Z M13.3333333,6.8462184 L16,9.45454545 L18.6666667,6.78787879 L26.6630078,6.77690734 C28.1357658,6.77488663 29.3313101,7.96715473 29.3333308,9.43991268 L29.3333333,22.7330852 C29.3333333,24.1987251 28.1505155,25.3896627 26.68491,25.3996895 L18.6666667,25.4545455 L16.0054575,28.1212121 L13.3333333,25.4545455 L5.31509003,25.3996895 C3.84948447,25.3896627 2.66666667,24.1987251 2.66666667,22.7330852 L2.66666667,9.45821629 C2.66666667,7.98545696 3.860574,6.79154963 5.33333333,6.79154963 C5.33738744,6.79154963 8.0040541,6.80977255 13.3333333,6.8462184 Z" id="Shape" fill="#1890FF" fill-rule="nonzero"></path>
            </g>
        </g>
    </g>
</svg>