<svg width="24" height="24" viewBox="0 0 24 24" fill="none" xmlns="http://www.w3.org/2000/svg">
<path opacity="0.6" fill-rule="evenodd" clip-rule="evenodd" d="M12 9.45066L20.9227 0.527985C21.6267 -0.175995 22.768 -0.175995 23.472 0.527985C24.176 1.23196 24.176 2.37334 23.472 3.07732L14.5493 12L23.472 20.9227C24.176 21.6267 24.176 22.768 23.472 23.472C22.768 24.176 21.6267 24.176 20.9227 23.472L12 14.5493L3.07732 23.472C2.37334 24.176 1.23196 24.176 0.527985 23.472C-0.175995 22.768 -0.175995 21.6267 0.527985 20.9227L9.45066 12L0.527985 3.07732C-0.175995 2.37334 -0.175995 1.23196 0.527985 0.527985C1.23196 -0.175995 2.37334 -0.175995 3.07732 0.527985L12 9.45066Z" fill="#F9F9F9"/>
</svg>
