<?xml version="1.0" encoding="UTF-8"?>
<svg width="64px" height="64px" viewBox="0 0 64 64" version="1.1" xmlns="http://www.w3.org/2000/svg" xmlns:xlink="http://www.w3.org/1999/xlink">
    <!-- Generator: Sketch 53.1 (72631) - https://sketchapp.com -->
    <title>To be confirmed</title>
    <desc>Created with Sketch.</desc>
    <g id="Page-1" stroke="none" stroke-width="1" fill="none" fill-rule="evenodd">
        <g id="Group-13-Copy" transform="translate(3.000000, 7.000000)" fill="#29AB91">
            <g id="qiyehetongshenhe_huaban">
                <g id="Group-3" transform="translate(0.000000, 0.047366)">
                    <path d="M21.9676084,44.0455284 L3.99406408,44.0455284 C1.79719354,44.0455284 0,42.2457279 0,40.0456706 L0,4.04673135 C0,1.8466741 1.79719354,0.0468736189 3.99406408,0.0468736189 L49.9262033,0.0468736189 C52.1227813,0.0468736189 53.9202674,1.8466741 53.9202674,4.04673135 L53.9202674,16.0463778 C53.9202674,17.2462692 53.1212059,18.0464897 51.9231256,18.0464897 C50.7249722,18.0464897 49.9262033,17.2462692 49.9262033,16.0463778 L49.9262033,4.04673135 L3.99406408,4.04673135 L3.99406408,40.0456706 L21.9676084,40.0456706 C23.1657618,40.0456706 23.9645308,40.8455982 23.9645308,42.0457094 C23.9645308,43.2456008 23.1657618,44.0455284 21.9676084,44.0455284 Z" id="Fill-1"></path>
                </g>
                <path d="M40.0005905,47.9387691 C31.2009262,47.9387691 24.0011809,40.7370174 24.0011809,31.9349008 C24.0011809,23.1328575 31.2009262,15.9310326 40.0005905,15.9310326 C48.8001815,15.9310326 56,23.1328575 56,31.9349008 C56,40.7370174 48.8001815,47.9387691 40.0005905,47.9387691 Z M40.0005905,19.9319813 C33.4007507,19.9319813 28.001015,25.3332219 28.001015,31.9349008 C28.001015,38.5366531 33.4007507,43.9378204 40.0005905,43.9378204 C46.6004302,43.9378204 52.0001659,38.5366531 52.0001659,31.9349008 C52.0001659,25.3332219 46.6004302,19.9319813 40.0005905,19.9319813 Z M22.0013737,13.9306681 L9.60154389,13.9306681 C8.40173283,13.9306681 7.60180995,13.1303025 7.60180995,11.9300838 C7.60180995,10.7298651 8.40173283,9.92971934 9.60154389,9.92971934 L22.0013737,9.92971934 C23.2012581,9.92971934 24.0011809,10.7298651 24.0011809,11.9300838 C24.0011809,13.1303025 23.2012581,13.9306681 22.0013737,13.9306681 Z M18.0015397,21.9326389 L9.60154389,21.9326389 C8.40173283,21.9326389 7.60180995,21.1322 7.60180995,19.9319813 C7.60180995,18.7318359 8.40173283,17.9316901 9.60154389,17.9316901 L18.0015397,17.9316901 C19.201424,17.9316901 20.0012736,18.7318359 20.0012736,19.9319813 C20.0012736,21.1322 19.201424,21.9326389 18.0015397,21.9326389 Z M18.0015397,29.9346096 L9.60154389,29.9346096 C8.40173283,29.9346096 7.60180995,29.1341708 7.60180995,27.9339521 C7.60180995,26.7337334 8.40173283,25.9335876 9.60154389,25.9335876 L18.0015397,25.9335876 C19.201424,25.9335876 20.0012736,26.7337334 20.0012736,27.9339521 C20.0012736,29.1341708 19.201424,29.9346096 18.0015397,29.9346096 Z" id="Fill-4"></path>
                <path d="M38.3080305,39.5767782 C37.3069285,39.5767782 36.105914,39.1745894 35.3052377,38.3702118 L30.5009597,33.5437254 C29.7002834,32.7390533 29.7002834,31.5324869 30.5009597,30.7281093 C31.3016361,29.9238054 32.5026506,29.9238054 33.3033269,30.7281093 L38.107898,35.5546694 L38.5082362,35.5546694 L46.5154394,27.5103781 C47.3161157,26.7060005 48.5171302,26.7060005 49.3180998,27.5103781 C50.1187028,28.3147557 50.1187028,29.521322 49.3180998,30.3259942 L41.3105301,38.3702118 C40.5098537,39.1745894 39.509045,39.5767782 38.3080305,39.5767782 Z" id="Fill-5"></path>
            </g>
            <g id="qiyehetongshenhe_huaban-copy" transform="translate(3.000000, 2.000000)" opacity="0.200000003">
                <g id="Group-3" transform="translate(0.000000, 0.047366)">
                    <path d="M21.9676084,44.0455284 L3.99406408,44.0455284 C1.79719354,44.0455284 0,42.2457279 0,40.0456706 L0,4.04673135 C0,1.8466741 1.79719354,0.0468736189 3.99406408,0.0468736189 L49.9262033,0.0468736189 C52.1227813,0.0468736189 53.9202674,1.8466741 53.9202674,4.04673135 L53.9202674,16.0463778 C53.9202674,17.2462692 53.1212059,18.0464897 51.9231256,18.0464897 C50.7249722,18.0464897 49.9262033,17.2462692 49.9262033,16.0463778 L49.9262033,4.04673135 L3.99406408,4.04673135 L3.99406408,40.0456706 L21.9676084,40.0456706 C23.1657618,40.0456706 23.9645308,40.8455982 23.9645308,42.0457094 C23.9645308,43.2456008 23.1657618,44.0455284 21.9676084,44.0455284 Z" id="Fill-1"></path>
                </g>
                <path d="M40.0005905,47.9387691 C31.2009262,47.9387691 24.0011809,40.7370174 24.0011809,31.9349008 C24.0011809,23.1328575 31.2009262,15.9310326 40.0005905,15.9310326 C48.8001815,15.9310326 56,23.1328575 56,31.9349008 C56,40.7370174 48.8001815,47.9387691 40.0005905,47.9387691 Z M22.0013737,13.9306681 L9.60154389,13.9306681 C8.40173283,13.9306681 7.60180995,13.1303025 7.60180995,11.9300838 C7.60180995,10.7298651 8.40173283,9.92971934 9.60154389,9.92971934 L22.0013737,9.92971934 C23.2012581,9.92971934 24.0011809,10.7298651 24.0011809,11.9300838 C24.0011809,13.1303025 23.2012581,13.9306681 22.0013737,13.9306681 Z M18.0015397,21.9326389 L9.60154389,21.9326389 C8.40173283,21.9326389 7.60180995,21.1322 7.60180995,19.9319813 C7.60180995,18.7318359 8.40173283,17.9316901 9.60154389,17.9316901 L18.0015397,17.9316901 C19.201424,17.9316901 20.0012736,18.7318359 20.0012736,19.9319813 C20.0012736,21.1322 19.201424,21.9326389 18.0015397,21.9326389 Z M18.0015397,29.9346096 L9.60154389,29.9346096 C8.40173283,29.9346096 7.60180995,29.1341708 7.60180995,27.9339521 C7.60180995,26.7337334 8.40173283,25.9335876 9.60154389,25.9335876 L18.0015397,25.9335876 C19.201424,25.9335876 20.0012736,26.7337334 20.0012736,27.9339521 C20.0012736,29.1341708 19.201424,29.9346096 18.0015397,29.9346096 Z" id="Fill-4"></path>
            </g>
        </g>
    </g>
</svg>