<?xml version="1.0" encoding="UTF-8"?>
<svg width="64px" height="64px" viewBox="0 0 64 64" version="1.1" xmlns="http://www.w3.org/2000/svg" xmlns:xlink="http://www.w3.org/1999/xlink">
    <!-- Generator: Sketch 53.1 (72631) - https://sketchapp.com -->
    <title>To be distributed</title>
    <desc>Created with Sketch.</desc>
    <defs>
        <polygon id="path-1" points="1.64470237e-16 0.112619407 55.2478632 0.112619407 55.2478632 49.6168929 1.64470237e-16 49.6168929"></polygon>
    </defs>
    <g id="Page-1" stroke="none" stroke-width="1" fill="none" fill-rule="evenodd">
        <g id="Group-26-Copy" transform="translate(3.000000, 6.000000)">
            <g id="zhengshifuwushangliebiao-" transform="translate(3.000000, 2.000000)" fill="#29AB91" opacity="0.200000003">
                <path d="M45.3823334,19.9143143 L29.5972399,19.9143143 L29.5972399,13.9739581 L33.5434952,13.9739581 C35.7137803,13.9739581 37.4897505,12.1916627 37.4897505,10.0135756 L37.4897505,4.0730019 C37.4897505,1.89469726 35.7137803,0.112619407 33.5434952,0.112619407 L21.7046571,0.112619407 C19.534083,0.112619407 17.7584018,1.89469726 17.7584018,4.0730019 L17.7584018,10.0135756 C17.7584018,12.1916627 19.534083,13.9739581 21.7046571,13.9739581 L25.6509124,13.9739581 L25.6509124,19.9143143 L9.8658189,19.9143143 C7.6952448,19.9143143 5.9195636,21.6966097 5.9195636,23.8746243 L5.9195636,29.8152705 C5.9195636,31.0032983 6.7087713,31.7953167 7.89258286,31.7953167 C9.07632216,31.7953167 9.8658189,31.0032983 9.8658189,29.8152705 L9.8658189,23.8746243 L25.6509124,23.8746243 L25.6509124,29.8152705 C25.6509124,31.0032983 26.4401201,31.7953167 27.6239316,31.7953167 C28.8077432,31.7953167 29.5972399,31.0032983 29.5972399,29.8152705 L29.5972399,23.8746243 L45.3823334,23.8746243 L45.3823334,29.8152705 C45.3823334,31.0032983 46.1715411,31.7953167 47.3552804,31.7953167 C48.5390919,31.7953167 49.3285887,31.0032983 49.3285887,29.8152705 L49.3285887,23.8746243 C49.3285887,21.6966097 47.5526184,19.9143143 45.3823334,19.9143143 Z M21.7046571,10.0135756 L33.5434952,10.0135756 L33.5434952,4.0730019 L21.7046571,4.0730019 L21.7046571,10.0135756 Z M7.89258286,49.6168929 C3.55165145,49.6168929 0,46.0525922 0,41.696273 C0,37.3399537 3.55165145,33.7755805 7.89258286,33.7755805 C12.233442,33.7755805 15.7850935,37.3399537 15.7850935,41.696273 C15.7850935,46.0525922 12.233442,49.6168929 7.89258286,49.6168929 Z M27.6239316,49.6168929 C23.2830725,49.6168929 19.7313488,46.0525922 19.7313488,41.696273 C19.7313488,37.3399537 23.2830725,33.7755805 27.6239316,33.7755805 C31.9647908,33.7755805 35.5165145,37.3399537 35.5165145,41.696273 C35.5165145,46.0525922 31.9647908,49.6168929 27.6239316,49.6168929 Z M47.3552804,49.6168929 C43.0144212,49.6168929 39.4627698,46.0525922 39.4627698,41.696273 C39.4627698,37.3399537 43.0144212,33.7755805 47.3552804,33.7755805 C51.6962118,33.7755805 55.2478632,37.3399537 55.2478632,41.696273 C55.2478632,46.0525922 51.6962118,49.6168929 47.3552804,49.6168929 Z" id="Fill-1"></path>
            </g>
            <g id="Group">
                <g id="zhengshifuwushangliebiao-">
                    <mask id="mask-2" fill="white">
                        <use xlink:href="#path-1"></use>
                    </mask>
                    <g id="Clip-2"></g>
                    <path d="M45.3823334,19.9143143 L29.5972399,19.9143143 L29.5972399,13.9739581 L33.5434952,13.9739581 C35.7137803,13.9739581 37.4897505,12.1916627 37.4897505,10.0135756 L37.4897505,4.0730019 C37.4897505,1.89469726 35.7137803,0.112619407 33.5434952,0.112619407 L21.7046571,0.112619407 C19.534083,0.112619407 17.7584018,1.89469726 17.7584018,4.0730019 L17.7584018,10.0135756 C17.7584018,12.1916627 19.534083,13.9739581 21.7046571,13.9739581 L25.6509124,13.9739581 L25.6509124,19.9143143 L9.8658189,19.9143143 C7.6952448,19.9143143 5.9195636,21.6966097 5.9195636,23.8746243 L5.9195636,29.8152705 C5.9195636,31.0032983 6.7087713,31.7953167 7.89258286,31.7953167 C9.07632216,31.7953167 9.8658189,31.0032983 9.8658189,29.8152705 L9.8658189,23.8746243 L25.6509124,23.8746243 L25.6509124,29.8152705 C25.6509124,31.0032983 26.4401201,31.7953167 27.6239316,31.7953167 C28.8077432,31.7953167 29.5972399,31.0032983 29.5972399,29.8152705 L29.5972399,23.8746243 L45.3823334,23.8746243 L45.3823334,29.8152705 C45.3823334,31.0032983 46.1715411,31.7953167 47.3552804,31.7953167 C48.5390919,31.7953167 49.3285887,31.0032983 49.3285887,29.8152705 L49.3285887,23.8746243 C49.3285887,21.6966097 47.5526184,19.9143143 45.3823334,19.9143143 Z M21.7046571,10.0135756 L33.5434952,10.0135756 L33.5434952,4.0730019 L21.7046571,4.0730019 L21.7046571,10.0135756 Z M7.89258286,49.6168929 C3.55165145,49.6168929 0,46.0525922 0,41.696273 C0,37.3399537 3.55165145,33.7755805 7.89258286,33.7755805 C12.233442,33.7755805 15.7850935,37.3399537 15.7850935,41.696273 C15.7850935,46.0525922 12.233442,49.6168929 7.89258286,49.6168929 Z M7.89258286,37.7358905 C5.72200877,37.7358905 3.9462553,39.5179683 3.9462553,41.696273 C3.9462553,43.8742875 5.72200877,45.6565829 7.89258286,45.6565829 C10.063157,45.6565829 11.8388382,43.8742875 11.8388382,41.696273 C11.8388382,39.5179683 10.063157,37.7358905 7.89258286,37.7358905 Z M27.6239316,49.6168929 C23.2830725,49.6168929 19.7313488,46.0525922 19.7313488,41.696273 C19.7313488,37.3399537 23.2830725,33.7755805 27.6239316,33.7755805 C31.9647908,33.7755805 35.5165145,37.3399537 35.5165145,41.696273 C35.5165145,46.0525922 31.9647908,49.6168929 27.6239316,49.6168929 Z M27.6239316,37.7358905 C25.4536466,37.7358905 23.6776763,39.5179683 23.6776763,41.696273 C23.6776763,43.8742875 25.4536466,45.6565829 27.6239316,45.6565829 C29.7945057,45.6565829 31.5701869,43.8742875 31.5701869,41.696273 C31.5701869,39.5179683 29.7945057,37.7358905 27.6239316,37.7358905 Z M47.3552804,49.6168929 C43.0144212,49.6168929 39.4627698,46.0525922 39.4627698,41.696273 C39.4627698,37.3399537 43.0144212,33.7755805 47.3552804,33.7755805 C51.6962118,33.7755805 55.2478632,37.3399537 55.2478632,41.696273 C55.2478632,46.0525922 51.6962118,49.6168929 47.3552804,49.6168929 Z M47.3552804,37.7358905 C45.1849953,37.7358905 43.4090251,39.5179683 43.4090251,41.696273 C43.4090251,43.8742875 45.1849953,45.6565829 47.3552804,45.6565829 C49.5258545,45.6565829 51.3016079,43.8742875 51.3016079,41.696273 C51.3016079,39.5179683 49.5258545,37.7358905 47.3552804,37.7358905 Z" id="Fill-1" fill="#29AB91" mask="url(#mask-2)"></path>
                </g>
            </g>
        </g>
    </g>
</svg>