<svg width="215" height="180" viewBox="0 0 215 180" fill="none" xmlns="http://www.w3.org/2000/svg"><path opacity=".1" fill-rule="evenodd" clip-rule="evenodd" d="M69.697 6.402C75.984.791 85.852-.36 94.835.087c28.215 1.407 53.682 15.065 75.713 30.517 7.976 5.592 15.828 11.62 21.004 19.323 10.546 15.68 7.412 37.401-7.24 50.319-4.987 4.394-11.031 7.77-17.236 10.75-11.032 5.31-22.936 9.573-35.458 10.792-8.928.863-17.967.162-26.845-1.045-24.801-3.38-49.14-10.839-69.55-23.599-8.95-5.596-17.385-12.555-21.074-21.604-3.689-9.05-1.328-20.532 7.81-25.9 3.78-2.217 8.3-3.218 12.723-4.16 6.513-1.383 13.129-2.747 19.004-5.559 6.072-2.905 13.258-8.523 12.053-14.955-1.283-6.892-2.32-12.952 3.958-18.564z" fill="#29AB91"/><path d="M147.42 144.368s5.393-9.581 13.514-12.341a16.631 16.631 0 0 0 8.42-6.315 27.935 27.935 0 0 0 2.483-4.481" stroke="#535461"/><path fill-rule="evenodd" clip-rule="evenodd" d="M176.945 119.459c-.925.903-5.236 1.833-5.236 1.833s1.057-4.293 1.982-5.193a2.331 2.331 0 0 1 3.303.048 2.347 2.347 0 0 1-.049 3.312zM174.508 127.227c-1.266.252-5.381-1.315-5.381-1.315s3.215-3.021 4.479-3.28a2.336 2.336 0 0 1 2.746 1.841 2.341 2.341 0 0 1-1.836 2.754h-.008zM165.629 135.632c-1.22-.432-3.99-3.864-3.99-3.864s4.304-.984 5.518-.561a2.346 2.346 0 0 1 .801 4.011 2.332 2.332 0 0 1-2.329.414zM157.484 140.475c-1.272-.216-4.583-3.132-4.583-3.132s4.07-1.7 5.342-1.489c.83.129 1.526.695 1.825 1.482a2.349 2.349 0 0 1-.382 2.323 2.331 2.331 0 0 1-2.202.816zM165.523 122.558c0 1.295 2.333 5.044 2.333 5.044s2.338-3.749 2.338-5.041a2.339 2.339 0 0 0-2.335-2.342 2.339 2.339 0 0 0-2.336 2.342v-.003zM156.069 128.343c.388 1.234 3.732 4.114 3.732 4.114s1.111-4.28.726-5.515a2.334 2.334 0 0 0-2.927-1.534 2.344 2.344 0 0 0-1.531 2.935zM147.65 135.228c.172 1.282 2.985 4.688 2.985 4.688s1.817-4.03 1.644-5.312a2.336 2.336 0 1 0-4.629.624z" fill="#29AB91"/><path opacity=".25" fill-rule="evenodd" clip-rule="evenodd" d="M176.945 119.459c-.925.903-5.236 1.833-5.236 1.833s1.057-4.293 1.982-5.193a2.331 2.331 0 0 1 3.303.048 2.347 2.347 0 0 1-.049 3.312zM174.508 127.227c-1.266.252-5.381-1.315-5.381-1.315s3.215-3.021 4.479-3.28a2.336 2.336 0 0 1 2.746 1.841 2.341 2.341 0 0 1-1.836 2.754h-.008zM165.629 135.632c-1.22-.432-3.99-3.864-3.99-3.864s4.304-.984 5.518-.561a2.346 2.346 0 0 1 .801 4.011 2.332 2.332 0 0 1-2.329.414zM157.484 140.475c-1.272-.216-4.583-3.132-4.583-3.132s4.07-1.7 5.342-1.489c.83.129 1.526.695 1.825 1.482a2.349 2.349 0 0 1-.382 2.323 2.331 2.331 0 0 1-2.202.816zM165.523 122.558c0 1.295 2.333 5.044 2.333 5.044s2.338-3.749 2.338-5.041a2.339 2.339 0 0 0-2.335-2.342 2.339 2.339 0 0 0-2.336 2.342v-.003zM156.069 128.343c.388 1.234 3.732 4.114 3.732 4.114s1.111-4.28.726-5.515a2.334 2.334 0 0 0-2.927-1.534 2.344 2.344 0 0 0-1.531 2.935zM147.65 135.228c.172 1.282 2.985 4.688 2.985 4.688s1.817-4.03 1.644-5.312a2.336 2.336 0 1 0-4.629.624z" fill="#29AB91"/><path d="M147.729 144.174s1.058-10.951 7.369-16.774a16.682 16.682 0 0 0 5.144-9.197c.31-1.685.464-3.395.46-5.109" stroke="#535461"/><path fill-rule="evenodd" clip-rule="evenodd" d="M164.657 109.408c-.483 1.2-4.047 3.803-4.047 3.803s-.766-4.356-.284-5.553a2.333 2.333 0 1 1 4.039-.608c.517.674.629 1.577.292 2.358zM165.568 117.499c-1.055.745-5.459.987-5.459.987s1.722-4.073 2.77-4.818a2.333 2.333 0 0 1 2.327-.209 2.343 2.343 0 0 1 .362 4.04zM160.847 128.792c-1.291.108-5.208-1.912-5.208-1.912s3.532-2.646 4.808-2.756a2.337 2.337 0 0 1 2.523 2.137 2.34 2.34 0 0 1-2.131 2.531h.008zM155.356 136.53c-1.248.323-5.454-1.002-5.454-1.002s3.033-3.209 4.281-3.533a2.33 2.33 0 0 1 2.285.601 2.344 2.344 0 0 1-1.112 3.932v.002zM155.469 116.88c.52 1.183 4.171 3.669 4.171 3.669s.622-4.377.099-5.56a2.333 2.333 0 0 0-3.062-1.152 2.343 2.343 0 0 0-1.208 3.047v-.004zM149.162 126.012c.85.971 5.073 2.245 5.073 2.245s-.712-4.364-1.565-5.336a2.331 2.331 0 0 0-3.996.777 2.349 2.349 0 0 0 .488 2.314zM144.247 135.728c.676 1.103 4.623 3.072 4.623 3.072s.032-4.421-.646-5.523a2.331 2.331 0 0 0-4.043.11 2.348 2.348 0 0 0 .064 2.341h.002z" fill="#27DCB7"/><path opacity=".1" fill-rule="evenodd" clip-rule="evenodd" d="M80.531 180c14.131 0 25.587-1.926 25.587-4.302 0-2.375-11.456-4.301-25.587-4.301-14.13 0-25.586 1.926-25.586 4.301 0 2.376 11.456 4.302 25.586 4.302zM130.892 146.98c14.131 0 25.586-1.926 25.586-4.302 0-2.375-11.455-4.301-25.586-4.301-14.131 0-25.586 1.926-25.586 4.301 0 2.376 11.455 4.302 25.586 4.302z" fill="#29AB91"/><path fill-rule="evenodd" clip-rule="evenodd" d="M132.59 85.908l-.024.84-1.455 51.48h-2.445l1.199-51.48.024-.97 2.701.13z" fill="#B77B7F"/><path fill-rule="evenodd" clip-rule="evenodd" d="M146.745 129.519l-1.831-.005-27.213-.058-1.451-.002.773-2.387h29.529l.193 2.452z" fill="#DDA2A6"/><path opacity=".1" fill-rule="evenodd" clip-rule="evenodd" d="M132.59 85.908l-.024.84h-2.701l.024-.97 2.701.13z" fill="#000"/><path fill="#B77B7F" d="M129.086 84.649h4.535v1.712h-4.535z"/><path opacity=".1" fill-rule="evenodd" clip-rule="evenodd" d="M117.942 127.067l-.241 2.389-1.451-.002.773-2.387h.919z" fill="#000"/><path fill-rule="evenodd" clip-rule="evenodd" d="M121.848 84.618l-.076.742-6.037 59.708-2.765-.132 6.362-59.576.071-.678 2.445-.064z" fill="#DDA2A6"/><path opacity=".1" fill-rule="evenodd" clip-rule="evenodd" d="M146.746 129.519l-1.831-.005-.248-2.447h1.885l.194 2.452z" fill="#000"/><path fill-rule="evenodd" clip-rule="evenodd" d="M149.64 144.936l-2.768.132-6.035-59.708-.075-.742 2.443.064.071.678 6.364 59.576z" fill="#DDA2A6"/><path fill="#fff" d="M100.425 25.75h60.986v58.641h-60.986z"/><path fill-rule="evenodd" clip-rule="evenodd" d="M132.108 6.137v14.16h-2.378V6.138a1.192 1.192 0 0 1 .579-1.076 1.187 1.187 0 0 1 1.219 0c.376.225.598.638.58 1.076z" fill="#DDA2A6"/><path opacity=".1" fill="#000" d="M129.728 19.009h2.38v1.289h-2.38z"/><path fill-rule="evenodd" clip-rule="evenodd" d="M133.042 19.976v4.675h-4.233v-4.675a.576.576 0 0 1 .579-.581h3.079a.58.58 0 0 1 .575.58z" fill="#DDA2A6"/><path opacity=".1" fill-rule="evenodd" clip-rule="evenodd" d="M130.917 23.265a.901.901 0 0 0 0-1.805.9.9 0 0 0-.899.903.9.9 0 0 0 .899.902z" fill="#000"/><path fill-rule="evenodd" clip-rule="evenodd" d="M130.917 23.071a.901.901 0 0 0 0-1.804.9.9 0 0 0-.899.902.9.9 0 0 0 .899.902z" fill="#B77B7F"/><path opacity=".1" fill="#000" d="M128.796 24.073h4.246v.581h-4.246zM127.059 24.847h7.72v1.291h-7.72z"/><path fill="#DDA2A6" d="M127.059 24.459h7.72v1.291h-7.72z"/><path opacity=".1" fill-rule="evenodd" clip-rule="evenodd" d="M115.301 82.88h32.424a1.4 1.4 0 0 1 1.399 1.403v.306h-35.222v-.306c0-.775.627-1.403 1.399-1.403zM119.403 84.682l2.445-.064-.075.742h-2.441l.071-.678z" fill="#000"/><path opacity=".1" fill="#000" d="M129.086 84.649h4.535v.71h-4.535z"/><path opacity=".1" fill-rule="evenodd" clip-rule="evenodd" d="M143.276 85.36h-2.439l-.075-.742 2.443.064.071.678z" fill="#000"/><path fill-rule="evenodd" clip-rule="evenodd" d="M115.301 83.262h32.424a1.4 1.4 0 0 1 1.399 1.403v.307h-35.222v-.307c0-.372.148-.729.41-.992s.618-.41.989-.41z" fill="#DDA2A6"/><path fill-rule="evenodd" clip-rule="evenodd" d="M108.191 56.037c-.488-.259-5.811-4.29-5.811-4.29l-8.59-5.463s-.044-.13-.126-.352c2.356-2.683 1.842-6.576-.556-9.313-2.905-3.32-16.034-10.466-19.99-4.353-.448.699-.546 1.475-.643 2.249-.023.181-.046.363-.073.544-.338 2.216-1.427 4.364-3.136 6.172a31.36 31.36 0 0 1-1.224 1.204c-1.02.968-2.043 1.94-2.58 3.059a.088.088 0 0 0-.01-.036c-.005-.008-.008-.016-.01-.024a3.969 3.969 0 0 0-.395 1.079c-.276 1.414.346 2.786.968 4.157.225.497.45.994.633 1.493.23.635.398 1.292.5 1.96.017-.134.032-.266.047-.4.168.952.225 1.92.17 2.884-4.767.974-4.77 9.151-4.77 9.151s-.587 3.25-.488 4.423c.097 1.149.097 3.606.097 4.278v.038c0 .464-.338 2.77-.527 4.055-.06.408-.105.713-.119.823v.02c-.01.057-.03.139-.055.24-.195.786-.678 2.735 1.235 3.213.15.039.31.071.476.101.092 1.954.26 6.044.111 6.954 0 0 .786 5.495 1.438 6.892.412.819.895 1.6 1.442 2.335a2.58 2.58 0 0 1-.331.948c-.334.481-.162.876.396 1.047l-.065.565c-.239 2.119-.596 6.333.01 8.467.834 2.927.883 3.902.883 3.902s0 .877.345 1.364c.344.488.979 5.025.979 5.757 0 .219.15.963.346 1.939.458 2.285 1.173 5.842.83 6.936-.492 1.56-.098 3.755-.098 3.755s-.295 3.853-.645 4.681c-.351.829-.491 14.191.047 17.653.538 3.462.882 6.339.882 6.339s-.342 3.171-.05 3.609c.294.438.834 3.073.442 3.218-.392.145-.588 1.22-.588 1.22.208.315.431.62.67.912a3.545 3.545 0 0 1-.441-.187c.155.216.387.522.673.863l-.269 3.507a.586.586 0 0 0 .43.615 4.912 4.912 0 0 0 4.87-1.372c1.075-1.093 1.84-1.639 2.395-2.037.71-.508 1.08-.772 1.328-1.619.047-.162.088-.322.122-.473.317-1.347-1.115-2.348-2.253-1.774.157-1.066.28-2.277.161-2.961-.245-1.414-.196-5.12-.196-5.12l-.342-17.752s.635-3.512 1.371-4.876c.736-1.364.646-6.145.646-6.145l.833-15.703.783-7.656s.784-2.633 1.763.294c0 0-.538 5.898-.293 7.314.246 1.416.588 8.29.342 9.801-.245 1.511-1.321 9.803-.645 11.899.675 2.096 1.429 4.636 1.278 5.467-.15.831-.646 18.823-.646 18.823s1.324 3.453.345 4.584c-.98 1.131-.05 5.611-.05 5.611s.119.085.321.201l-.028.373-.308 4.034a.592.592 0 0 0 .43.618 4.913 4.913 0 0 0 4.87-1.373 16.366 16.366 0 0 1 2.396-2.038c.709-.507 1.08-.772 1.326-1.62.048-.162.089-.32.125-.473.345-1.47-1.399-2.536-2.565-1.576l-.058.05a2.134 2.134 0 0 1-.289.207c.246-1.113.603-3.021.43-3.915-.245-1.317.244-5.314.244-5.314s1.42-4.78 1.47-6.691l.392-15.213s-.048-6.195.148-7.706l.058-.458v-.002c.35-2.782 1.811-14.386 3.272-18.024 1.203-2.987 1.741-10.61 1.422-14.475a15.88 15.88 0 0 0-.055-.544c1.921-1.423 2.113-3.788 2.113-3.788s-1.765-3.38-3.463-4.811c-1.698-1.43-2.064-3.891-2.004-4.938a2.568 2.568 0 0 0-.587-1.755s-.784-2.536-1.307-2.795a.411.411 0 0 1-.114-.086c-.355-.382-.082-1.474-.082-1.474v-.035c.063-.252.43-1.888.321-2.307-.131-.453.065-2.6.065-2.6s1.242-3.707 1.046-6.633c-.196-2.927 2.548-2.666 2.548-2.666l8.473-.088h.965a6.8 6.8 0 0 0 .927-.963c1.614-.192 4.879-.803 5.245-2.59.497-2.372-1.528-4.779-2.019-5.04zM68.934 83.094l.058-1.487c.2.172.334.283.334.283.108.389.113.8.015 1.191a1.27 1.27 0 0 1-.734.824.898.898 0 0 0-.118.063l-.082-.84.527-.034zm28.818-26.247c.652-.004 1.605-.01 1.917.131a.29.29 0 0 0 .159.028.986.986 0 0 0 .527-.354c-.96-.72-3.032-2.33-3.463-3.052-.555-.945-5.488-4.1-5.488-4.1l-.123-.216c.011.075.011.15.011.226.114 1.553.777 3.03 1.44 4.51.224.496.447.994.65 1.495 1.059.142 2.249.393 2.464.813 0 0 1.01.52 1.632.52h.274z" fill="url(#paint0_linear)"/><path fill-rule="evenodd" clip-rule="evenodd" d="M91.523 172.28a9.555 9.555 0 0 1-.123.468c-.43 1.511-1.255 1.161-3.659 3.628a4.808 4.808 0 0 1-4.793 1.364.582.582 0 0 1-.43-.613l.303-4.001.144-1.926s3.84 1.08 5.794-.291c.066-.045.13-.093.19-.145a.5.5 0 0 0 .043-.043 1.566 1.566 0 0 1 1.821-.129c.572.353.858 1.031.71 1.688zM79.47 170.769a9.268 9.268 0 0 1-.123.468c-.43 1.511-1.254 1.161-3.658 3.628a4.806 4.806 0 0 1-4.793 1.364.582.582 0 0 1-.431-.613l.303-4.001.145-1.925s3.84 1.079 5.794-.292c.065-.045.128-.093.189-.144a.698.698 0 0 0 .043-.043 1.563 1.563 0 0 1 1.822-.129c.572.352.857 1.03.71 1.687z" fill="#67647E"/><path opacity=".1" fill-rule="evenodd" clip-rule="evenodd" d="M75.503 171.369l.155 2.081c-2.204 2.208-4.827-1.079-5.596-2.158 2.022 1.044 5.441.077 5.441.077zM88.458 172.215l.288-.192c-2.012 3.069-5.002 1.653-5.933 1.103l.144-1.925s3.84 1.079 5.794-.292a32.176 32.176 0 0 1-.293 1.306z" fill="#000"/><path fill-rule="evenodd" clip-rule="evenodd" d="M94.588 114.107c-1.545 3.87-3.088 16.835-3.282 18.346-.194 1.51-.144 7.644-.144 7.644l-.387 15.085c-.05 1.888-1.449 6.63-1.449 6.63s-.482 3.967-.24 5.273c.24 1.306-.627 4.748-.627 4.748l.288-.194c-2.412 3.669-6.224.919-6.224.919s-.917-4.45.05-5.564c.966-1.113-.339-4.547-.339-4.547s.483-17.854.627-18.676c.144-.823-.58-3.339-1.255-5.42-.676-2.08.387-10.306.628-11.806.242-1.5-.096-8.322-.337-9.725-.242-1.403.288-7.259.288-7.259-.964-2.903-1.737-.289-1.737-.289l-.773 7.595-.82 15.581s.097 4.748-.626 6.097c-.723 1.349-1.352 4.837-1.352 4.837l.338 17.614s-.047 3.669.194 5.079c.241 1.409-.532 5.033-.532 5.033-2.7 6.382-7.04-.537-7.04-.537s.194-1.065.58-1.209c.385-.145-.145-2.758-.431-3.194-.286-.436.047-3.581.047-3.581s-.338-2.853-.86-6.289c-.524-3.436-.386-16.693-.048-17.515.338-.822.626-4.645.626-4.645s-.385-2.178.097-3.727c.482-1.55-1.158-8.079-1.158-8.806 0-.728-.626-5.225-.964-5.709-.338-.483-.338-1.355-.338-1.355s-.047-.967-.86-3.87c-.6-2.12-.246-6.298-.012-8.403.084-.779.158-1.275.158-1.275s27.671-4.5 28.775-3.484c.259.24.43 1.062.532 2.234.33 3.833-.213 11.409-1.393 14.364z" fill="#444053"/><path opacity=".1" fill-rule="evenodd" clip-rule="evenodd" d="M84.115 135.862c.13 0 3.186.26 4.305.033 1.119-.227-4.305-.033-4.305-.033zM84.34 137.669s4.221.74 4.437.355c.215-.386-4.436-.355-4.436-.355zM71.443 136.894s2.187.097 3.377.648c1.19.55-3.377-.648-3.377-.648z" fill="#000"/><path fill-rule="evenodd" clip-rule="evenodd" d="M63.496 82.64s.353 6.74.161 7.934c0 0 .771 5.452 1.415 6.838.643 1.386 2.027 3.13 2.027 3.13l1.898-13.382-.452-4.584-5.049.064zM83.44 51.932c4.103 0 7.429-3.336 7.429-7.45 0-4.115-3.326-7.451-7.43-7.451-4.103 0-7.43 3.336-7.43 7.45 0 4.115 3.327 7.45 7.43 7.45z" fill="#EFB7B9"/><path fill-rule="evenodd" clip-rule="evenodd" d="M79.58 47.963s-2.316 4.55-4.632 6.678 13.895 4.547 14.28 4.547c.386 0-2.894-9.676-2.316-10.843.58-1.168-7.332-.382-7.332-.382z" fill="#EFB7B9"/><path opacity=".1" fill-rule="evenodd" clip-rule="evenodd" d="M95.984 99.743a4.809 4.809 0 0 1-1.192.669c-2.957 1.161-6.175 2.774-8.361 2.131-2.187-.644-6.819 0-6.819 0s-9.33-.775-11.192-.324c-.848.205-1.506.196-1.937.049.084-.779.157-1.275.157-1.275s27.704-4.5 28.809-3.484c.262.24.43 1.062.535 2.234z" fill="#000"/><path fill-rule="evenodd" clip-rule="evenodd" d="M98.01 95.444s-.257 3.226-3.218 4.388c-2.962 1.161-6.175 2.773-8.362 2.13-2.186-.643-6.818 0-6.818 0s-9.33-.775-11.192-.324c-1.861.451-2.832-.127-2.253-.967.579-.84.516-3.613.516-4.774s-.645-5.87-.066-6.71c.579-.84 1.093-4.064 2.25-4.582.353-.15.62-.45.724-.818.096-.389.09-.795-.015-1.181 0 0-.196-.162-.465-.401-.682-.611-1.836-1.744-1.466-2.116.515-.518 0-3.872 0-3.872s-1.222-2.579-.77-3.546c.452-.967-3.926-6.065-3.926-6.065s0-8.771 5.275-9.16c0 0 3.732.13 4.182-1.547.45-1.677 3.41-2.646 3.41-2.646l6.755 1.485s5.981 1.295 7.077.516c1.096-.78 1.937 1.031 1.937 1.031s3.73.195 4.115.97c.385.774-1.22 8.32-1.22 8.32s-2.703-.257-2.51 2.646c.194 2.903-1.041 6.58-1.041 6.58s-.194 2.129-.065 2.58c.12.416-.254 2.04-.314 2.29v.032s-.27 1.08.08 1.463a.43.43 0 0 0 .111.087c.517.257 1.292 2.773 1.292 2.773.401.489.608 1.11.579 1.742-.063 1.034.323 3.483 1.995 4.904 1.672 1.42 3.403 4.772 3.403 4.772z" fill="#29AB91"/><path fill-rule="evenodd" clip-rule="evenodd" d="M69.319 80.504v.274l-.116 3.022s-3.958.321-6.113-.216c-2.154-.538-1.248-2.936-1.162-3.432v-.02c.062-.453.646-4.225.646-4.838 0-.613 0-3.13-.097-4.291-.097-1.161.473-4.397.473-4.397l.418-.513 4.532 1.742 1.419 12.669z" fill="#29AB91"/><path opacity=".1" fill-rule="evenodd" clip-rule="evenodd" d="M69.307 80.785l-.116 3.021s-3.958.322-6.113-.216c-2.154-.537-1.248-2.935-1.162-3.431l7.391.626z" fill="#000"/><path opacity=".1" fill-rule="evenodd" clip-rule="evenodd" d="M69.591 83.788c.096-.388.09-.794-.015-1.18 0 0-.196-.162-.465-.402 3.407-.477 16.9-2.333 21.443-2.536v.033s-.269 1.079.08 1.463L69.591 83.79zM91.063 86.116s.837 4.748-2.284 6.419c-.002.008 1.77-2.346 2.284-6.42zM70.637 92.67s7.533-1.295 9.007-.289c1.474 1.006-9.007.29-9.007.29zM88.459 63.285s-1.158 4.774-.291 5.87c.867 1.097.29-5.87.29-5.87zM66.65 59.383s1.06 1.774.417 3.613-.417-3.613-.417-3.613zM64.456 74.931s1.352.805.902 2.064c-.45 1.258-.902-2.064-.902-2.064zM64.333 71.253s1.253.678 1.414 1.677c.162 1-1.414-1.677-1.414-1.677zM82.924 109.831s7.881.807 9.457-1.064c0 .011-7.11 1.42-9.457 1.064zM69.318 109.38s8.46 2.001 10.133.419c0 0-7.27.548-10.133-.419zM83.535 112.447s3.538 0 5.178.098c1.64.097-5.178-.098-5.178-.098zM69.897 113.958s1.736 1.968 3.7 1.614c1.962-.354-3.7-1.614-3.7-1.614z" fill="#000"/><path fill-rule="evenodd" clip-rule="evenodd" d="M73.308 33.377c-.545.848-.564 1.83-.706 2.771-.332 2.2-1.406 4.33-3.087 6.126-1.543 1.644-3.659 3.136-4.059 5.145-.379 1.908.906 3.745 1.58 5.612 1.776 4.897-.704 10.034-1.427 15.089-.2 1.396.04 3.18 1.756 3.645.536.147 1.15.127 1.632.36.645.311.843.957.962 1.537.431 2.077.58 4.203.443 6.32-.077 1.187-.163 2.553.956 3.369.508.373 1.192.563 1.853.742 1.763.477 4.042.864 5.23-.257.5-.468.686-1.128 1.308-1.5.932-.554 2.254-.179 3.427-.12 2.408.12 4.62-1.295 5.57-3.003.949-1.707.86-3.669.516-5.51-.344-1.84-.96-3.669-1.003-5.538-.015-.648.043-1.306.414-1.88.716-1.111 2.384-1.617 3.525-2.49 2.137-1.641 2.13-4.328 1.354-6.577-.777-2.249-2.172-4.405-2.344-6.73a2.569 2.569 0 0 1 .316-1.625c.306-.473.84-.827 1.292-1.217 3.118-2.642 2.75-6.98.172-9.95-2.854-3.291-15.785-10.381-19.68-4.319z" fill="#444053"/><g opacity=".1" fill-rule="evenodd" clip-rule="evenodd" fill="#000"><path d="M67.432 55.064c.243-1.962.198-3.907-.493-5.817-.34-.937-.833-1.867-1.192-2.806-.18.34-.31.703-.388 1.08-.378 1.907.907 3.744 1.58 5.611.227.626.392 1.273.493 1.932zM70.306 76.198a23.638 23.638 0 0 0-.441-6.32c-.12-.58-.319-1.223-.964-1.534-.483-.233-1.096-.216-1.632-.36a2.225 2.225 0 0 1-1.506-1.248c-.1.492-.186.982-.257 1.474-.2 1.397.041 3.182 1.757 3.646.536.145 1.15.125 1.631.358.646.31.844.956.964 1.537.198.963.336 1.938.414 2.918.015-.16.023-.315.034-.47zM88.65 75.432c-.95 1.714-3.163 3.123-5.572 3.002-1.173-.06-2.494-.432-3.424.12-.622.37-.811 1.033-1.31 1.501-1.189 1.111-3.468.734-5.23.257-.662-.181-1.344-.37-1.854-.743a2.332 2.332 0 0 1-.915-1.489c.013.663 0 1.328-.04 1.99-.078 1.187-.164 2.553.955 3.371.51.372 1.192.561 1.853.74 1.763.478 4.042.864 5.23-.256.5-.468.689-1.129 1.31-1.511.93-.555 2.252-.18 3.425-.12 2.409.12 4.621-1.296 5.572-3.003.913-1.649.872-3.514.553-5.294-.12.5-.306.983-.553 1.435zM92.727 43.873c-.46.388-.994.744-1.291 1.217a2.568 2.568 0 0 0-.317 1.625c.063.707.212 1.402.444 2.072a8.604 8.604 0 0 1 1.173-1.044c2.109-1.785 2.621-4.347 1.937-6.739a6.16 6.16 0 0 1-1.946 2.869zM92.1 60.011c-1.138.874-2.808 1.381-3.522 2.493-.373.574-.43 1.237-.416 1.878.027.754.119 1.505.276 2.244.04-.087.087-.172.14-.252.714-1.112 2.384-1.617 3.523-2.491 1.952-1.498 2.116-3.868 1.539-5.98a4.48 4.48 0 0 1-1.54 2.108z"/></g><path fill-rule="evenodd" clip-rule="evenodd" d="M103.799 64.608s5.566-.29 6.048-2.644c.482-2.355-1.507-4.748-1.993-5.001-.487-.252-5.734-4.258-5.734-4.258l-8.458-5.418s-4.053-11.655-4.95-7.193c-.898 4.46 2.606 10.385 2.606 10.385s4.855 3.13 5.402 4.065c.547.934 3.894 3.386 3.894 3.386l3.185 6.678z" fill="#EFB7B9"/><path fill-rule="evenodd" clip-rule="evenodd" d="M106.791 60.8c-1.317 3.357-3.024 4.68-3.024 4.68h-.949l-8.344.086-.962-2.635 1.351-5.711.835.034s1 .516 1.608.516c.61 0 1.804-.032 2.152.127a.264.264 0 0 0 .157.024c.317-.032.646-.507.646-.507s7.85.032 6.53 3.386z" fill="#29AB91"/><path opacity=".1" fill-rule="evenodd" clip-rule="evenodd" d="M106.791 60.8c-1.317 3.357-3.024 4.68-3.024 4.68h-.949c.495-1.33 1.539-4.058 1.937-4.688.389-.596-3.106-2.078-5.15-2.879.316-.032.645-.507.645-.507s7.86.04 6.541 3.395z" fill="#000"/><path opacity=".1" fill-rule="evenodd" clip-rule="evenodd" d="M19.547 166.575c5.251 0 9.508-.835 9.508-1.865 0-1.029-4.257-1.864-9.508-1.864-5.252 0-9.509.835-9.509 1.864 0 1.03 4.257 1.865 9.509 1.865zM178.053 153.768c3.825 0 6.926-.608 6.926-1.358 0-.749-3.101-1.357-6.926-1.357s-6.926.608-6.926 1.357c0 .75 3.101 1.358 6.926 1.358zM208.074 159.269c3.826 0 6.926-.607 6.926-1.357s-3.1-1.358-6.926-1.358c-3.825 0-6.926.608-6.926 1.358 0 .75 3.101 1.357 6.926 1.357zM161.587 170.6c3.825 0 6.926-.607 6.926-1.357s-3.101-1.358-6.926-1.358-6.926.608-6.926 1.358c0 .75 3.101 1.357 6.926 1.357z" fill="#29AB91"/><path fill-rule="evenodd" clip-rule="evenodd" d="M28.532 112.945s1.558 2.044-.719 5.126c-2.277 3.082-4.151 5.685-3.39 7.608 0 0 3.433-5.726 6.23-5.805 2.795-.08.955-3.484-2.12-6.929z" fill="#29AB91"/><path opacity=".1" fill-rule="evenodd" clip-rule="evenodd" d="M28.533 112.945c.136.2.243.418.318.648 2.727 3.214 4.18 6.211 1.558 6.287-2.44.069-5.37 4.448-6.071 5.553.022.086.05.171.084.253 0 0 3.433-5.726 6.229-5.806 2.795-.08.957-3.49-2.118-6.935z" fill="#000"/><path fill-rule="evenodd" clip-rule="evenodd" d="M31.427 115.549c0 .718-.08 1.295-.178 1.295-.099 0-.18-.583-.18-1.295s.1-.38.2-.38c.098 0 .158-.348.158.38z" fill="#FFD037"/><path fill-rule="evenodd" clip-rule="evenodd" d="M32.421 116.407c-.628.343-1.177.553-1.224.464-.048-.088.43-.432 1.052-.781.622-.35.381-.093.43 0 .05.093.37-.028-.258.317z" fill="#FFD037"/><path fill-rule="evenodd" clip-rule="evenodd" d="M20.308 112.945s-1.558 2.044.72 5.126c2.276 3.082 4.15 5.685 3.395 7.608 0 0-3.443-5.726-6.241-5.805-2.798-.08-.95-3.484 2.126-6.929z" fill="#29AB91"/><path opacity=".1" fill-rule="evenodd" clip-rule="evenodd" d="M20.308 112.945c-.136.2-.244.418-.319.648-2.727 3.214-4.18 6.211-1.558 6.287 2.44.069 5.38 4.448 6.072 5.553-.023.086-.05.17-.082.253 0 0-3.444-5.726-6.242-5.806-2.798-.08-.947-3.49 2.129-6.935z" fill="#000"/><path fill-rule="evenodd" clip-rule="evenodd" d="M17.414 115.549c0 .718.08 1.295.178 1.295.1 0 .18-.583.18-1.295s-.1-.38-.199-.38-.159-.348-.159.38z" fill="#FFD037"/><path fill-rule="evenodd" clip-rule="evenodd" d="M16.42 116.407c.63.343 1.176.553 1.226.464.05-.088-.43-.432-1.055-.781-.624-.35-.38-.093-.43 0-.05.093-.37-.028.258.317z" fill="#FFD037"/><path opacity=".1" fill-rule="evenodd" clip-rule="evenodd" d="M24.42 141.301c8.992 0 16.281-1.122 16.281-2.506 0-1.384-7.29-2.505-16.281-2.505-8.993 0-16.282 1.121-16.282 2.505s7.29 2.506 16.282 2.506z" fill="#29AB91"/><path fill-rule="evenodd" clip-rule="evenodd" d="M32.8 122.927l-.077.648-.11.9-.045.375-.11.903-.047.375-.11.9-1.244 10.239c-.112.915-1.601 1.628-3.4 1.628h-6.462c-1.8 0-3.286-.713-3.398-1.628l-1.246-10.241-.11-.9-.045-.376-.112-.902-.046-.375-.11-.9-.077-.648c-.062-.518.743-.954 1.76-.954h13.241c1.006.002 1.813.438 1.748.956z" fill="#65617D"/><path fill-rule="evenodd" clip-rule="evenodd" d="M32.72 123.564l-.107.903H16.226l-.108-.903h16.603zM32.566 124.842l-.108.9H16.384l-.11-.9h16.293zM32.411 126.117l-.11.9H16.539l-.11-.9h15.983z" fill="#9D9CB5"/><path opacity=".1" fill-rule="evenodd" clip-rule="evenodd" d="M38.739 33.675c3.744 0 6.78-3.044 6.78-6.8 0-3.754-3.036-6.798-6.78-6.798-3.745 0-6.78 3.044-6.78 6.799 0 3.755 3.035 6.799 6.78 6.799zM24.534 14.898a4.203 4.203 0 0 0 4.197-4.209 4.203 4.203 0 0 0-4.197-4.209 4.203 4.203 0 0 0-4.197 4.21 4.203 4.203 0 0 0 4.197 4.208zM2.583 22.668a2.586 2.586 0 0 0 2.582-2.59c0-1.43-1.156-2.59-2.582-2.59A2.586 2.586 0 0 0 0 20.078c0 1.43 1.156 2.59 2.583 2.59z" fill="#29AB91"/><defs><linearGradient id="paint0_linear" x1="110.284" y1="177.935" x2="110.284" y2="29.874" gradientUnits="userSpaceOnUse"><stop stop-color="gray" stop-opacity=".25"/><stop offset=".54" stop-color="gray" stop-opacity=".12"/><stop offset="1" stop-color="gray" stop-opacity=".1"/></linearGradient></defs></svg>