<svg width="440" height="344" viewBox="0 0 440 344" xmlns="http://www.w3.org/2000/svg"><defs><linearGradient x1=".042%" y1="50.012%" y2="50.012%" id="a"><stop stop-color="gray" stop-opacity=".25" offset="0%"/><stop stop-color="gray" stop-opacity=".12" offset="54%"/><stop stop-color="gray" stop-opacity=".1" offset="100%"/></linearGradient></defs><g fill="none" fill-rule="evenodd"><ellipse fill="#29AB91" opacity=".1" cx="154.557" cy="322.61" rx="76.641" ry="14.519"/><path d="M255.71 48.483c-28.168-.975-54.994-10.071-80.61-20.02-25.618-9.95-50.99-20.969-78.483-26.24-17.682-3.39-37.907-3.872-52.151 5.598-13.714 9.14-18.144 24.872-20.525 39.482-1.793 10.994-2.846 22.566 2.063 32.859 3.412 7.146 9.461 13.152 13.648 19.998 14.567 23.815 4.27 53.183-11.511 76.436-7.399 10.907-15.994 21.326-21.709 32.924-5.714 11.598-8.356 24.933-3.355 36.797 4.953 11.751 16.76 20.56 29.55 26.762 25.979 12.599 56.579 16.203 86.438 18.248 66.079 4.518 132.505 2.563 198.758.6 24.52-.722 49.144-1.457 73.263-5.248 13.396-2.106 27.223-5.449 36.95-13.518 12.343-10.24 15.402-27.58 7.129-40.418-13.875-21.543-52.226-26.892-61.935-50.006-5.336-12.726.143-26.896 7.903-38.695 16.643-25.316 44.535-47.525 46.002-76.458 1.01-19.872-12.4-39.774-33.133-49.179-21.73-9.857-51.868-8.617-67.893 7.7-16.516 16.78-45.527 23.244-70.4 22.378z" fill="#29AB91" opacity=".1"/><path d="M233.326 157.434l-13.33-8.987 6.724-10.01-35.209-2.807-12.652 9.783-15.837-8.878-13.209 1.588-.156-3.481a98.263 98.263 0 0 0-1.093-10.837c.057-1.088.096-2.337.092-3.695 0-5.723-.775-13.309-4.178-18.366l.783-7.042-6.354-7.507a48.034 48.034 0 0 1 3.482-5.858 17.6 17.6 0 0 1 .67-.914c8.247-.596 14.753-7.377 14.753-15.668 0-.383 0-.766-.043-1.144 0-.153-.03-.31-.048-.462.805.436 1.62.87 2.433 1.306.152.218.326.435.518.692l.039.048.244.3.078.092c.087.104.178.204.27.309l.06.07c.231.256.475.517.736.774.031.025.06.053.087.083l.327.304.091.083c.279.248.575.487.87.714l.096.07.375.256.121.078c.144.087.292.179.436.262l.052.03c.17.091.344.178.518.261l.087.035c.148.064.293.125.435.183l.135.048c.152.052.3.1.457.143l.096.026c.191.048.383.087.579.118h.021c.185.03.37.049.557.056h.127c.166.01.333.01.5 0h.109c.209-.012.416-.036.622-.074a6.868 6.868 0 0 0 2.742-.983c.212-.142.4-.317.557-.518.87-1.14-.087-2.39-.087-2.39-.34-.809-2.542-1.379-2.542-1.379s-6.963-2.907-6.963-5.223c0-2.315-1.74-14.327-19.71-17.073 0 0-11.69-.657-14.976 5.601l-.07.731c-.966.605-1.767 1.82-2.72 2.176a4.444 4.444 0 0 0-1.18.436v-.083c-.11.096-.2.213-.265.344a3.482 3.482 0 0 0-.361 1.305 4.918 4.918 0 0 1-.57 1.58c-.078.14-.165.273-.261.4l-.074.118a3.177 3.177 0 0 0 1.48-.24 7.368 7.368 0 0 1-.436 1.742 1.445 1.445 0 0 0 1.34-.801v-.035l.057-.078c.11-.202.2-.413.27-.631l-.048.052c.087-.283.165-.57.261-.849.044-.157.116-.304.213-.435.236-.237.57-.349.901-.3l-.178 3.773h.078c-.105.274-.233.54-.383.792-.618 1.001-1.74 1.684-2.154 2.781a4.091 4.091 0 0 0-.2 1.645c0 .327.039.657.065.984v-.026c.06.87.078 1.697-.392 2.398-.322.478-.84.84-1.018 1.384a1.35 1.35 0 0 0-.065.47c.035.477.134.947.296 1.397a.06.06 0 0 0 0-.026c.108.33.134.683.074 1.027-.196.87-1.254 1.597-1.202 2.428a.936.936 0 0 0 .048.322c.204.406.556.718.984.87a3.83 3.83 0 0 0 2.21.488c.289-.052.568-.147.828-.283-.305.7-.618 1.393-.936 2.05-.048.105-.1.209-.152.313 0 0-2.69-1.797-4.218 1.867a8.13 8.13 0 0 0-.944 2.455 5.84 5.84 0 0 1-.322 1.01 6.498 6.498 0 0 1-2.907 2.611c-3.116 1.428-15.703 17.126-15.925 21.19a23.715 23.715 0 0 1-.8 4.692 27.919 27.919 0 0 0-.75 11.094c.156 1.199.414 2.383.771 3.538 1.336 4.06 2.228 11.638 2.228 11.638l1.445 13.152a37.428 37.428 0 0 0 .235 5.436c-1.475 1.684-7.398 8.704-5.135 10.614 1.74 1.506 4.787 1.258 6.498.95-1.44 3.564-3.708 9.76-4.009 14.017-.435 6.298.745 14.64 2.612 17.844 1.867 3.203 8.09 11.42 8.09 11.42s-.291 11.272 1.933 15.367c2.223 4.096 3.12 12.591 3.12 12.591s2.076 7.172 1.036 9.81c-1.04 2.637 1.928 4.83-1.188 6.585-3.116 1.753-7.103 41.284-7.103 41.284s-1.606 25.908 0 27.227c.086.062.178.116.274.16v8.705s-1.114 1.828 3.417 2.198c3.103.248 11.898.81 17.117 1.136l4.043.252s9.574 1.906 13.805 0c4.23-1.906 11.729-1.863 10.614-6.898a14.327 14.327 0 0 0-.591-2.015c-1.223-3.125-3.3-3.482-7.125-4.352a17.955 17.955 0 0 0-.63-.126c-4.031-.701-5.354 1.175-7.613-1.267-1.963-2.11-8.212-4.474-10.34-5.222.052-.157.117-.31.17-.47a3.186 3.186 0 0 1-1.615-.788l5.766.365 3.434.214s8.139 1.623 11.75 0c3.613-1.624 9.967-1.58 9.018-5.858a12.277 12.277 0 0 0-.5-1.715c-1.04-2.655-2.807-2.946-6.058-3.682-.187-.04-.361-.078-.536-.109-3.425-.596-4.548.997-6.467-1.075-1.645-1.767-6.837-3.747-8.704-4.421 0-.967-1.306-2.342-2.128-3.721-.966-1.61.818-7.247.818-7.247l1.018-23.384c.388-.173.798-.29 1.219-.348 0 0 4.604-4.396 3.564-9.078a30.086 30.086 0 0 1-.33-4.279c1.514-1.405 3.599-3.481 4.19-4.76.967-2.086 0-12.187 0-12.187v-38.625l7.704.78 6.99.717 2.128.218 6.99.705 16.063 1.623 14.475-2.742 6.263-1.183 12.878-2.438v-31.509l13.33-2.202zM127.304 53.022l-.896-.096c.295.013.609.07.896.096z" fill="url(#a)" fill-rule="nonzero"/><path d="M202.082 177.893c-4.352 6.228-19.998 2.93-19.998 2.93l-12.125-11.347-1.632-1.536 2.738-5.815s.87.24 2.363.666c7.838 2.276 32.327 9.867 28.654 15.102z" fill="#EFB7B9"/><path d="M173.42 162.791c-.536 1.863-2.003 4.653-3.46 6.685l-1.633-1.536 2.738-5.815s.879.24 2.354.666z" fill="#000" opacity=".1"/><path d="M131.835 97.222s-11.177 4.957-10.628 17.13a200.694 200.694 0 0 0 2.559 23.397s-2.285 18.318 7.229 23.04a503.19 503.19 0 0 0 18.318 8.604s14.884 1.602 16.734 2.264c1.85.661 7.629-9.453 6.563-11.029-1.067-1.575-14.728-4.878-16.469-7.507-1.74-2.629-5.766-4.252-5.766-4.252s-4.157-2.516-4.44-4.787c-.282-2.272.814-3.965 1.093-4.962.278-.997.983-10.62.983-10.62s4.692-34.25-16.176-31.278z" fill="#DCE6F2"/><path d="M139.211 137.249s-15.332 2.567-13.848 7.934c0 0 5.566-5.793 13.848-7.934zM139.329 139.42s-8.43 6.881-6.78 7.234c1.649.352 6.78-7.234 6.78-7.234zM143.38 141.818s-2.258 4.627-.87 4.313c1.389-.313.87-4.313.87-4.313z" fill="#000" opacity=".1"/><path d="M173.985 163.283l-.931-.265c.265-.87.34-1.576.121-1.902-1.066-1.576-14.718-4.875-16.455-7.508-1.736-2.633-5.766-4.252-5.766-4.252s-4.157-2.515-4.44-4.787c-.283-2.272.814-3.965 1.093-4.961.278-.997.983-10.624.983-10.624s4.679-34.247-16.19-31.274c0 0-11.176 4.961-10.632 17.134a200.133 200.133 0 0 0 2.564 23.397s-2.285 18.318 7.228 23.04a503.19 503.19 0 0 0 18.319 8.604s14.88 1.597 16.733 2.263c.701.253 1.968-1.048 3.208-2.837l.705.657 12.125 11.342s15.646 3.303 19.998-2.925c3.678-5.24-20.807-12.83-28.663-15.102z" fill="#000" opacity=".1"/><path d="M125.402 51.534a3.7 3.7 0 0 0-1.205.465c-.436.361-.436.98-.544 1.52a4.996 4.996 0 0 1-.87 2.08 3.13 3.13 0 0 0 1.448-.24 7.46 7.46 0 0 1-.435 1.74 1.41 1.41 0 0 0 1.306-.796c.23-.49.412-1.002.544-1.527.04-.157.112-.305.209-.435.4-.475 1.144-.261 1.762-.2a2.894 2.894 0 0 0 2.647-1.271c.657-.997.696-3.547-.87-3.817-1.637-.27-2.656 1.984-3.992 2.48z" fill="#965D7B"/><g opacity=".1" fill="#000"><path d="M124.153 52.535c.04-.214.065-.436.113-.649-.413.361-.435.975-.544 1.519-.055.314-.14.621-.257.918a4.988 4.988 0 0 0 .688-1.788zM124.292 56.13c.217-.56.363-1.145.436-1.741a3.116 3.116 0 0 1-1.38.239 5.035 5.035 0 0 1-.5.87c.493.039.988-.042 1.444-.235a7.238 7.238 0 0 1-.435 1.741 1.414 1.414 0 0 0 1.306-.796c.108-.198.196-.407.26-.623-.259.363-.685.568-1.13.544zM128.114 53.17c-.618-.061-1.367-.274-1.767.2a1.345 1.345 0 0 0-.21.435c-.038.113-.073.231-.104.349.414-.327 1.084-.153 1.645-.096a2.907 2.907 0 0 0 2.646-1.271c.132-.211.23-.442.292-.683a2.899 2.899 0 0 1-2.502 1.066z"/></g><path fill="#DCE6F2" d="M138.502 87.478l6.637 7.982-.866 8.055-8.021-12.556z"/><path fill="#000" opacity=".1" d="M145.135 95.46l-.814 7.577-.052.478-7.238-11.333-.779-1.223.226-.352 2.02-3.13.448.54z"/><path d="M148.582 76.671c-2.246.645-4.392 2.855-6.259 5.54a47.286 47.286 0 0 0-3.377 5.806 73.164 73.164 0 0 0-1.602 3.434l-.313.731a57.925 57.925 0 0 0-1.18 2.986s-17.19-12.926-14.47-13.796c.914-.292 2.115-2.25 3.303-4.718l.148-.313c.753-1.585 1.493-3.351 2.15-5.014 1.345-3.416 2.341-6.385 2.341-6.385s26.113 9.771 19.259 11.73z" fill="#EFB7B9"/><path d="M158.866 64.216s3.969 7.18 9.3 6.201c5.332-.979 3.138-3.856 3.138-3.856l-12.438-2.345z" fill="#444053"/><path d="M151.175 312.787c-3.516 1.606-11.467 0-11.467 0l-3.352-.209c-4.352-.278-11.637-.748-14.214-.957-3.76-.309-2.837-1.85-2.837-1.85v-9.309l18.244-4.622s7.211 2.468 9.187 4.622c1.876 2.054 2.973.474 6.32 1.066.165.03.34.066.522.11 3.177.726 4.9 1.013 5.919 3.646.204.553.369 1.12.492 1.698.94 4.239-5.301 4.208-8.814 5.805z" fill="#A36468"/><path d="M159.497 305.284c-.654.409-1.341.761-2.054 1.053-2.394 1.093-4.67 2.425-7.09 3.456-2.42 1.032-5.027 1.767-7.647 1.571-1.37-.1-2.772-.435-4.082-.043a9.427 9.427 0 0 0-2.268 1.257c-4.352-.278-11.637-.748-14.214-.957-3.76-.309-2.837-1.85-2.837-1.85v-1.088c.135 0 .287-.039.461-.052.9-.014 1.798.12 2.655.396 1.889.514 3.769 1.019 5.658 1.523a4.47 4.47 0 0 1 2.176-2.776 6.937 6.937 0 0 1 3.508-.805c2.929.039 5.7 1.427 8.626 1.566a4.753 4.753 0 0 0 2.389-.4c.4-.2.753-.492 1.144-.714a8.356 8.356 0 0 1 1.972-.666 43.417 43.417 0 0 0 5.636-1.819c.522-.204 1.132-.574 1.062-1.131-.092-.74-1.254-.827-1.558-1.506a.87.87 0 0 1 .035-.77c.165.03.34.065.522.108 3.164.727 4.887 1.014 5.906 3.647z" fill="#000" opacity=".1"/><path d="M147.459 333.155c-4.135 1.89-13.492 0-13.492 0l-3.939-.23c-5.1-.327-13.691-.87-16.725-1.128-4.426-.365-3.338-2.176-3.338-2.176V318.65l21.47-5.44s8.486 2.902 10.81 5.44c2.206 2.415 3.482.557 7.438 1.253.196.035.4.078.613.126 3.739.87 5.767 1.197 6.964 4.296.242.65.436 1.318.579 1.997 1.079 4.988-6.246 4.949-10.38 6.833z" fill="#A36468"/><path d="M157.251 324.325c-.769.48-1.577.895-2.415 1.24-2.816 1.284-5.497 2.85-8.343 4.065-2.847 1.214-5.915 2.076-9 1.85-1.61-.118-3.26-.523-4.788-.053-.957.373-1.858.877-2.677 1.498-5.1-.327-13.691-.87-16.725-1.128-4.426-.365-3.338-2.176-3.338-2.176v-1.28c.18-.029.362-.049.544-.06a9.549 9.549 0 0 1 3.125.466l6.654 1.793a5.266 5.266 0 0 1 2.581-3.269 8.121 8.121 0 0 1 4.13-.949c3.447.048 6.707 1.68 10.15 1.846a5.619 5.619 0 0 0 2.802-.466c.475-.24.87-.583 1.35-.84a9.466 9.466 0 0 1 2.32-.783 52.09 52.09 0 0 0 6.597-2.142c.614-.243 1.332-.678 1.25-1.331-.11-.87-1.476-.975-1.838-1.776a1.049 1.049 0 0 1 .044-.905c.196.035.4.078.614.126 3.738.836 5.766 1.175 6.963 4.274z" fill="#000" opacity=".1"/><path d="M138.102 257.868l-1.162 27.344s-1.741 5.584-.797 7.181c.945 1.598 2.538 3.19 1.959 4.135-.58.944-7.543 11.154-9.793 7.237-2.25-3.917-4.47-20.89-4.47-20.89l2.077-20.964 12.186-4.043zM143.141 189.74l3.23 4.317v37.55s.944 10.01 0 12.077c-.945 2.068-5.732 6.202-5.732 6.202l-4.026-20.673.87-21.869 5.658-17.604z" fill="#444053"/><path d="M138.102 257.868l-1.162 27.344s-1.741 5.584-.797 7.181c.945 1.598 2.538 3.19 1.959 4.135-.58.944-7.543 11.154-9.793 7.237-2.25-3.917-4.47-20.89-4.47-20.89l2.077-20.964 12.186-4.043zM143.141 189.74l3.23 4.317v37.55s.944 10.01 0 12.077c-.945 2.068-5.732 6.202-5.732 6.202l-4.026-20.673.87-21.869 5.658-17.604z" fill="#000" opacity=".1"/><path d="M146.37 173.724v20.311l-3.625 15.811s-1.162 38.156-.148 42.795c1.014 4.64-3.481 8.996-3.481 8.996s-2.612.291-2.612 2.32c0 2.028-4.352 7.833-4.352 7.833l.144 11.316s1.889 21.182-1.014 25.242c-2.903 4.06 1.014 4.644 1.014 4.644-3.625 11.894-21.034 9.14-22.605 7.834-1.571-1.306 0-26.983 0-26.983s3.89-39.17 6.937-40.91c3.047-1.741.148-3.917 1.162-6.529 1.014-2.61-1.014-9.718-1.014-9.718s-.87-8.417-3.046-12.477c-2.176-4.061-1.889-15.233-1.889-15.233s-6.093-8.125-7.904-11.315c-1.81-3.19-2.976-11.46-2.541-17.7.296-4.218 2.511-10.359 3.917-13.893.674-1.693 1.162-2.79 1.162-2.79l.413.11 23.772 6.223 15.71 4.113z" fill="#444053"/><path d="M148.582 76.671c-2.246.645-4.392 2.855-6.259 5.54h-.487a15.546 15.546 0 0 1-13.492-7.803 15.31 15.31 0 0 1-1.366-3.111c1.344-3.417 2.341-6.385 2.341-6.385s26.117 9.801 19.263 11.76z" fill="#000" opacity=".1"/><path d="M157.395 65.791a15.559 15.559 0 1 1-29.107-7.625 15.746 15.746 0 0 1 5.223-5.518 15.559 15.559 0 0 1 23.862 12.003c.009.383.022.761.022 1.14z" fill="#EFB7B9"/><path d="M144.32 103.037l-.051.478L137.03 92.2c-.757 1.789-1.18 2.985-1.18 2.985s-17.19-12.943-14.47-13.813c.914-.292 2.115-2.25 3.303-4.718l.148-.313c1.262 3.76 8.595 11.276 11.646 14.288.353.348.644.635.87.844l.466.435.244.244c1.11 1.145 5.793 6.193 6.263 10.885z" fill="#000" opacity=".1"/><path d="M149.73 141.431l-.792 25.49-.139 4.54s-9.383-.87-18.14-1.828c-7.05-.77-13.696-1.602-14.718-2.09-1.306-.613-4.104-1.087-6.31-1.388-1.707-.23-3.047-.352-3.047-.352s-.5.148-1.271.287c-1.68.305-4.63.553-6.35-.94-2.198-1.91 3.577-8.852 5.018-10.519l.318-.361-.544-5.027-1.415-13.034s-.87-7.508-2.176-11.534c-.349-1.144-.6-2.316-.753-3.503a28.063 28.063 0 0 1 .731-10.994c.414-1.52.676-3.08.784-4.652.217-4.026 12.512-19.585 15.559-20.999a6.459 6.459 0 0 0 3.116-3.107c.212-.43.371-.885.474-1.354 1.306-5.658 4.61-3.412 4.61-3.412.796 4.426 13.125 16.142 13.125 16.142l.244.244c1.223 1.253 6.672 7.137 6.284 12.16a14.74 14.74 0 0 0 .823 5.5 93.027 93.027 0 0 1 4.287 24.373l.283 6.358z" fill="#DCE6F2"/><path d="M132.261 111.162s-3.046 7.399-5.331 8.595c-2.285 1.197 6.42 2.525 5.331-8.595zM134.546 124.98s-6.963.87-6.963 2.176 6.963-2.176 6.963-2.176zM141.836 133.467s-10.119 21.543-12.948 22.196c-2.829.652 12.948-22.196 12.948-22.196zM137.619 93.888l-8.37 3.639-10.1-15.259c.211-.43.37-.885.474-1.353 1.305-5.658 4.608-3.412 4.608-3.412.797 4.426 13.126 16.142 13.126 16.142l.262.243z" fill="#000" opacity=".1"/><path d="M138.054 93.018l-8.37 3.638-10.1-15.258c.212-.43.37-.885.474-1.354 1.305-5.657 4.609-3.412 4.609-3.412.796 4.426 13.126 16.142 13.126 16.142l.26.244z" fill="#DCE6F2"/><path d="M148.8 171.46s-9.384-.87-18.14-1.827l15.71 4.113v4.787c-.687.622-1.283.944-1.67.779-1.811-.762-16.586-3.155-16.586-3.155s-8.583-4.352-17.844-9.575a7.15 7.15 0 0 1-.653-.41 10.288 10.288 0 0 1-2.742-2.745c-1.71-2.477-2.546-5.658-2.907-8.779a37.96 37.96 0 0 1-.226-5.387c.045-2.04.23-4.075.557-6.09a200.233 200.233 0 0 1-1.306-23.5c.109-12.187 11.533-16.539 11.533-16.539 21-1.85 14.488 32.097 14.488 32.097s-1.214 9.575-1.545 10.554c-.33.98-1.518 2.611-1.357 4.896.16 2.285 4.173 5.018 4.173 5.018s3.917 1.837 5.532 4.557c1.175 2.006 8.809 4.726 13.121 6.667l-.139 4.54zM155.832 56.13a4.927 4.927 0 0 1-.435 2.08 12.86 12.86 0 0 1-.775 1.55 7.137 7.137 0 0 1-1.906 2.367c-1.005.718-2.276.918-3.482 1.21-1.205.291-2.459.757-3.146 1.784a6.24 6.24 0 0 0-.736 2.132 4.587 4.587 0 0 1-.87 2.063 1.71 1.71 0 0 1-2.037.488c-.364-.246-.64-.6-.788-1.014-.496-1.119-.622-2.36-.822-3.565-.2-1.205-.483-2.446-1.223-3.416-.74-.97-2.05-1.61-3.212-1.232a3.094 3.094 0 0 0-1.74 1.689 9.68 9.68 0 0 0-.658 2.402c-.54 2.954-1.177 5.89-1.91 8.809a.81.81 0 0 1-.144.33.627.627 0 0 1-.435.184c-.975.13-1.911-.553-2.895-.48a1.663 1.663 0 0 0-.3.049 15.55 15.55 0 0 1 1.571-17.757l.079-.022a4.692 4.692 0 0 0 1.74-1.097 18.375 18.375 0 0 0 1.741-2.015l.348-.435a19.85 19.85 0 0 1 3.395-3.225c.343-.28.736-.493 1.158-.626a3.43 3.43 0 0 1 1.096-.035c1.503.18 3.019.237 4.531.17a29.068 29.068 0 0 1 3.181-.323c2.755.079 5.106 2.024 6.846 4.157.936 1.092 1.772 2.35 1.828 3.777z" fill="#000" opacity=".1"/><path d="M126.255 58.58c-.605.992-1.697 1.666-2.106 2.755-.6 1.58.413 3.547-.518 4.957-.31.474-.818.826-.992 1.37-.296.919.513 1.898.304 2.842-.209.945-1.453 1.741-1.123 2.664.196.402.539.714.958.87.66.379 1.418.547 2.176.483 1.188-.195 2.072-1.362 3.277-1.449.98-.07 1.915.61 2.89.483a.653.653 0 0 0 .435-.187.753.753 0 0 0 .144-.33c.73-2.917 1.37-5.853 1.915-8.81.11-.825.33-1.633.652-2.402a3.12 3.12 0 0 1 1.741-1.688c1.162-.375 2.468.26 3.212 1.231.744.97 1.027 2.211 1.227 3.417.2 1.205.327 2.446.819 3.564.15.415.426.772.792 1.019.653.378 1.532.078 2.032-.488a4.54 4.54 0 0 0 .87-2.067c.114-.748.363-1.47.736-2.128.688-1.027 1.946-1.493 3.147-1.785 1.2-.291 2.467-.496 3.481-1.214a7.164 7.164 0 0 0 1.907-2.363c.644-1.123 1.244-2.342 1.192-3.634-.056-1.41-.892-2.668-1.784-3.765-1.741-2.132-4.096-4.078-6.85-4.152a27.07 27.07 0 0 0-3.182.322c-1.512.068-3.028.01-4.53-.174a3.56 3.56 0 0 0-1.097.04c-.423.129-.815.342-1.153.626a19.859 19.859 0 0 0-3.4 3.22 24.942 24.942 0 0 1-2.097 2.438 4.722 4.722 0 0 1-1.741 1.101c-.435.122-.87.035-1.284.17-1.284.404-1.454 2.08-2.05 3.064z" fill="#965D7B"/><path d="M168.166 70.413c-3.482.64-6.367-2.176-7.964-4.23a17.069 17.069 0 0 1-1.336-1.967l11.95 2.254.484.091s2.198 2.877-3.134 3.852z" fill="#000" opacity=".1"/><g opacity=".1" fill="#000"><path d="M122.943 69.26a3.625 3.625 0 0 0-.252-1.671c0 .043-.04.087-.052.13-.188.583.065 1.188.226 1.793.034-.081.06-.166.078-.252zM123.979 62.135a9.67 9.67 0 0 0 .035 1.806 9.697 9.697 0 0 0-.035-1.806zM154.205 58.066a7.137 7.137 0 0 1-1.907 2.368c-1.005.718-2.271.918-3.481 1.21-1.21.291-2.46.757-3.147 1.784a6.271 6.271 0 0 0-.735 2.132 4.557 4.557 0 0 1-.87 2.068c-.501.565-1.38.87-2.033.487a2.08 2.08 0 0 1-.792-1.018c-.492-1.119-.623-2.355-.819-3.565-.195-1.21-.487-2.446-1.227-3.416-.74-.97-2.05-1.61-3.212-1.232a3.107 3.107 0 0 0-1.74 1.689 9.488 9.488 0 0 0-.653 2.402 138.41 138.41 0 0 1-1.915 8.809.753.753 0 0 1-.144.33.653.653 0 0 1-.435.188c-.975.126-1.91-.553-2.89-.483-1.206.087-2.09 1.253-3.277 1.445a3.678 3.678 0 0 1-2.176-.483 2.328 2.328 0 0 1-.797-.566c-.206.295-.265.67-.16 1.014.191.405.535.718.957.87a3.678 3.678 0 0 0 2.176.483c1.188-.191 2.071-1.357 3.277-1.445.98-.07 1.915.61 2.89.484a.653.653 0 0 0 .435-.188.753.753 0 0 0 .144-.33c.73-2.902 1.37-5.838 1.915-8.809.11-.826.33-1.634.652-2.402a3.107 3.107 0 0 1 1.741-1.689c1.162-.379 2.468.261 3.212 1.232.744.97 1.027 2.21 1.227 3.416.2 1.206.327 2.446.819 3.564.149.415.426.772.792 1.019.652.378 1.532.078 2.032-.488a4.557 4.557 0 0 0 .87-2.067c.115-.75.364-1.472.736-2.132.688-1.028 1.945-1.489 3.147-1.785 1.2-.296 2.467-.492 3.481-1.21a7.137 7.137 0 0 0 1.907-2.367c.644-1.119 1.244-2.337 1.192-3.63a4.674 4.674 0 0 0-.052-.496 8.552 8.552 0 0 1-1.14 2.807z"/></g><path d="M155.414 58.197a15.376 15.376 0 0 1 1.937 6.463c-3.878-2.177-7.525-4.566-9.366-5.397-3.207-1.45-15.202-1.232-19.71-1.097a15.202 15.202 0 0 1 1.645-2.376 15.568 15.568 0 0 1 25.517 2.398l-.023.009zM169.254 68.568c-2.093.644-5.51-.6-9.052-2.385a17.069 17.069 0 0 1-1.336-1.967l11.95 2.254c.793.54.993 1.31-1.562 2.098z" fill="#000" opacity=".1"/><path d="M142.763 43.108s-11.425-.653-14.636 5.549l-.518 5.497-.87-.096-.175 3.738s17.46-.761 21.434 1.032c3.974 1.793 16.32 10.828 21.27 9.305 4.948-1.524-.436-2.938-.436-2.938s-6.811-2.886-6.811-5.149-1.689-14.218-19.258-16.938z" fill="#444053"/><path d="M120.728 246.874s7.29 7.073 10.445 6.529c0 0-8.922-.762-10.445-6.529zM119.205 250.152s.653 3.638 2.393 3.281c1.741-.357-2.393-3.281-2.393-3.281zM130.63 310.96s-10.35 8.05-8.605 8.268c1.745.218 8.604-8.269 8.604-8.269z" fill="#000" opacity=".1"/><path fill="#29AB91" d="M144.473 151.162l33.512-5.453v31.727l-31.84-1.667z"/><path fill="#0FC" opacity=".05" d="M144.473 151.162l33.512-5.453v31.727l-31.84-1.667z"/><path fill="#29AB91" d="M177.985 145.71l40.187 3.007-2.224 27.61-37.963 1.11z"/><path fill="#164E43" opacity=".1" d="M177.985 145.71l40.187 3.007-2.224 27.61-37.963 1.11z"/><path fill="#26DBB7" d="M190.34 136.026l-12.355 9.683 40.187 3.008 6.567-9.91zM132.34 140.587l30.168-3.673 15.477 8.795-33.512 5.453z"/><path fill="#2ECBAB" d="M185.331 153.948v43.377l-15.698-1.61-6.829-.696-2.08-.218-6.824-.7-9.427-.967v-41.972l33.507 2.28z"/><path fill="#29AB91" d="M218.172 148.717v42.302l-12.582 2.416-6.119 1.175-14.14 2.715v-43.377z"/><path fill="#29AB91" opacity=".05" d="M218.172 148.717v42.302l-12.582 2.416-6.119 1.175-14.14 2.715v-43.377z"/><path fill="#26DBB7" d="M132.34 160.293l12.133-9.13 40.858 2.785-6.015 10.132z"/><path fill="#26DBB7" opacity=".1" d="M132.34 160.293l12.133-9.13 40.858 2.785-6.015 10.132z"/><path fill="#26DBB7" d="M218.172 148.717l-32.841 5.23 10.689 9.575 35.178-5.901z"/><path fill="#1BECC2" opacity=".1" d="M218.172 148.717l-32.841 5.23 10.689 9.575 35.178-5.901z"/><path fill="#29AB91" opacity=".1" d="M205.59 193.435l-6.119 1.175v-9.04l5.732-1.445zM169.633 189.735v5.98l-6.829-.696v-5.284zM160.724 191.62v3.181l-6.824-.7v-2.481z"/><path d="M181.223 186.563c-4.679 5.984-20.129 1.85-20.129 1.85l-11.48-11.978-1.559-1.623 3.046-5.658s.87.287 2.325.792c7.694 2.69 31.735 11.581 27.797 16.617z" fill="#000" opacity=".1"/><path d="M180.787 185.692c-4.678 5.984-20.128 1.85-20.128 1.85l-11.481-11.977-1.558-1.624 3.046-5.657s.87.287 2.324.792c7.695 2.69 31.736 11.58 27.797 16.616z" fill="#EFB7B9"/><path d="M152.973 169.076c-.636 1.828-2.25 4.535-3.813 6.489l-1.558-1.624 3.047-5.657s.875.287 2.324.792z" fill="#000" opacity=".1"/><path d="M114.961 101.391s-11.424 4.353-11.533 16.539c-.026 7.852.41 15.7 1.306 23.501 0 0-3.264 18.17 5.984 23.393 9.248 5.222 17.844 9.574 17.844 9.574s14.775 2.394 16.59 3.156c1.815.761 8.121-9.031 7.142-10.663-.98-1.632-14.432-5.658-16.029-8.378-1.597-2.72-5.531-4.552-5.531-4.552s-4.013-2.738-4.174-5.023c-.161-2.284 1.023-3.916 1.358-4.896.335-.979 1.55-10.554 1.55-10.554s6.492-33.968-14.507-32.097z" fill="#DCE6F2"/><path d="M120.184 141.736s-15.45 1.74-14.253 7.18c0 0 5.87-5.487 14.253-7.18zM120.184 143.912s-8.77 6.42-7.16 6.854c1.611.436 7.16-6.854 7.16-6.854zM124.1 146.523s-2.502 4.5-1.087 4.265c1.414-.235 1.088-4.265 1.088-4.265z" fill="#000" opacity=".1"/><path d="M284.964 48.914s-16.538-.997-14.606 10.606c0 0-.387 2.05 1.471 2.98 0 0 .03-.87 1.698-.57.593.1 1.197.13 1.797.088a3.73 3.73 0 0 0 2.202-.91s4.653-1.92 6.463-9.527c0 0 1.34-1.662 1.306-2.089l-2.794 1.197s.953 2.015.2 3.69c0 0-.087-3.616-.627-3.533-.108 0-1.449.7-1.449.7s1.64 3.508.4 6.063c0 0 .47-4.326-.913-5.81l-1.968 1.149s1.92 3.625.618 6.585c0 0 .336-4.54-1.031-6.306l-1.784 1.388s1.806 3.577.705 6.032c0 0-.144-5.284-1.093-5.684 0 0-1.558 1.375-1.793 1.941 0 0 1.232 2.611.466 3.965 0 0-.47-3.521-.87-3.538 0 0-1.554 2.332-1.715 3.916a8.47 8.47 0 0 1 1.336-4.151 4.661 4.661 0 0 0-2.376 1.231s.239-1.65 2.759-1.793c0 0 1.305-1.771 1.627-1.88 0 0-2.506-.209-4.025.466 0 0 1.336-1.554 4.487-.87l1.74-1.437s-3.298-.435-4.7.048c0 0 1.61-1.375 5.175-.374l1.915-1.145s-2.812-.61-4.487-.387c0 0 1.767-.953 5.048.078l1.371-.614s-2.063-.404-2.663-.47c-.6-.065-.636-.23-.636-.23a7.12 7.12 0 0 1 3.87.435s2.937-1.058 2.876-1.24z" fill="#29AB91"/><path d="M335.214 106.945s-16.538-.997-14.606 10.606c0 0-.387 2.05 1.471 2.981 0 0 .03-.87 1.702-.57.593.1 1.197.13 1.797.087a3.725 3.725 0 0 0 2.176-.905s4.657-1.924 6.468-9.531c0 0 1.336-1.659 1.283-2.085l-2.794 1.192s.953 2.016.205 3.691c0 0-.091-3.617-.627-3.534-.109 0-1.453.7-1.453.7s1.645 3.513.404 6.063c0 0 .47-4.326-.918-5.81l-1.945 1.136s1.919 3.625.618 6.585c0 0 .335-4.54-1.032-6.306l-1.78 1.392s1.802 3.573.705 6.028c0 0-.143-5.283-1.092-5.684 0 0-1.558 1.375-1.798 1.941 0 0 1.236 2.612.47 3.965 0 0-.47-3.52-.87-3.538 0 0-1.554 2.333-1.715 3.917a8.495 8.495 0 0 1 1.34-4.152 4.683 4.683 0 0 0-2.38 1.231s.244-1.65 2.764-1.793c0 0 1.284-1.771 1.627-1.88 0 0-2.506-.209-4.025.466 0 0 1.336-1.554 4.482-.849l1.741-1.436s-3.303-.435-4.7.048c0 0 1.61-1.375 5.175-.374l1.915-1.145s-2.816-.605-4.492-.387c0 0 1.771-.953 5.053.078l1.37-.614s-2.062-.404-2.667-.47c-.605-.065-.635-.23-.635-.23a7.133 7.133 0 0 1 3.873.435s2.942-1.066 2.89-1.25zM234.745 96.643s3.808-16.142-7.96-16.198c0 0-1.954-.731-3.186.94 0 0 .84.178.27 1.771a7.747 7.747 0 0 0-.392 1.74 3.738 3.738 0 0 0 .518 2.32s1.101 4.919 8.27 8c0 0 1.41 1.601 1.836 1.619l-.696-2.955s-2.15.596-3.674-.435c0 0 3.582.526 3.587 0 0-.11-.436-1.55-.436-1.55s-3.738 1.019-6.045-.64c0 0 4.183 1.202 5.884.092l-.783-2.141s-3.917 1.275-6.598-.514c0 0 4.417 1.105 6.393.06l-1.066-1.992s-3.83 1.166-6.062-.335c0 0 5.222.757 5.788-.105 0 0-1.088-1.771-1.606-2.102 0 0-2.768.775-3.987-.213 0 0 3.547.135 3.63-.24 0 0-2.032-1.928-3.582-2.363a8.53 8.53 0 0 1 3.87 2.028 4.696 4.696 0 0 0-.81-2.554s1.584.522 1.305 3.046c0 0 1.524 1.567 1.572 1.924 0 0 .63-2.433.226-4.048 0 0 1.306 1.584.074 4.566l1.114 1.98s1.01-3.177.753-4.64c0 0 1.084 1.82-.514 5.162l.806 2.085s1.074-2.672 1.144-4.352c0 0 .64 1.906-.94 4.965l.374 1.454s.749-1.963.914-2.546c.166-.583.335-.588.335-.588a7.129 7.129 0 0 1-1.083 3.743s.57 3.038.757 3.016zM198.527 102.144s-13.283-9.935-18.031.827c0 0-1.45 1.502-.41 3.3 0 0 .497-.701 1.741.46.441.41.93.767 1.454 1.062.71.396 1.532.55 2.337.436 0 0 4.944.953 10.637-4.405 0 0 2.032-.652 2.224-1.035l-2.999-.527s-.313 2.206-1.858 3.194c0 0 1.91-3.072 1.414-3.294-.1-.048-1.597-.218-1.597-.218s-.557 3.839-2.994 5.288c0 0 2.772-3.355 2.428-5.357l-2.276-.122s-.387 4.086-3.103 5.845c0 0 2.772-3.608 2.611-5.837l-2.254.183s-.457 3.974-2.725 5.419c0 0 2.781-4.492 2.211-5.345 0 0-2.058.292-2.567.631 0 0-.397 2.847-1.79 3.569 0 0 1.546-3.199 1.232-3.42 0 0-2.58 1.092-3.594 2.336a8.5 8.5 0 0 1 3.403-2.733 4.687 4.687 0 0 0-2.664-.278s1.106-1.245 3.29.021c0 0 2.046-.77 2.394-.674 0 0-1.98-1.554-3.62-1.824 0 0 1.975-.565 4.217 1.741l2.258-.23s-2.51-2.177-3.951-2.542c0 0 2.102-.266 4.526 2.528l2.228.1s-2.015-2.054-3.534-2.794c0 0 1.998.175 4.174 2.842l1.484.24s-1.502-1.471-1.972-1.854-.404-.544-.404-.544a7.15 7.15 0 0 1 2.998 2.49s3.025.7 3.082.521zM242.749 9.831s-13.283-9.94-18.031.827c0 0-1.45 1.502-.41 3.3 0 0 .497-.701 1.741.46.444.409.933.764 1.458 1.058a3.73 3.73 0 0 0 2.338.435s4.944.953 10.636-4.408c0 0 2.033-.649 2.22-1.036l-2.999-.518s-.309 2.206-1.858 3.194c0 0 1.915-3.072 1.419-3.294-.1-.048-1.598-.218-1.598-.218s-.574 3.848-3.011 5.288c0 0 2.768-3.355 2.428-5.357l-2.276-.122s-.392 4.086-3.103 5.84c0 0 2.772-3.608 2.611-5.836l-2.25.183s-.461 3.978-2.729 5.423c0 0 2.786-4.492 2.216-5.345 0 0-2.059.292-2.568.631 0 0-.396 2.847-1.789 3.569 0 0 1.545-3.199 1.232-3.425 0 0-2.581 1.097-3.595 2.341a8.46 8.46 0 0 1 3.403-2.733 4.657 4.657 0 0 0-2.668-.278s1.11-1.245 3.295.021c0 0 2.045-.774 2.394-.674 0 0-1.98-1.554-3.621-1.828 0 0 1.971-.561 4.212 1.74l2.26-.23s-2.508-2.176-3.952-2.546c0 0 2.102-.261 4.53 2.533l2.228.096s-2.015-2.054-3.538-2.79c0 0 2.002.174 4.178 2.842l1.48.24s-1.506-1.454-1.976-1.828c-.47-.375-.405-.54-.405-.54a7.137 7.137 0 0 1 2.999 2.49s3.025.66 3.099.495zM293.503 22.422s-5.31-15.715-15.324-9.54c0 0-2.045.436-2.206 2.485 0 0 .805-.296 1.162 1.358.132.589.332 1.16.596 1.702.36.73.946 1.324 1.671 1.693 0 0 3.534 3.59 11.263 2.402 0 0 2.042.618 2.416.405l-2.176-2.137s-1.506 1.64-3.343 1.576c0 0 3.321-1.445 3.047-1.911-.057-.091-1.193-1.08-1.193-1.08s-2.637 2.843-5.466 2.655c0 0 4.183-1.192 5.036-3.046l-1.802-1.388s-2.638 3.142-5.871 3.046c0 0 4.352-1.397 5.453-3.33l-1.958-1.126s-2.612 3.016-5.319 2.92c0 0 4.84-2.12 4.853-3.147 0 0-1.859-.927-2.472-.935 0 0-1.941 2.119-3.482 1.928 0 0 3.081-1.763 2.95-2.124 0 0-2.741-.562-4.286-.11a8.482 8.482 0 0 1 4.352-.326 4.696 4.696 0 0 0-2.041-1.74s1.619-.396 2.703 1.884c0 0 2.124.527 2.35.8 0 0-.749-2.397-1.946-3.555 0 0 1.946.657 2.477 3.839l1.993 1.088s-.822-3.225-1.815-4.352c0 0 1.885.975 2.294 4.652l1.784 1.345s-.496-2.838-1.332-4.309c0 0 1.55 1.28 1.828 4.714l1.084 1.035s-.4-2.062-.566-2.646c-.165-.583-.03-.622-.03-.622a7.177 7.177 0 0 1 1.057 3.752s2.107 2.258 2.26 2.145zM258.851 23.197s-16.494-1.837-15.132 9.866c0 0-.492 2.028 1.306 3.047 0 0 .074-.87 1.74-.48.59.128 1.191.187 1.794.18a3.743 3.743 0 0 0 2.241-.797s4.748-1.684 6.963-9.192c0 0 1.42-1.588 1.389-2.02l-2.85 1.054s.87 2.059 0 3.695c0 0 .09-3.617-.436-3.56-.109 0-1.484.627-1.484.627s1.462 3.59.096 6.093c0 0 .687-4.3-.623-5.85l-2.024 1.045s1.741 3.72.283 6.61c0 0 .566-4.517-.71-6.349l-1.849 1.306s1.62 3.66.396 6.058c0 0 .127-5.284-.8-5.732 0 0-1.628 1.306-1.894 1.845 0 0 1.101 2.655.27 3.983 0 0-.291-3.539-.674-3.574 0 0-1.672 2.25-1.915 3.839a8.474 8.474 0 0 1 1.549-4.082c-.903.125-1.75.51-2.437 1.11 0 0 .322-1.633 2.846-1.65 0 0 1.371-1.702 1.741-1.793 0 0-2.494-.335-4.047.261 0 0 1.414-1.488 4.521-.622l1.833-1.345s-3.312-.67-4.714-.235c0 0 1.68-1.306 5.188-.109l1.972-1.049s-2.781-.748-4.466-.613c0 0 1.815-.87 5.04.335l1.401-.544s-2.04-.51-2.641-.605c-.601-.096-.623-.261-.623-.261a7.16 7.16 0 0 1 3.848.626s2.933-.935 2.902-1.118zM403.168 151.223s-16.486-1.836-15.124 9.854c0 0-.491 2.028 1.306 3.046 0 0 .074-.87 1.74-.483a7.53 7.53 0 0 0 1.794.178 3.712 3.712 0 0 0 2.241-.796s4.748-1.684 6.942-9.187c0 0 1.419-1.593 1.388-2.02l-2.85 1.05s.87 2.062 0 3.698c0 0 .09-3.62-.436-3.56-.108 0-1.484.623-1.484.623s1.463 3.59.096 6.093c0 0 .688-4.296-.622-5.85l-2.024 1.05s1.74 3.72.287 6.61c0 0 .562-4.517-.714-6.354l-1.85 1.306s1.62 3.66.397 6.054c0 0 .126-5.284-.801-5.728 0 0-1.623 1.306-1.893 1.845 0 0 1.105 2.655.27 3.983 0 0-.292-3.539-.675-3.573 0 0-1.671 2.25-1.915 3.838a8.474 8.474 0 0 1 1.55-4.082 4.644 4.644 0 0 0-2.438 1.11s.322-1.637 2.847-1.654c0 0 1.375-1.702 1.74-1.789 0 0-2.493-.34-4.047.257 0 0 1.414-1.484 4.526-.618l1.828-1.345s-3.273-.618-4.696-.191c0 0 1.68-1.306 5.188-.114l1.971-1.044s-2.78-.749-4.465-.614c0 0 1.815-.87 5.04.335l1.401-.548s-2.04-.51-2.641-.6c-.601-.092-.623-.262-.623-.262a7.133 7.133 0 0 1 3.847.623s2.942-.954 2.899-1.14zM428.371 166.621s-16.486-1.832-15.124 9.853c0 0-.487 2.028 1.306 3.047 0 0 .074-.87 1.741-.479a7.682 7.682 0 0 0 1.789.174 3.76 3.76 0 0 0 2.232-.792s4.744-1.684 6.938-9.192c0 0 1.423-1.588 1.388-2.019l-2.85 1.049s.87 2.063 0 3.7c0 0 .09-3.617-.436-3.56-.109 0-1.484.622-1.484.622s1.462 3.59.096 6.093c0 0 .687-4.296-.623-5.845l-2.023 1.044s1.74 3.721.287 6.611c0 0 .561-4.518-.714-6.35l-1.85 1.306s1.62 3.66.4 6.058c0 0 .123-5.288-.804-5.732 0 0-1.624 1.306-1.893 1.846 0 0 1.105 2.654.27 3.982 0 0-.292-3.538-.675-3.573 0 0-1.671 2.25-1.91 3.838a8.495 8.495 0 0 1 1.544-4.082c-.903.125-1.75.51-2.437 1.11 0 0 .326-1.637 2.85-1.65 0 0 1.372-1.701 1.742-1.793 0 0-2.494-.335-4.048.261 0 0 1.415-1.488 4.526-.622l1.828-1.345s-3.273-.618-4.696-.191c0 0 1.68-1.306 5.188-.11l1.971-1.048s-2.78-.749-4.465-.614c0 0 1.815-.87 5.04.336l1.401-.545s-2.04-.509-2.637-.604c-.596-.096-.627-.262-.627-.262a7.16 7.16 0 0 1 3.848.627s2.955-.962 2.911-1.149zM372.416 36.923s-13.283-9.935-18.031.827c0 0-1.45 1.502-.41 3.3 0 0 .497-.701 1.742.46.44.41.929.767 1.453 1.063.711.395 1.532.548 2.337.435 0 0 4.944.953 10.641-4.405 0 0 2.028-.652 2.22-1.035l-2.99-.54s-.313 2.206-1.858 3.194c0 0 1.91-3.072 1.414-3.294-.1-.048-1.593-.218-1.593-.218s-.561 3.839-2.998 5.288c0 0 2.772-3.355 2.428-5.357l-2.276-.122s-.387 4.086-3.103 5.845c0 0 2.777-3.608 2.611-5.837l-2.254.183s-.435 3.974-2.725 5.419c0 0 2.786-4.492 2.211-5.345 0 0-2.058.292-2.568.631 0 0-.391 2.847-1.784 3.569 0 0 1.54-3.199 1.227-3.42 0 0-2.58 1.092-3.594 2.336a8.5 8.5 0 0 1 3.403-2.733 4.687 4.687 0 0 0-2.664-.278s1.11-1.245 3.295.021c0 0 2.041-.77 2.39-.674 0 0-1.981-1.554-3.622-1.824 0 0 1.976-.566 4.218 1.741l2.258-.23s-2.507-2.177-3.951-2.542c0 0 2.102-.266 4.526 2.528l2.232.1s-2.019-2.054-3.538-2.794c0 0 2.002.175 4.174 2.842l1.484.24s-1.502-1.471-1.972-1.854-.4-.51-.4-.51a7.155 7.155 0 0 1 2.994 2.49s3.016.679 3.073.5zM382.678 108.655s-4.578-15.942-14.875-10.219c0 0-2.063.318-2.32 2.381 0 0 .818-.257 1.101 1.41.105.599.28 1.183.522 1.741.323.75.882 1.374 1.593 1.776 0 0 3.369 3.742 11.142 2.907 0 0 2.01.705 2.393.513l-2.058-2.237s-1.58 1.576-3.408 1.428c0 0 3.377-1.306 3.116-1.771-.052-.096-1.14-1.136-1.14-1.136s-2.76 2.724-5.58 2.406c0 0 4.235-1 5.166-2.802l-1.74-1.471s-2.777 3.02-6.002 2.785c0 0 4.387-1.206 5.597-3.081l-1.906-1.215s-2.764 2.895-5.445 2.677c0 0 4.931-1.902 4.992-2.925 0 0-1.82-1.01-2.433-1.044 0 0-2.032 2.028-3.577 1.767 0 0 3.16-1.624 3.046-1.99 0 0-2.716-.682-4.278-.304a8.491 8.491 0 0 1 4.352-.126 4.67 4.67 0 0 0-1.958-1.828s1.636-.326 2.61 2.002c0 0 2.094.618 2.312.905 0 0-.64-2.432-1.784-3.638 0 0 1.914.74 2.302 3.943l1.94 1.18s-.678-3.265-1.618-4.414c0 0 1.836 1.058 2.085 4.749l1.74 1.423s-.37-2.855-1.136-4.352c0 0 1.493 1.349 1.615 4.787l1.036 1.088s-.305-2.08-.435-2.672c-.13-.592 0-.675 0-.675a7.133 7.133 0 0 1 .892 3.795s1.984 2.342 2.141 2.237zM280.656 144.578s-8.892-14.005-17.148-5.623c0 0-1.889.87-1.558 2.937 0 0 .718-.478 1.458 1.045a7.45 7.45 0 0 0 .984 1.506 3.717 3.717 0 0 0 2.023 1.253s4.287 2.646 11.512-.348c0 0 2.128.113 2.441-.178l-2.61-1.567s-1.076 1.958-2.873 2.328c0 0 2.88-2.176 2.493-2.576-.074-.079-1.414-.766-1.414-.766s-1.884 3.386-4.679 3.877c0 0 3.782-2.154 4.174-4.147l-2.085-.918s-1.814 3.677-4.974 4.352c0 0 3.873-2.39 4.504-4.53l-2.176-.628s-1.836 3.556-4.47 4.1c0 0 4.196-3.212 3.966-4.213 0 0-2.029-.457-2.612-.317 0 0-1.38 2.52-2.937 2.702 0 0 2.576-2.446 2.363-2.768 0 0-2.799.11-4.191.914a8.47 8.47 0 0 1 4.152-1.349 4.67 4.67 0 0 0-2.39-1.205s1.476-.77 3.047 1.188c0 0 2.176 0 2.476.217 0 0-1.305-2.176-2.737-2.99 0 0 2.045.174 3.316 3.138l2.198.583s-1.571-2.937-2.794-3.777c0 0 2.058.496 3.333 3.973l2.055.87s-1.158-2.632-2.32-3.864c0 0 1.81.87 2.894 4.139l1.306.753s-.87-1.91-1.18-2.437c-.309-.527-.187-.649-.187-.649a7.137 7.137 0 0 1 1.92 3.39s2.602 1.733 2.72 1.585z" fill="#29AB91" opacity=".1"/><path d="M339.092 73.02s-8.457-14.27-16.974-6.15c0 0-1.915.827-1.645 2.89 0 0 .727-.461 1.423 1.084a7.52 7.52 0 0 0 .936 1.54c.5.642 1.197 1.101 1.985 1.306 0 0 4.2 2.777 11.515 0 0 0 2.124.179 2.446-.104l-2.554-1.645s-1.132 1.919-2.942 2.237c0 0 2.946-2.102 2.576-2.498-.078-.083-1.393-.814-1.393-.814s-1.989 3.33-4.787 3.734c0 0 3.847-2.037 4.295-4.013l-2.054-.966s-1.928 3.625-5.11 4.204c0 0 3.948-2.267 4.645-4.387l-2.15-.696s-1.95 3.482-4.596 3.96c0 0 4.291-3.081 4.09-4.086 0 0-2.01-.523-2.61-.4 0 0-1.458 2.476-3.02 2.61 0 0 2.65-2.358 2.45-2.69 0 0-2.803.023-4.218.784a8.495 8.495 0 0 1 4.191-1.218 4.679 4.679 0 0 0-2.354-1.28s1.501-.727 3.046 1.28c0 0 2.176.074 2.468.296 0 0-1.232-2.176-2.642-3.073 0 0 2.037.235 3.216 3.238l2.176.653s-1.475-2.986-2.676-3.865c0 0 2.045.562 3.212 4.074l2.024.944s-1.075-2.668-2.177-3.917c0 0 1.78.927 2.768 4.226l1.276.792s-.819-1.936-1.106-2.472c-.287-.535-.165-.653-.165-.653a7.15 7.15 0 0 1 1.815 3.447s2.493 1.772 2.62 1.628zM285.59 103.028s.436-16.582-11.084-14.245c0 0-2.063-.317-2.933 1.572 0 0 .87 0 .626 1.675a7.642 7.642 0 0 0-.026 1.802c.079.813.423 1.578.98 2.176 0 0 2.075 4.587 9.74 6.145 0 0 1.701 1.284 2.128 1.214l-1.306-2.75s-1.98 1.018-3.682.326c0 0 3.613-.213 3.512-.744 0-.109-.748-1.432-.748-1.432s-3.456 1.763-6.045.605c0 0 4.352.327 5.775-1.105l-1.214-1.928s-3.56 2.036-6.563.835c0 0 4.548.183 6.271-1.24l-1.45-1.74s-3.511 1.923-6 .904c0 0 5.274-.317 5.657-1.28 0 0-1.427-1.51-2.002-1.74 0 0-2.55 1.306-3.943.6 0 0 3.482-.583 3.504-.97 0 0-2.381-1.475-3.987-1.584 1.48.026 2.929.44 4.2 1.201a4.679 4.679 0 0 0-1.306-2.337s1.658.187 1.885 2.698c0 0 1.814 1.228 1.932 1.567 0 0 .126-2.511-.6-4.008 0 0 1.601 1.284 1 4.452l1.493 1.715s.34-3.317-.204-4.696c0 0 1.427 1.562.548 5.157l1.206 1.876s.513-2.833.239-4.5c0 0 1.01 1.74.087 5.052l.661 1.35s.336-2.076.38-2.681c.043-.605.208-.644.208-.644a7.146 7.146 0 0 1-.3 3.886s1.17 2.872 1.362 2.816z" fill="#29AB91"/><ellipse fill="#29AB91" opacity=".1" cx="304.636" cy="311.743" rx="11.72" ry="1.98"/><ellipse fill="#29AB91" opacity=".1" cx="261.911" cy="341.807" rx="11.72" ry="1.98"/><ellipse fill="#29AB91" opacity=".1" cx="40.971" cy="326.405" rx="11.72" ry="1.98"/><ellipse fill="#29AB91" opacity=".1" cx="350.808" cy="339.827" rx="11.72" ry="1.98"/><ellipse fill="#29AB91" cx="363.011" cy="314.702" rx="17.5" ry="2.959"/><path d="M370.266 309.858a5.053 5.053 0 0 0 1.667-2.515c.217-1.001-.21-2.198-1.162-2.564-1.07-.409-2.216.331-3.086 1.08-.87.748-1.858 1.606-2.994 1.449a4.57 4.57 0 0 0 1.41-4.27 1.789 1.789 0 0 0-.392-.87c-.596-.635-1.671-.361-2.385.14-2.263 1.592-2.894 4.665-2.907 7.433-.226-.997-.035-2.037-.04-3.047-.004-1.01-.286-2.176-1.152-2.707a3.443 3.443 0 0 0-1.741-.435c-1.019-.035-2.155.065-2.847.81-.87.922-.64 2.476.11 3.481.748 1.006 1.892 1.654 2.946 2.36a6.585 6.585 0 0 1 2.106 2.006c.062.113.113.233.152.356h6.38a17.6 17.6 0 0 0 3.935-2.707z" fill="#29AB91"/><path d="M33.102 317.2s6.68-.204 8.705-1.64c2.023-1.437 10.284-3.147 10.784-.845.5 2.303 10.045 11.442 2.498 11.503-7.546.06-17.534-1.175-19.545-2.402-2.01-1.228-2.442-6.616-2.442-6.616z" fill="#A8A8A8"/><path d="M55.215 325.417c-7.546.061-17.534-1.175-19.545-2.402-1.532-.932-2.141-4.278-2.346-5.823h-.222s.435 5.392 2.433 6.615c1.998 1.223 11.999 2.463 19.546 2.402 2.176 0 2.928-.792 2.89-1.94-.305.7-1.137 1.135-2.756 1.148z" fill="#000" opacity=".2"/></g></svg>