<svg width="221" height="205" viewBox="0 0 221 205" fill="none" xmlns="http://www.w3.org/2000/svg">
<g opacity="0.5">
<rect x="40.7769" y="34.783" width="117.17" height="157.449" fill="url(#paint0_linear)"/>
</g>
<rect x="42.3027" y="36.9202" width="113.509" height="151.957" fill="#F2F2F2"/>
<rect x="51.1523" y="43.3269" width="39.0565" height="1.22019" fill="#E0E0E0"/>
<rect opacity="0.7" x="51.1523" y="48.8188" width="39.0565" height="1.22019" fill="#29AB91"/>
<rect x="96.0068" y="43.3269" width="39.0565" height="1.22019" fill="#E0E0E0"/>
<rect x="102.107" y="78.114" width="39.0565" height="1.22019" fill="#E0E0E0"/>
<rect x="103.025" y="81.4688" width="39.0565" height="1.22019" fill="#E0E0E0"/>
<rect x="104.856" y="84.8264" width="39.0565" height="1.22019" fill="#E0E0E0"/>
<rect x="102.107" y="132.121" width="39.0565" height="1.22019" fill="#E0E0E0"/>
<rect x="103.025" y="135.479" width="39.0565" height="1.22019" fill="#E0E0E0"/>
<rect x="104.856" y="138.833" width="39.0565" height="1.22019" fill="#E0E0E0"/>
<g opacity="0.5">
<rect x="51.458" y="65.6011" width="41.4969" height="42.1083" fill="url(#paint1_linear)"/>
</g>
<rect x="51.7192" y="66.5183" width="40.8437" height="40.2767" fill="#F5F5F5"/>
<g opacity="0.5">
<rect x="53.1587" y="68.9587" width="38.095" height="26.2406" fill="url(#paint2_linear)"/>
</g>
<rect x="53.4204" y="69.2644" width="37.5698" height="25.3261" fill="white"/>
<mask id="mask0" mask-type="alpha" maskUnits="userSpaceOnUse" x="100" y="85" width="38" height="26">
<rect x="100.19" y="85.0823" width="37.5698" height="25.3261" fill="white"/>
</mask>
<g mask="url(#mask0)">
<path opacity="0.4" fill-rule="evenodd" clip-rule="evenodd" d="M50.2353 93.6758L59.6964 79.0283L63.6626 85.4349L72.2066 76.5879L79.5303 85.4349L85.937 72.3159L102.413 98.5565L49.0151 96.7249L50.2353 93.6758Z" fill="#6C63FF"/>
</g>
<g opacity="0.5">
<rect x="51.458" y="119.611" width="41.4969" height="42.1083" fill="url(#paint3_linear)"/>
</g>
<rect x="51.7192" y="120.525" width="40.8437" height="40.2767" fill="#F5F5F5"/>
<g opacity="0.5">
<rect x="53.1587" y="122.968" width="38.095" height="26.2406" fill="url(#paint4_linear)"/>
</g>
<rect x="53.4204" y="123.271" width="37.5698" height="25.3261" fill="white"/>
<mask id="mask1" mask-type="alpha" maskUnits="userSpaceOnUse" x="100" y="139" width="38" height="26">
<rect x="100.19" y="139.09" width="37.5698" height="25.3261" fill="white"/>
</mask>
<g mask="url(#mask1)">
<path opacity="0.4" fill-rule="evenodd" clip-rule="evenodd" d="M50.2353 147.683L59.6964 133.036L63.6626 139.445L72.2066 130.595L79.5303 139.445L85.937 126.323L102.413 152.564L49.0151 150.735L50.2353 147.683Z" fill="#BDBDBD"/>
</g>
<g opacity="0.5">
<path fill-rule="evenodd" clip-rule="evenodd" d="M57.9785 181.433L88.6683 27.0037L203.591 49.8423L172.901 204.271L57.9785 181.433Z" fill="url(#paint5_linear)"/>
</g>
<path fill-rule="evenodd" clip-rule="evenodd" d="M60.1284 178.439L89.7477 29.3966L201.08 51.5217L171.46 200.564L60.1284 178.439Z" fill="white"/>
<path fill-rule="evenodd" clip-rule="evenodd" d="M96.4741 37.8835L175.485 53.5855L175.247 54.7822L96.2363 39.0803L96.4741 37.8835Z" fill="#E0E0E0"/>
<path fill-rule="evenodd" clip-rule="evenodd" d="M73.9927 151.014L153.004 166.716L152.766 167.913L73.7548 152.211L73.9927 151.014Z" fill="#E0E0E0"/>
<path fill-rule="evenodd" clip-rule="evenodd" d="M72.6221 157.895L133.676 170.028L133.438 171.225L72.3842 159.092L72.6221 157.895Z" fill="#E0E0E0"/>
<path opacity="0.7" fill-rule="evenodd" clip-rule="evenodd" d="M71.2544 164.781L93.9985 169.3L93.7606 170.497L71.0166 165.977L71.2544 164.781Z" fill="#29AB91"/>
<path opacity="0.7" fill-rule="evenodd" clip-rule="evenodd" d="M95.104 44.7683L134.608 52.619L134.37 53.8158L94.8662 45.9651L95.104 44.7683Z" fill="#29AB91"/>
<path fill-rule="evenodd" clip-rule="evenodd" d="M93.7388 51.6511L164.967 65.8063L164.729 67.0031L93.5009 52.8479L93.7388 51.6511Z" fill="#E0E0E0"/>
<path opacity="0.7" fill-rule="evenodd" clip-rule="evenodd" d="M92.3696 58.5359L109.727 61.9853L109.489 63.1821L92.1318 59.7327L92.3696 58.5359Z" fill="#3AD29F"/>
<path fill-rule="evenodd" clip-rule="evenodd" d="M91.0029 65.4194L170.014 81.1214L169.776 82.3181L90.7651 66.6162L91.0029 65.4194Z" fill="#E0E0E0"/>
<g opacity="0.5">
<path fill-rule="evenodd" clip-rule="evenodd" d="M89.876 135.196L97.9645 94.4948L168.893 108.59L160.804 149.291L89.876 135.196Z" fill="url(#paint6_linear)"/>
</g>
<path fill-rule="evenodd" clip-rule="evenodd" d="M98.3662 94.8833L168.397 108.801L160.487 148.605L90.4559 134.687L98.3662 94.8833Z" fill="white"/>
<path fill-rule="evenodd" clip-rule="evenodd" d="M89.6353 72.3049L168.646 88.0068L168.408 89.2036L89.3974 73.5017L89.6353 72.3049Z" fill="#E0E0E0"/>
<path fill-rule="evenodd" clip-rule="evenodd" d="M104.63 101.728L113.31 103.453L107.541 132.483L98.8606 130.758L104.63 101.728Z" fill="#29AB91"/>
<path fill-rule="evenodd" clip-rule="evenodd" d="M118.289 114.398L126.968 116.123L123.102 135.576L114.423 133.851L118.289 114.398Z" fill="#3AD29F"/>
<path fill-rule="evenodd" clip-rule="evenodd" d="M132.069 126.47L140.749 128.195L138.667 138.668L129.987 136.944L132.069 126.47Z" fill="#2CCBAB"/>
<path fill-rule="evenodd" clip-rule="evenodd" d="M149.773 118.788L158.453 120.513L154.23 141.763L145.55 140.038L149.773 118.788Z" fill="#FDD835"/>
<path fill-rule="evenodd" clip-rule="evenodd" d="M154.722 79.7126C165.695 79.7952 176.171 84.3022 183.777 92.2127C197.475 106.461 198.967 128.487 187.317 144.454L216.753 175.076C217.512 175.865 217.487 177.12 216.698 177.879L209.361 184.934C208.572 185.693 207.317 185.668 206.558 184.879L177.114 154.254C160.626 165.322 138.561 162.887 124.884 148.49C109.805 132.62 110.066 107.315 125.482 91.7737C133.206 83.9786 143.748 79.63 154.722 79.7126ZM133.414 140.64C144.565 152.239 163.007 152.602 174.606 141.451C180.176 136.096 183.391 128.748 183.543 121.022C183.695 113.297 180.771 105.827 175.416 100.258C164.264 88.6596 145.822 88.2974 134.224 99.4486C122.625 110.6 122.263 129.042 133.414 140.64Z" fill="url(#paint7_linear)"/>
<path fill-rule="evenodd" clip-rule="evenodd" d="M132.837 112.345C129.561 112.345 129.556 117.437 132.837 117.437C136.119 117.437 136.119 112.345 132.837 112.345Z" fill="url(#paint8_linear)"/>
<path fill-rule="evenodd" clip-rule="evenodd" d="M155.676 96.0328C146.857 95.8342 138.833 100.258 134.567 106.936C133.174 109.115 137.127 111.041 138.512 108.872C142.045 103.343 148.757 99.8318 156.018 100.015C163.627 100.205 170.551 104.558 174.216 110.599C175.606 112.891 179.251 110.808 177.874 108.53C173.417 101.214 164.784 96.2497 155.676 96.0328Z" fill="url(#paint9_linear)"/>
<path fill-rule="evenodd" clip-rule="evenodd" d="M157.917 78.166C168.89 78.2486 179.366 82.7555 186.972 90.666C200.665 104.917 202.154 126.941 190.502 142.904L219.946 173.529C220.705 174.319 220.68 175.574 219.891 176.333L212.554 183.387C211.765 184.146 210.51 184.122 209.751 183.333L180.309 152.705C163.822 163.773 141.757 161.339 128.079 146.944C113 131.073 113.262 105.768 128.677 90.2271C136.401 82.432 146.944 78.0833 157.917 78.166ZM136.609 139.073C147.76 150.671 166.202 151.035 177.801 139.884C183.371 134.529 186.586 127.18 186.738 119.455C186.89 111.729 183.966 104.26 178.611 98.69C167.459 87.092 149.017 86.7298 137.419 97.8811C125.821 109.032 125.458 127.474 136.609 139.073Z" fill="#29AB91"/>
<path fill-rule="evenodd" clip-rule="evenodd" d="M136.033 110.795C132.756 110.795 132.751 115.888 136.033 115.888C139.314 115.888 139.314 110.795 136.033 110.795Z" fill="#29AB91"/>
<path fill-rule="evenodd" clip-rule="evenodd" d="M158.872 94.4859C150.053 94.2873 142.029 98.7109 137.762 105.389C136.37 107.568 140.323 109.494 141.708 107.325C145.24 101.797 151.953 98.285 159.214 98.4679C166.822 98.6586 173.746 103.012 177.412 109.052C178.802 111.344 182.447 109.261 181.07 106.983C176.605 99.6462 167.982 94.6819 158.872 94.4859Z" fill="#29AB91"/>
<rect x="32.2329" y="174.229" width="0.914489" height="5.18646" fill="#47E6B1"/>
<path fill-rule="evenodd" clip-rule="evenodd" d="M35.2847 176.364V177.279H30.0982V176.364H35.2847Z" fill="#47E6B1"/>
<path fill-rule="evenodd" clip-rule="evenodd" d="M149.92 2.83844C149.397 2.61097 149.128 2.02743 149.295 1.48238C149.308 1.44166 149.316 1.39956 149.319 1.35697C149.336 1.10827 149.187 0.878101 148.953 0.791699C148.719 0.705296 148.456 0.783325 148.308 0.983332C148.282 1.01732 148.261 1.05416 148.245 1.09307C148.017 1.61576 147.434 1.88448 146.889 1.71754C146.848 1.70475 146.806 1.69686 146.763 1.69402C146.513 1.67592 146.28 1.82657 146.195 2.06289C146.109 2.29921 146.191 2.56367 146.395 2.71041C146.429 2.73555 146.466 2.7566 146.505 2.77312C147.027 3.00059 147.296 3.58413 147.129 4.12918C147.116 4.1699 147.109 4.212 147.106 4.25459C147.086 4.50686 147.237 4.7414 147.475 4.82744C147.713 4.91349 147.979 4.82978 148.125 4.623C148.15 4.58901 148.171 4.55218 148.187 4.51326C148.415 3.99057 148.998 3.72185 149.543 3.8888C149.584 3.90158 149.626 3.90947 149.669 3.91231C149.918 3.92932 150.148 3.7804 150.234 3.54657C150.321 3.31274 150.242 3.04994 150.042 2.90115C150.004 2.87507 149.963 2.85399 149.92 2.83844Z" fill="#29AB91"/>
<path fill-rule="evenodd" clip-rule="evenodd" d="M36.4107 41.2862C35.888 41.0587 35.6193 40.4752 35.7863 39.9301C35.799 39.8894 35.8069 39.8473 35.8098 39.8047C35.8268 39.556 35.6779 39.3259 35.444 39.2395C35.2102 39.1531 34.9474 39.2311 34.7986 39.4311C34.7735 39.4651 34.7524 39.5019 34.7359 39.5408C34.5084 40.0635 33.9249 40.3322 33.3798 40.1653C33.3391 40.1525 33.297 40.1446 33.2544 40.1418C33.0057 40.1248 32.7756 40.2737 32.6892 40.5075C32.6028 40.7413 32.6808 41.0041 32.8808 41.1529C32.9148 41.1781 32.9516 41.1991 32.9905 41.2156C33.5132 41.4431 33.7819 42.0267 33.615 42.5717C33.6022 42.6124 33.5943 42.6545 33.5915 42.6971C33.5745 42.9458 33.7234 43.176 33.9572 43.2624C34.1911 43.3488 34.4539 43.2708 34.6026 43.0708C34.6278 43.0368 34.6488 42.9999 34.6654 42.961C34.8928 42.4383 35.4764 42.1696 36.0214 42.3365C36.0621 42.3493 36.1042 42.3572 36.1468 42.3601C36.3955 42.3771 36.6257 42.2282 36.7121 41.9943C36.7985 41.7605 36.7205 41.4977 36.5205 41.3489C36.4865 41.3238 36.4496 41.3027 36.4107 41.2862Z" fill="#FDD835"/>
<path fill-rule="evenodd" clip-rule="evenodd" d="M197.826 199.953C197.303 199.725 197.034 199.142 197.201 198.597C197.214 198.556 197.222 198.514 197.225 198.471C197.242 198.223 197.093 197.992 196.859 197.906C196.625 197.82 196.362 197.898 196.214 198.098C196.189 198.132 196.167 198.168 196.151 198.207C195.923 198.73 195.34 198.999 194.795 198.832C194.754 198.819 194.712 198.811 194.669 198.808C194.421 198.791 194.191 198.94 194.104 199.174C194.018 199.408 194.096 199.671 194.296 199.819C194.33 199.845 194.367 199.866 194.406 199.882C194.928 200.11 195.197 200.693 195.03 201.238C195.017 201.279 195.009 201.321 195.007 201.364C194.99 201.612 195.138 201.842 195.372 201.929C195.606 202.015 195.869 201.937 196.018 201.737C196.043 201.703 196.064 201.666 196.08 201.628C196.308 201.105 196.891 200.836 197.436 201.003C197.477 201.016 197.519 201.024 197.562 201.027C197.811 201.044 198.041 200.895 198.127 200.661C198.214 200.427 198.136 200.164 197.935 200.015C197.902 199.99 197.865 199.969 197.826 199.953Z" fill="#FDD835"/>
<path fill-rule="evenodd" clip-rule="evenodd" d="M84.4107 22.2752C85.4223 22.2752 86.2423 21.4552 86.2423 20.4437C86.2423 19.4321 85.4223 18.6121 84.4107 18.6121C83.3991 18.6121 82.5791 19.4321 82.5791 20.4437C82.5791 21.4552 83.3991 22.2752 84.4107 22.2752Z" fill="#FDD835"/>
<path fill-rule="evenodd" clip-rule="evenodd" d="M215.617 45.1583C216.628 45.1583 217.448 44.3383 217.448 43.3267C217.448 42.3151 216.628 41.4951 215.617 41.4951C214.605 41.4951 213.785 42.3151 213.785 43.3267C213.785 44.3383 214.605 45.1583 215.617 45.1583Z" fill="#FDD835"/>
<path fill-rule="evenodd" clip-rule="evenodd" d="M205.244 99.777C206.255 99.777 207.075 98.9569 207.075 97.9454C207.075 96.9338 206.255 96.1138 205.244 96.1138C204.232 96.1138 203.412 96.9338 203.412 97.9454C203.412 98.9569 204.232 99.777 205.244 99.777Z" fill="#29AB91"/>
<path opacity="0.5" fill-rule="evenodd" clip-rule="evenodd" d="M2.33159 10.0682C3.34315 10.0682 4.16318 9.24818 4.16318 8.23662C4.16318 7.22506 3.34315 6.40503 2.33159 6.40503C1.32003 6.40503 0.5 7.22506 0.5 8.23662C0.5 9.24818 1.32003 10.0682 2.33159 10.0682Z" fill="#47E6B1"/>
<defs>
<linearGradient id="paint0_linear" x1="157.946" y1="192.232" x2="157.946" y2="34.783" gradientUnits="userSpaceOnUse">
<stop stop-color="#808080" stop-opacity="0.25"/>
<stop offset="0.54" stop-color="#808080" stop-opacity="0.12"/>
<stop offset="1" stop-color="#808080" stop-opacity="0.1"/>
</linearGradient>
<linearGradient id="paint1_linear" x1="92.9549" y1="107.709" x2="92.9549" y2="65.6011" gradientUnits="userSpaceOnUse">
<stop stop-color="#808080" stop-opacity="0.25"/>
<stop offset="0.54" stop-color="#808080" stop-opacity="0.12"/>
<stop offset="1" stop-color="#808080" stop-opacity="0.1"/>
</linearGradient>
<linearGradient id="paint2_linear" x1="91.2537" y1="95.1994" x2="91.2537" y2="68.9587" gradientUnits="userSpaceOnUse">
<stop stop-color="#808080" stop-opacity="0.25"/>
<stop offset="0.54" stop-color="#808080" stop-opacity="0.12"/>
<stop offset="1" stop-color="#808080" stop-opacity="0.1"/>
</linearGradient>
<linearGradient id="paint3_linear" x1="92.9549" y1="161.719" x2="92.9549" y2="119.611" gradientUnits="userSpaceOnUse">
<stop stop-color="#808080" stop-opacity="0.25"/>
<stop offset="0.54" stop-color="#808080" stop-opacity="0.12"/>
<stop offset="1" stop-color="#808080" stop-opacity="0.1"/>
</linearGradient>
<linearGradient id="paint4_linear" x1="91.2537" y1="149.209" x2="91.2537" y2="122.968" gradientUnits="userSpaceOnUse">
<stop stop-color="#808080" stop-opacity="0.25"/>
<stop offset="0.54" stop-color="#808080" stop-opacity="0.12"/>
<stop offset="1" stop-color="#808080" stop-opacity="0.1"/>
</linearGradient>
<linearGradient id="paint5_linear" x1="172.901" y1="204.271" x2="203.591" y2="49.8423" gradientUnits="userSpaceOnUse">
<stop stop-color="#808080" stop-opacity="0.25"/>
<stop offset="0.54" stop-color="#808080" stop-opacity="0.12"/>
<stop offset="1" stop-color="#808080" stop-opacity="0.1"/>
</linearGradient>
<linearGradient id="paint6_linear" x1="160.806" y1="149.289" x2="168.894" y2="108.588" gradientUnits="userSpaceOnUse">
<stop stop-color="#808080" stop-opacity="0.25"/>
<stop offset="0.54" stop-color="#808080" stop-opacity="0.12"/>
<stop offset="1" stop-color="#808080" stop-opacity="0.1"/>
</linearGradient>
<linearGradient id="paint7_linear" x1="217.306" y1="185.488" x2="217.306" y2="79.7129" gradientUnits="userSpaceOnUse">
<stop stop-color="#B3B3B3" stop-opacity="0.25"/>
<stop offset="0.54" stop-color="#B3B3B3" stop-opacity="0.1"/>
<stop offset="1" stop-color="#B3B3B3" stop-opacity="0.05"/>
</linearGradient>
<linearGradient id="paint8_linear" x1="135.296" y1="117.435" x2="135.296" y2="112.345" gradientUnits="userSpaceOnUse">
<stop stop-opacity="0.12"/>
<stop offset="0.55" stop-opacity="0.09"/>
<stop offset="1" stop-opacity="0.02"/>
</linearGradient>
<linearGradient id="paint9_linear" x1="178.174" y1="111.595" x2="178.174" y2="96.0276" gradientUnits="userSpaceOnUse">
<stop stop-opacity="0.12"/>
<stop offset="0.55" stop-opacity="0.09"/>
<stop offset="1" stop-opacity="0.02"/>
</linearGradient>
</defs>
</svg>
