<?xml version="1.0" encoding="UTF-8"?>
<svg width="64px" height="64px" viewBox="0 0 64 64" version="1.1" xmlns="http://www.w3.org/2000/svg" xmlns:xlink="http://www.w3.org/1999/xlink">
    <!-- Generator: Sketch 53.1 (72631) - https://sketchapp.com -->
    <title>To evaluate</title>
    <desc>Created with Sketch.</desc>
    <defs>
        <polygon id="path-1" points="0.00438623751 0.0468292683 55.8942633 0.0468292683 55.8942633 47.9999268 0.00438623751 47.9999268"></polygon>
    </defs>
    <g id="Page-1" stroke="none" stroke-width="1" fill="none" fill-rule="evenodd">
        <g id="Group-35" transform="translate(3.000000, 6.000000)">
            <g id="fanganzhizuo_huaban-copy-3" transform="translate(6.000000, 6.000000)" fill="#29AB91" opacity="0.200000003">
                <g id="Group-3">
                    <path d="M53,18.2343799 L53,3.7968121 C53,1.73419451 51.2965657,0.0468292683 49.2143055,0.0468292683 L3.78569448,0.0468292683 C1.70343428,0.0468292683 0,1.73419451 0,3.7968121 L0,41.2968464 C0,43.359464 1.70343428,45.0468293 3.78569448,45.0468293 L49.2143055,45.0468293 C51.2965657,45.0468293 53,43.359464 53,41.2968464 L53,32.4844245 C53,31.3592855 53,19.359313 53,18.2343799 Z" id="Fill-1"></path>
                </g>
            </g>
            <g id="fanganzhizuo_huaban-copy">
                <g id="Group-3">
                    <mask id="mask-2" fill="white">
                        <use xlink:href="#path-1"></use>
                    </mask>
                    <g id="Clip-2"></g>
                    <path d="M53.8981597,21.4258537 C55.0958218,21.4258537 55.8942633,20.6266829 55.8942633,19.4279268 L55.8942633,4.04290244 C55.8942633,1.84492683 54.0978066,0.0468292683 51.9018368,0.0468292683 L3.99242649,0.0468292683 C1.79645668,0.0468292683 0,1.84492683 0,4.04290244 L0,44.0038537 C0,46.2018293 1.79645668,47.9999268 3.99242649,47.9999268 L51.9018368,47.9999268 C54.0978066,47.9999268 55.8942633,46.2018293 55.8942633,44.0038537 L55.8942633,34.613122 C55.8942633,33.4141463 55.0958218,32.6149756 53.8981597,32.6149756 C52.7002782,32.6149756 51.9018368,33.4141463 51.9018368,34.613122 L51.9018368,44.0038537 L3.99242649,44.0038537 L3.99242649,4.04290244 L51.9018368,4.04290244 L51.9018368,19.4279268 C51.9018368,20.6266829 52.7002782,21.4258537 53.8981597,21.4258537 Z" id="Fill-1" fill="#29AB91" mask="url(#mask-2)"></path>
                </g>
                <path d="M23.8655799,14.0017384 C23.8655799,12.8006074 23.0685747,12 21.873067,12 L9.91726009,12 C8.72146048,12 7.9245283,12.8006074 7.9245283,14.0017384 C7.9245283,15.2026495 8.72146048,16.0032569 9.91726009,16.0032569 L21.873067,16.0032569 C23.0685747,16.0032569 23.8655799,15.2026495 23.8655799,14.0017384 Z M17.8878224,20.0065139 L9.91726009,20.0065139 C8.72146048,20.0065139 7.9245283,20.8071213 7.9245283,22.0083256 C7.9245283,23.2092367 8.72146048,24.0098441 9.91726009,24.0098441 L17.8878224,24.0098441 C19.0833301,24.0098441 19.8802623,23.2092367 19.8802623,22.0083256 C19.8802623,20.8071213 19.0833301,20.0065139 17.8878224,20.0065139 Z M17.8878224,28.0131011 L9.91726009,28.0131011 C8.72146048,28.0131011 7.9245283,28.8137085 7.9245283,30.0149128 C7.9245283,31.2157506 8.72146048,32.016358 9.91726009,32.016358 L17.8878224,32.016358 C19.0833301,32.016358 19.8802623,31.2157506 19.8802623,30.0149128 C19.8802623,28.8137085 19.0833301,28.0131011 17.8878224,28.0131011 Z M23.4670773,39.6226415 L24.0647947,39.6226415 L31.039064,37.8213115 C31.4375666,37.8213115 31.6368544,37.621123 31.8360692,37.2205261 L47.1794034,21.8082104 C47.9764085,21.0073098 48.3749111,20.0065139 48.1756233,19.0057913 C48.1756233,18.0050687 47.7771208,17.0039796 46.9801886,16.2034454 L44.1903787,13.4010263 C42.7956562,11.7998115 40.0058463,11.7998115 38.6111237,13.2009111 L23.2677895,28.61352 C22.869287,28.8137085 22.6700722,29.2140122 22.6700722,29.6143159 L20.8765552,36.6201072 C20.6772674,37.4207146 20.8765552,38.4217304 21.4742726,39.0221493 C22.2715696,39.422453 22.869287,39.6226415 23.4670773,39.6226415 Z" id="Fill-4" fill="#29AB91"></path>
                <polygon id="Path" fill="#F9F9F9" points="26.456102 32.4166617 28.4485419 34.4184735 25.8583117 35.2190809"></polygon>
                <polygon id="Path" fill="#F9F9F9" points="41.6001485 16.2034454 44.5888813 19.0057913 31.6368544 32.016358 28.8470445 29.2140122 32.2345718 25.8114674"></polygon>
            </g>
        </g>
    </g>
</svg>