<svg width="30" height="30" viewBox="0 0 30 30" fill="none" xmlns="http://www.w3.org/2000/svg">
<path d="M4.92754 3C4.46377 3 4 3.45 4 3.9V26.1C4 26.55 4.46377 27 4.92754 27H24.4058C24.8696 27 25.3333 26.55 25.3333 26.1V8.25L19.9227 3H4.92754Z" fill="#20B648"/>
<path d="M9.41982 10.7451H11.7555L14.4808 13.9724L17.2061 10.7451H19.5417L15.649 15.0476L19.7369 19.8111H17.4012L14.4808 16.2768L11.5604 19.8111H9.22534L13.3133 15.0476L9.41982 10.7451Z" fill="white"/>
<path d="M19.7461 3V7.42576C19.7461 7.88678 20.2044 8.37853 20.6934 8.37853H25.0935L19.7461 3Z" fill="#D2F0DA"/>
</svg>
