<svg width="19" height="32" viewBox="0 0 19 32" fill="none" xmlns="http://www.w3.org/2000/svg">
<mask id="mask0" mask-type="alpha" maskUnits="userSpaceOnUse" x="0" y="0" width="19" height="32">
<path fill-rule="evenodd" clip-rule="evenodd" d="M0 0.0189819H18.3291V31.9609H0V0.0189819Z" fill="white"/>
</mask>
<g mask="url(#mask0)">
<path fill-rule="evenodd" clip-rule="evenodd" d="M15.3415 0.0189819H2.99096C2.22186 0.0189819 1.57377 0.289613 1.25686 0.743637C0.941748 1.19762 1.01115 1.75492 1.44557 2.23383L4.47047 5.58088C5.04017 6.2129 6.19206 6.67224 7.20522 6.67224H11.1273C12.1421 6.67224 13.2905 6.2129 13.862 5.5792L16.8886 2.23383C17.3213 1.75308 17.3907 1.19762 17.0756 0.743637C16.7587 0.287774 16.1106 0.0189819 15.3415 0.0189819ZM10.2995 8.40103H8.03483C6.87039 8.40103 5.74691 9.0384 5.42296 9.88406L0.108457 23.7302C-0.181734 24.4886 0.126334 25.4589 0.838471 26.0358L7.48285 31.4055C7.92084 31.758 8.5333 31.9609 9.16532 31.9609C9.7955 31.9609 10.4098 31.758 10.8459 31.4055L17.4904 26.0358C18.2043 25.4589 18.5105 24.4886 18.2203 23.7302L12.9095 9.88406C12.5854 9.0384 11.4638 8.40103 10.2995 8.40103Z" fill="#F2C50D"/>
</g>
</svg>
