<svg width="18" height="18" viewBox="0 0 18 18" fill="none" xmlns="http://www.w3.org/2000/svg">
<g opacity="0.01">
<rect x="1" y="1" width="16" height="16" fill="white"/>
<rect x="2.82783" y="2.82734" width="12.3444" height="12.3444" stroke="#50E3C2" stroke-width="0.1"/>
<rect x="1.93892" y="1.93867" width="14.1222" height="14.1222" rx="7.06111" stroke="#50E3C2" stroke-width="0.1"/>
<rect x="3.71675" y="1.93867" width="10.5667" height="14.1222" stroke="#50E3C2" stroke-width="0.1"/>
<rect x="1.93892" y="3.71699" width="14.1222" height="10.5667" stroke="#50E3C2" stroke-width="0.1"/>
<path d="M8.99997 1V17" stroke="#50E3C2" stroke-width="0.1"/>
<path d="M1 9.00022H17" stroke="#50E3C2" stroke-width="0.1"/>
<rect x="4.60566" y="4.60566" width="8.78889" height="8.78889" stroke="#50E3C2" stroke-width="0.1"/>
<path d="M1 1L17 17" stroke="#50E3C2" stroke-width="0.1"/>
<path d="M1 17L17 1" stroke="#50E3C2" stroke-width="0.1"/>
</g>
<mask id="path-11-inside-1" fill="white">
<path d="M5.66669 13.4446H2.55558C2.18739 13.4446 1.88892 13.1461 1.88892 12.7779V5.22233C1.88892 4.85414 2.18739 4.55566 2.55558 4.55566H5.66669"/>
</mask>
<path d="M5.66669 12.4446H2.55558V14.4446H5.66669V12.4446ZM2.55558 12.4446C2.73968 12.4446 2.88892 12.5938 2.88892 12.7779H0.888916C0.888916 13.6984 1.63511 14.4446 2.55558 14.4446V12.4446ZM2.88892 12.7779V5.22233H0.888916V12.7779H2.88892ZM2.88892 5.22233C2.88892 5.40643 2.73968 5.55566 2.55558 5.55566V3.55566C1.63511 3.55566 0.888916 4.30186 0.888916 5.22233H2.88892ZM2.55558 5.55566H5.66669V3.55566H2.55558V5.55566Z" fill="#ED6A0C" mask="url(#path-11-inside-1)"/>
<path d="M9.17552 3.42763L5.66675 5.44412V4.55523L9.2223 2.33301C9.71322 2.33301 10.1112 2.61283 10.1112 2.95801V15.0413C10.1112 15.3865 9.71322 15.6663 9.2223 15.6663L5.66675 13.4441V12.5552L9.17552 14.5717V3.42763Z" fill="#ED6A0C"/>
<path fill-rule="evenodd" clip-rule="evenodd" d="M13.3997 4.60022C14.5257 5.72622 15.2221 7.28178 15.2221 8.99999C15.2221 10.7182 14.5257 12.2738 13.3997 13.3998L14.0282 14.0283C15.3151 12.7415 16.111 10.9637 16.111 8.99999C16.111 7.03632 15.3151 5.25854 14.0282 3.97168L13.3997 4.60022Z" fill="#ED6A0C"/>
<path fill-rule="evenodd" clip-rule="evenodd" d="M11.5142 6.48596C12.1576 7.12939 12.5556 8.01828 12.5556 9.00012C12.5556 9.98196 12.1576 10.8708 11.5142 11.5143L12.1427 12.1428C12.947 11.3385 13.4444 10.2274 13.4444 9.00012C13.4444 7.77282 12.947 6.66171 12.1427 5.85742L11.5142 6.48596Z" fill="#ED6A0C"/>
</svg>
