<svg width="14" height="20" viewBox="0 0 14 20" fill="none" xmlns="http://www.w3.org/2000/svg">
<path opacity="0.8" d="M5.17582 12.7411H8.27182C7.91182 9.40506 13.1438 8.99706 13.1438 5.46906C13.1438 2.27706 10.5998 0.669056 7.11982 0.669056C4.55182 0.669056 2.43982 1.82106 0.927823 3.59706L2.89582 5.42106C4.07182 4.17306 5.24782 3.52506 6.73582 3.52506C8.60782 3.52506 9.75982 4.34106 9.75982 5.78106C9.75982 8.10906 4.67182 8.97306 5.17582 12.7411ZM6.73582 19.1251C7.95982 19.1251 8.84782 18.2611 8.84782 17.0131C8.84782 15.7411 7.95982 14.8771 6.73582 14.8771C5.53582 14.8771 4.62382 15.7411 4.62382 17.0131C4.62382 18.2611 5.51182 19.1251 6.73582 19.1251Z" fill="white"/>
</svg>