<svg width="30" height="30" viewBox="0 0 30 30" fill="none" xmlns="http://www.w3.org/2000/svg">
<path d="M4.91304 3C4.45652 3 4 3.45 4 3.9V26.1C4 26.55 4.45652 27 4.91304 27H24.087C24.5435 27 25 26.55 25 26.1V8.33749L19.75 3H4.91304Z" fill="#63C341"/>
<path d="M19.75 3V7.42232C19.75 7.88298 20.1961 8.33333 20.6774 8.33333H25L19.75 3Z" fill="white" fill-opacity="0.6"/>
<path d="M17.6931 12.7777L20.625 18.9999H8.375C9.86086 17.5612 12.9945 14.4834 12.9945 14.4834L14.2385 16.9031L17.6931 12.7777H17.6931ZM10.3443 14.111C9.7398 14.111 9.25 13.5146 9.25 12.778C9.25 12.0417 9.7398 11.4443 10.3443 11.4443C10.9474 11.4443 11.4375 12.0421 11.4375 12.778C11.4378 13.5146 10.9477 14.111 10.3443 14.111Z" fill="white"/>
</svg>
