<svg width="221" height="158" viewBox="0 0 221 158" fill="none" xmlns="http://www.w3.org/2000/svg">
<path opacity="0.1" fill-rule="evenodd" clip-rule="evenodd" d="M217.514 106.222C212.409 116.784 202.044 123.847 191.303 128.505C176.842 134.777 160.918 137.265 145.212 136.213C142.46 136.029 139.716 135.736 136.98 135.332C127.479 133.942 118.216 131.236 109.456 127.292C106.927 126.15 104.45 124.904 102.024 123.552C97.9728 121.299 94.0907 118.753 90.4091 115.933C89.4831 115.223 88.5699 114.496 87.6695 113.751C87.0452 113.235 86.4265 112.707 85.7983 112.194C84.4727 111.113 83.1087 110.086 81.5871 109.317C81.128 109.085 80.6574 108.876 80.177 108.693C75.3587 106.854 69.8027 107.548 64.7865 108.982C60.9711 110.072 57.2517 111.566 53.4401 112.632C51.7447 113.12 50.0171 113.488 48.2702 113.734C44.37 114.229 40.4093 113.88 36.6549 112.711L36.334 112.61C35.7961 112.441 35.2627 112.255 34.7337 112.053L34.4129 111.93C33.9006 111.732 33.3991 111.52 32.9086 111.292L32.5878 111.146C32.0754 110.907 31.574 110.654 31.0835 110.388C30.9067 110.296 30.7319 110.196 30.559 110.101C27.7681 108.538 25.2311 106.556 23.0357 104.226C22.9723 104.162 22.9128 104.097 22.8436 104.033C22.5381 103.702 22.2384 103.364 21.9483 103.019C21.8407 102.892 21.7332 102.765 21.6275 102.634C21.283 102.213 20.9506 101.782 20.6304 101.341C20.5824 101.277 20.5363 101.212 20.4902 101.148C19.1783 99.3278 18.0907 97.355 17.2511 95.2727C17.2242 95.2091 17.1992 95.1435 17.1762 95.08C16.92 94.4183 16.6863 93.7458 16.4749 93.0623C16.3885 92.7771 16.3059 92.4842 16.2329 92.199C16.2079 92.1142 16.1848 92.0275 16.1637 91.9427C15.1032 87.7552 14.9822 83.402 14.9822 79.0739C14.9822 78.569 14.9822 78.0648 14.9822 77.5612C15.0129 70.5602 15.1205 63.4398 16.1502 56.5351C16.1502 56.487 16.1637 56.4388 16.1714 56.3925C16.516 54.0681 16.9848 51.7639 17.5758 49.4899C18.1942 47.1038 18.9846 44.7659 19.9407 42.4947C22.3095 36.9062 25.7542 31.8208 29.5792 27.1072C39.2139 15.2462 51.8494 5.28916 66.6385 1.56225C82.5746 -2.45179 100.286 1.3946 113.14 11.66C117.06 14.7895 120.581 18.4952 124.982 20.8944C128.825 22.9833 133.322 23.8486 137.437 22.2048C140.838 20.8462 143.051 20.1717 146.87 20.3779C154.777 20.8266 162.572 22.4643 169.993 25.236C170.293 25.3459 170.593 25.4596 170.891 25.5733C190.239 32.9982 206.87 47.7497 215.516 66.7061C215.745 67.2071 215.967 67.712 216.182 68.2208C221.337 80.2976 223.2 94.4517 217.514 106.222Z" fill="#29AB91"/>
<path opacity="0.1" fill-rule="evenodd" clip-rule="evenodd" d="M24.0272 143.177C33.394 143.177 40.9873 141.954 40.9873 140.444C40.9873 138.935 33.394 137.712 24.0272 137.712C14.6604 137.712 7.06714 138.935 7.06714 140.444C7.06714 141.954 14.6604 143.177 24.0272 143.177Z" fill="#6C63FF"/>
<path opacity="0.1" fill-rule="evenodd" clip-rule="evenodd" d="M176.176 158C192.784 158 206.248 156.688 206.248 155.071C206.248 153.453 192.784 152.142 176.176 152.142C159.568 152.142 146.104 153.453 146.104 155.071C146.104 156.688 159.568 158 176.176 158Z" fill="#6C63FF"/>
<rect x="23.2278" y="20.7632" width="182.574" height="103.739" rx="6.245" fill="url(#paint0_linear)"/>
<rect x="23.5178" y="22.2222" width="182.015" height="101.935" rx="6.245" fill="white"/>
<rect x="23.5178" y="22.2222" width="182.015" height="101.935" rx="6.245" fill="white"/>
<rect opacity="0.04" x="23.5178" y="22.2222" width="182.015" height="101.935" rx="6.245" fill="white"/>
<path fill-rule="evenodd" clip-rule="evenodd" d="M204.609 21.0522H24.4419C23.9315 21.0522 23.5178 21.4672 23.5178 21.9792V25.8968H205.525V21.9792C205.525 21.4702 205.116 21.0565 204.609 21.0522Z" fill="#5A5773"/>
<path fill-rule="evenodd" clip-rule="evenodd" d="M27.1528 24.7273C27.8425 24.7273 28.4016 24.1665 28.4016 23.4747C28.4016 22.783 27.8425 22.2222 27.1528 22.2222C26.4631 22.2222 25.9041 22.783 25.9041 23.4747C25.9041 24.1665 26.4631 24.7273 27.1528 24.7273Z" fill="white"/>
<path fill-rule="evenodd" clip-rule="evenodd" d="M30.5149 24.7273C31.2045 24.7273 31.7636 24.1665 31.7636 23.4747C31.7636 22.783 31.2045 22.2222 30.5149 22.2222C29.8252 22.2222 29.2661 22.783 29.2661 23.4747C29.2661 24.1665 29.8252 24.7273 30.5149 24.7273Z" fill="white"/>
<path fill-rule="evenodd" clip-rule="evenodd" d="M33.8774 24.7273C34.5671 24.7273 35.1262 24.1665 35.1262 23.4747C35.1262 22.783 34.5671 22.2222 33.8774 22.2222C33.1878 22.2222 32.6287 22.783 32.6287 23.4747C32.6287 24.1665 33.1878 24.7273 33.8774 24.7273Z" fill="white"/>
<rect opacity="0.2" x="38.5088" y="35.0083" width="48.8457" height="4.15857" fill="#6C63FF"/>
<rect opacity="0.1" x="38.5088" y="51.6831" width="152.033" height="63.9703" fill="#5A5773"/>
<path opacity="0.1" fill-rule="evenodd" clip-rule="evenodd" d="M127.526 55.8549H124.923V50.7829C124.923 45.0595 120.374 40.3017 114.668 40.2149C111.889 40.1856 109.213 41.2702 107.235 43.228C105.256 45.1857 104.139 47.8546 104.13 50.6422V55.8549H101.533C99.1431 55.8623 97.2078 57.8035 97.2004 60.2003V81.0549C97.2078 83.4517 99.1431 85.3929 101.533 85.4004H127.526C129.915 85.3929 131.85 83.4514 131.856 81.0549V60.2003C131.85 57.8038 129.915 55.8623 127.526 55.8549ZM116.047 69.4116V76.8808C116.052 77.7015 115.422 78.3857 114.606 78.4456C114.191 78.4651 113.787 78.3134 113.486 78.0258C113.186 77.7382 113.015 77.3398 113.015 76.9232V69.4077C111.568 68.6998 110.8 67.0836 111.162 65.5098C111.524 63.9361 112.921 62.8213 114.531 62.8213C116.141 62.8213 117.538 63.9361 117.901 65.5098C118.263 67.0836 117.494 68.6998 116.047 69.4077V69.4116ZM107.162 55.8548H121.895L121.889 50.6422C121.889 46.5628 118.592 43.2558 114.525 43.2558C110.459 43.2558 107.162 46.5628 107.162 50.6422V55.8548Z" fill="black"/>
<path fill-rule="evenodd" clip-rule="evenodd" d="M127.526 55.4696H124.923V50.3976C124.923 44.6743 120.374 39.9164 114.668 39.8297C111.889 39.8004 109.213 40.885 107.235 42.8427C105.256 44.8004 104.139 47.4693 104.13 50.2569V55.4696H101.533C99.1431 55.477 97.2078 57.4182 97.2004 59.8151V80.6696C97.2078 83.0665 99.1431 85.0077 101.533 85.0151H127.526C129.915 85.0077 131.85 83.0662 131.856 80.6696V59.8151C131.85 57.4185 129.915 55.477 127.526 55.4696ZM116.047 69.0264V76.4956C116.052 77.3163 115.422 78.0005 114.606 78.0604C114.191 78.0799 113.787 77.9282 113.486 77.6406C113.186 77.353 113.015 76.9546 113.015 76.538V69.0225C111.568 68.3146 110.8 66.6983 111.162 65.1246C111.524 63.5509 112.921 62.4361 114.531 62.4361C116.141 62.4361 117.538 63.5509 117.901 65.1246C118.263 66.6983 117.494 68.3146 116.047 69.0225V69.0264ZM107.162 55.4696H121.895L121.889 50.2569C121.889 46.1776 118.592 42.8706 114.525 42.8706C110.459 42.8706 107.162 46.1776 107.162 50.2569V55.4696Z" fill="#29AB91"/>
<rect opacity="0.1" x="175.154" y="45.5259" width="15.3885" height="3.64405" fill="#5A5773"/>
<path fill-rule="evenodd" clip-rule="evenodd" d="M195.265 154.487C195.505 154.949 195.678 155.443 195.78 155.954C195.811 156.129 195.792 156.311 195.724 156.476C195.485 156.967 193.938 156.758 193.268 156.668C193.168 156.654 193.088 156.643 193.034 156.638C192.621 156.595 189.707 155.142 189.665 154.799C189.622 154.456 188.614 153.749 188.329 153.749C188.045 153.749 186.669 152.658 186.548 152.496C186.518 152.416 186.503 152.33 186.506 152.244C186.481 151.859 186.5 151.121 186.52 150.569C186.416 150.528 186.317 150.477 186.224 150.415C184.889 149.531 183.959 144.441 183.959 144.441C183.959 144.441 184.162 138.462 183.959 138.18C183.755 137.899 183.029 136.566 183.271 136.282C183.513 135.999 183.06 134.507 182.745 133.86C182.429 133.213 182.552 131.355 182.552 131.355L181.742 126.425L180.487 120.569L179.436 116.651C179.436 116.651 178.357 113.46 177.972 112.127C177.588 110.793 177.204 112.005 177.204 112.005C177.165 113.298 174.17 119.116 174.17 119.116C174.17 119.116 173.725 122.629 173.239 123.882C172.753 125.134 172.228 129.497 172.228 129.497C172.228 129.497 171.456 138.381 170.81 139.876C170.165 141.372 169.719 143.594 169.719 143.594C169.719 143.594 169.878 146.663 169.475 146.906C169.072 147.149 169.152 149.007 169.152 149.007C169.152 149.007 169.396 150.783 168.464 151.067C167.854 151.254 167.717 151.591 167.696 151.783L167.875 152.458L168.005 152.945C168.005 152.945 167.175 153.975 166.063 154.055C165.456 154.059 164.958 154.538 164.93 155.146C164.93 155.146 165.122 155.772 162.432 156.642C160.812 157.164 159.794 156.998 159.201 156.642C158.882 156.467 158.642 156.178 158.528 155.832C158.375 155.289 160.895 151.714 161.69 150.606C161.68 150.585 161.671 150.563 161.664 150.541C160.944 148.627 161.677 147.896 161.954 147.62C162.004 147.571 162.039 147.536 162.048 147.511C162.061 147.475 162.105 147.433 162.157 147.381C162.338 147.204 162.627 146.921 162.19 146.421C161.625 145.775 162.918 143.998 162.918 143.998C162.918 143.998 163.12 141.493 163.485 141.412C163.85 141.331 163.729 137.697 163.729 137.697L164.132 133.899C164.132 133.899 164.659 125.41 164.538 125.094C164.417 124.778 164.499 123.165 164.903 122.396C165.306 121.627 165.631 114.559 165.631 114.559C165.631 114.559 165.55 111.086 165.873 110.439C166.057 110.073 166.149 108.673 166.196 107.517C166.207 107.396 166.207 107.278 166.207 107.163C165.582 106.711 165.186 106.006 165.124 105.236L166.178 95.3537L165.846 95.0531C163.554 92.9642 160.294 89.9753 160.334 89.8963C160.394 89.7749 160.91 82.6564 160.97 80.8681C161.024 79.5972 161.302 78.3459 161.79 77.172C161.906 76.9408 162.232 75.4608 162.382 74.7709L162.453 74.4337L162.451 74.4255C162.42 74.3002 162.053 72.8386 162.797 72.7996C163.567 72.7591 163.727 72.0307 163.627 71.0421C163.527 70.0535 164.215 68.2363 165.043 68.2363C165.537 68.2373 166.018 68.0814 166.418 67.7912C166.418 67.7912 169.072 66.8643 169.819 66.7217C170.566 66.5791 172.731 65.3265 172.731 65.3265C173.546 63.6436 174.144 64.4673 174.166 64.4989C174.162 64.5101 174.16 64.5231 174.16 64.5342H174.166V64.4994L174.167 64.4998C174.183 63.7219 174.13 62.944 174.007 62.1758C174.005 62.1568 174.001 62.1381 173.997 62.1196L173.997 62.1196C173.992 62.0911 173.986 62.0631 173.986 62.0351C172.972 61.1936 172.283 60.0233 172.038 58.7263C172.022 58.6415 172.009 58.5548 171.996 58.4681C171.926 58.4407 171.855 58.4182 171.782 58.4007C171.576 58.3517 171.413 58.4251 171.252 58.4975C171.096 58.5677 170.942 58.637 170.753 58.5934C170.379 58.4778 170.068 58.2158 169.89 57.8669C169.761 57.6167 169.696 57.3389 169.698 57.0575C169.693 56.9754 169.693 56.893 169.698 56.8109V56.8417C169.717 56.6609 169.759 56.4833 169.825 56.3137C169.895 56.1296 169.991 55.9563 170.088 55.7826C170.182 55.6128 170.277 55.4426 170.347 55.2615C170.537 54.762 170.541 54.2106 170.359 53.7083C170.335 53.6448 170.309 53.5813 170.282 53.5176C170.199 53.3165 170.115 53.1135 170.115 52.9028C170.111 52.8598 170.111 52.8166 170.115 52.7737C170.119 52.7405 170.125 52.7077 170.134 52.6754V52.7062C170.25 52.3126 170.686 52.0703 171.063 51.8605L171.095 51.8429C171.719 51.4999 172.322 51.0066 172.487 50.3167C172.53 50.1381 172.54 49.9547 172.55 49.7714V49.7714C172.563 49.5532 172.575 49.3352 172.641 49.1258C172.868 48.4147 173.68 48.0293 174.432 48.0293C175.132 48.0293 175.796 48.2923 176.449 48.5512L176.591 48.6074C177.29 48.883 178.042 49.1239 178.779 48.9928C179.025 48.9499 179.261 48.8663 179.496 48.7829C179.779 48.6828 180.061 48.5829 180.358 48.5535C181.071 48.4895 181.758 48.8311 182.139 49.438C182.299 49.6989 182.4 50.0043 182.5 50.3062L182.5 50.3062C182.673 50.8293 182.842 51.3421 183.307 51.5963C183.447 51.675 183.606 51.7182 183.765 51.7615C183.89 51.7956 184.016 51.8297 184.134 51.8815C184.447 52.0369 184.718 52.2656 184.925 52.5482C185.106 52.7414 185.238 52.9754 185.309 53.2304V53.2073C185.318 53.2583 185.322 53.3098 185.323 53.3614C185.349 53.7138 185.19 54.0477 185.028 54.3858C184.891 54.6744 184.752 54.9661 184.725 55.275C184.69 55.6948 184.864 56.0831 185.038 56.4747C185.16 56.7483 185.283 57.0234 185.336 57.3119V57.2926C185.337 57.3112 185.337 57.3299 185.336 57.3485C185.341 57.4011 185.341 57.454 185.336 57.5065C185.354 57.6599 185.308 57.8138 185.209 57.9324C185.108 58.0367 184.965 58.075 184.823 58.1129C184.758 58.1304 184.693 58.1477 184.633 58.1713C184.436 58.2461 184.267 58.388 184.1 58.528C183.867 58.7234 183.638 58.9152 183.344 58.9152C183.283 58.9131 183.223 58.902 183.165 58.8824C183.159 58.9082 183.153 58.9343 183.147 58.9604L183.147 58.9606L183.147 58.961L183.147 58.9612C183.137 59.0089 183.126 59.0569 183.113 59.104C182.771 60.4063 181.979 61.5442 180.877 62.3145L180.894 62.4224C181.013 63.0134 181.196 63.5893 181.442 64.1394C182.022 63.6172 182.856 65.1588 182.856 65.1588C183.87 65.4992 184.831 65.9819 185.711 66.5925C187.198 67.612 189.695 67.9858 189.695 67.9858C192.532 68.3902 192.443 69.2346 192.323 70.3636L192.323 70.3645C192.318 70.4189 192.312 70.4739 192.306 70.5295C192.185 71.7416 193.58 74.4087 193.58 74.4087C193.58 74.4087 193.605 74.5224 193.643 74.7035C193.785 75.3645 194.129 76.9273 194.248 77.1643C194.737 78.3381 195.014 79.5895 195.067 80.8604C195.128 82.6487 195.657 89.7942 195.705 89.8886C195.753 89.9831 190.994 94.3189 188.931 96.192L188.694 96.4059L188.967 106.824C188.967 106.824 188.877 106.876 188.708 106.958L188.733 107.311L190.101 126.152L190.869 133.261C190.869 133.261 191.194 136.614 191.234 137.219C191.275 137.824 191.678 141.784 191.678 141.784C191.678 141.784 192.529 143.68 192.003 144.328C191.476 144.975 191.678 145.501 191.678 145.501C191.678 145.501 193.336 147.596 192.973 148.448C192.61 149.3 192.973 151.034 192.973 151.034H192.959L195.265 154.487ZM174.166 64.4994V64.4977L174.166 64.4989L174.166 64.4994ZM188.827 83.3443L188.619 83.1651L188.372 82.957L188.523 89.1968H189.009C189.009 89.1968 189.555 88.4048 189.374 88.0406C189.247 87.701 189.175 87.3432 189.161 86.9807C189.161 86.9807 189.344 86.0095 189.192 85.5103C189.04 85.0112 188.827 83.3443 188.827 83.3443ZM166.672 88.0405C166.617 88.2098 166.628 88.3936 166.703 88.5551C166.782 88.7586 166.884 88.9531 167.004 89.1351C167.112 88.2872 167.175 87.6571 167.129 87.6359C166.987 87.5742 167.575 85.9998 167.736 85.8398C167.823 85.7589 167.769 84.1402 167.702 82.6756C167.679 82.8471 167.679 82.9512 167.679 82.9512L167.358 83.2306L167.22 83.3482C167.22 83.3482 167.001 85.0401 166.856 85.5142C166.712 85.9882 166.868 86.8824 166.885 86.9749C166.886 86.9781 166.886 86.9813 166.885 86.9845C166.871 87.2442 166.834 87.5022 166.774 87.7553C166.749 87.8535 166.715 87.9491 166.672 88.0405Z" fill="url(#paint1_linear)"/>
<path fill-rule="evenodd" clip-rule="evenodd" d="M182.187 66.0741V68.4713L177.284 70.9437C177.284 70.9437 172.416 67.9895 173.617 66.814C174.385 66.0702 174.237 64.0275 174.03 62.6227V62.6227C173.909 61.8056 173.769 61.2063 173.769 61.2063C173.769 61.2063 182.514 58.7012 181.192 60.6032C180.75 61.2391 180.715 62.0619 180.863 62.8771C181.163 64.4939 182.187 66.0741 182.187 66.0741Z" fill="#EFB7B9"/>
<path fill-rule="evenodd" clip-rule="evenodd" d="M168.756 89.5163L168.124 97.3247C168.124 97.3247 167.177 96.4633 165.951 95.3418C163.679 93.2625 160.451 90.2891 160.49 90.21C160.549 90.0886 161.066 83.0048 161.122 81.2242C161.174 79.9603 161.449 78.7156 161.932 77.5474C162.048 77.3162 162.372 75.8439 162.509 75.1559C162.555 74.942 162.584 74.8033 162.584 74.8033L163.644 74.3755C163.644 74.3755 168.063 79.3203 168.063 79.4109C168.063 79.5014 167.761 83.2996 167.761 83.2996L167.448 83.5733L167.312 83.6908C167.312 83.6908 167.1 85.35 166.95 85.8472C166.801 86.3444 166.962 87.2077 166.979 87.3002V87.3002C166.965 87.5598 166.929 87.8178 166.87 88.071C166.845 88.1684 166.811 88.2633 166.768 88.3543C166.714 88.523 166.725 88.7059 166.799 88.8669C166.884 89.0903 166.995 89.3031 167.129 89.5009L168.756 89.5163Z" fill="#3F3D56"/>
<path fill-rule="evenodd" clip-rule="evenodd" d="M195.535 90.2101C195.582 90.3045 190.869 94.6192 188.827 96.4827L187.901 97.3248L187.274 89.5164H188.898C188.898 89.5164 189.44 88.7321 189.259 88.3698C189.133 88.032 189.062 87.6761 189.05 87.3157C189.05 87.3157 189.228 86.3522 189.078 85.8531C188.929 85.354 188.717 83.6967 188.717 83.6967L188.512 83.5194L188.268 83.3055C188.268 83.3055 187.966 79.5073 187.966 79.4167C187.966 79.3262 192.385 74.3813 192.385 74.3813L193.438 74.8034C193.438 74.8034 193.461 74.9171 193.499 75.0982C193.641 75.7553 193.981 77.3105 194.098 77.5475C194.582 78.7157 194.857 79.9604 194.909 81.2243C194.959 83.0049 195.474 90.0887 195.535 90.2101Z" fill="#3F3D56"/>
<path fill-rule="evenodd" clip-rule="evenodd" d="M195.555 156.489C195.272 157.052 193.29 156.682 192.881 156.651C192.471 156.62 189.582 155.161 189.542 154.82C189.501 154.479 188.5 153.776 188.22 153.776C187.939 153.776 186.577 152.689 186.456 152.529C186.426 152.449 186.412 152.364 186.416 152.279C186.374 151.618 186.456 149.916 186.456 149.916L192.268 150.238L195.092 154.499C195.33 154.958 195.502 155.449 195.603 155.957C195.637 156.136 195.62 156.32 195.555 156.489V156.489Z" fill="#3F3D56"/>
<path opacity="0.1" fill-rule="evenodd" clip-rule="evenodd" d="M195.555 156.489C195.272 157.052 193.29 156.682 192.881 156.651C192.471 156.62 189.582 155.161 189.542 154.82C189.501 154.479 188.5 153.776 188.22 153.776C187.939 153.776 186.577 152.689 186.456 152.529C186.426 152.449 186.412 152.364 186.416 152.279C186.374 151.618 186.456 149.916 186.456 149.916L192.268 150.238L195.092 154.499C195.33 154.958 195.502 155.449 195.603 155.957C195.637 156.136 195.62 156.32 195.555 156.489V156.489Z" fill="black"/>
<path opacity="0.1" fill-rule="evenodd" clip-rule="evenodd" d="M195.555 156.489C195.272 157.052 193.29 156.682 192.88 156.651C192.471 156.62 189.582 155.161 189.541 154.82C189.501 154.479 188.5 153.776 188.22 153.776C187.939 153.776 186.577 152.689 186.456 152.529C186.425 152.449 186.412 152.364 186.416 152.278L188.298 153.473C188.298 153.473 189.501 154.244 189.822 154.701C190.143 155.157 192.671 156.107 192.88 156.127C193.036 156.142 194.696 155.822 195.603 155.957C195.637 156.135 195.62 156.32 195.555 156.489V156.489Z" fill="black"/>
<path fill-rule="evenodd" clip-rule="evenodd" d="M168.082 152.972C168.082 152.972 167.259 153.997 166.161 154.076C165.558 154.081 165.065 154.558 165.039 155.161C165.039 155.161 165.231 155.786 162.574 156.651C160.97 157.169 159.961 157.006 159.373 156.651C159.058 156.476 158.819 156.189 158.706 155.845C158.526 155.204 162.072 150.319 162.072 150.319L165.3 150.126L167.605 151.17L167.959 152.494L168.082 152.972Z" fill="#3F3D56"/>
<path opacity="0.1" fill-rule="evenodd" clip-rule="evenodd" d="M168.082 152.972C168.082 152.972 167.259 153.997 166.161 154.076C165.558 154.081 165.065 154.558 165.039 155.161C165.039 155.161 165.231 155.786 162.574 156.651C160.97 157.169 159.961 157.006 159.373 156.651C159.058 156.476 158.819 156.189 158.706 155.845C158.526 155.204 162.072 150.319 162.072 150.319L165.3 150.126L167.605 151.17L167.959 152.494L168.082 152.972Z" fill="black"/>
<path opacity="0.1" fill-rule="evenodd" clip-rule="evenodd" d="M168.082 152.972C168.082 152.972 167.259 153.998 166.161 154.077C165.558 154.081 165.065 154.558 165.039 155.162C165.039 155.162 165.231 155.786 162.574 156.651C160.97 157.17 159.961 157.006 159.373 156.651C160.885 156.493 164.226 155.535 164.56 155.204C164.962 154.801 165.463 153.695 165.803 153.676C166.039 153.66 167.24 152.936 167.961 152.487L168.082 152.972Z" fill="black"/>
<path fill-rule="evenodd" clip-rule="evenodd" d="M192.829 148.49C192.467 149.334 192.829 151.063 192.829 151.063C192.829 151.063 187.449 151.344 186.135 150.46C184.821 149.575 183.891 144.509 183.891 144.509C183.891 144.509 184.083 138.56 183.891 138.279C183.699 137.997 182.969 136.671 183.209 136.39C183.449 136.109 183.017 134.621 182.689 133.977C182.36 133.334 182.497 131.486 182.497 131.486L181.694 126.58L180.452 120.752L179.398 116.852C179.398 116.852 178.316 113.676 177.949 112.35C177.582 111.024 177.194 112.229 177.194 112.229C177.156 113.516 174.189 119.305 174.189 119.305C174.189 119.305 173.748 122.803 173.267 124.047C172.787 125.292 172.264 129.636 172.264 129.636C172.264 129.636 171.496 138.479 170.862 139.967C170.228 141.454 169.792 143.665 169.792 143.665C169.792 143.665 169.953 146.721 169.552 146.962C169.15 147.203 169.216 149.053 169.216 149.053C169.216 149.053 169.456 150.82 168.534 151.103C167.611 151.386 167.765 151.988 167.765 151.988C167.765 151.988 162.636 152.832 161.794 150.579C160.953 148.326 162.115 147.727 162.178 147.565C162.242 147.403 162.881 147.124 162.32 146.478C161.759 145.833 163.041 144.067 163.041 144.067C163.041 144.067 163.243 141.576 163.602 141.495C163.961 141.414 163.844 137.797 163.844 137.797L164.244 134.018C164.244 134.018 164.766 125.576 164.645 125.254C164.524 124.932 164.605 123.327 165.006 122.556C165.408 121.785 165.727 114.755 165.727 114.755C165.727 114.755 165.646 111.3 165.967 110.656C166.159 110.292 166.24 108.891 166.286 107.748C166.32 106.875 166.328 106.153 166.328 106.153L170.816 104.465L176.579 102.617L181.428 104.948L188.523 106.315L188.612 107.542L189.966 126.294L190.735 133.369C190.735 133.369 191.055 136.704 191.096 137.307C191.136 137.911 191.536 141.851 191.536 141.851C191.536 141.851 192.377 143.74 191.856 144.384C191.336 145.027 191.536 145.54 191.536 145.54C191.536 145.54 193.19 147.646 192.829 148.49Z" fill="#3F3D56"/>
<path opacity="0.1" fill-rule="evenodd" clip-rule="evenodd" d="M181.196 60.6032C180.754 61.2391 180.72 62.0619 180.868 62.8771C178.792 64.3457 175.994 64.2407 174.034 62.6208V62.6208C173.913 61.8037 173.773 61.2044 173.773 61.2044C173.773 61.2044 182.518 58.7031 181.196 60.6032Z" fill="black"/>
<path fill-rule="evenodd" clip-rule="evenodd" d="M183.24 58.1444C183.24 61.2627 180.72 63.7906 177.611 63.7906C174.502 63.7906 171.982 61.2627 171.982 58.1444C171.982 55.026 174.502 52.4981 177.611 52.4981C179.106 52.4909 180.542 53.0834 181.599 54.1439C182.656 55.2043 183.247 56.6447 183.24 58.1444V58.1444Z" fill="#EFB7B9"/>
<path opacity="0.1" fill-rule="evenodd" clip-rule="evenodd" d="M184.412 67.5269L182.568 100.47L172.549 98.3597L170.564 85.1536L172.53 67.4248L174.009 67.6156L176.618 67.949L179.202 68.1089L182.003 67.7967L184.412 67.5269V67.5269Z" fill="black"/>
<path fill-rule="evenodd" clip-rule="evenodd" d="M184.412 67.7677L182.568 100.711L172.549 98.6005L170.564 85.3944L172.53 67.6675L174.009 67.8563L176.618 68.1897L179.202 68.3497L182.003 68.0375L184.412 67.7677V67.7677Z" fill="#F2C50D"/>
<path fill-rule="evenodd" clip-rule="evenodd" d="M176.176 68.6523L179.784 68.7737L178.769 70.1978C178.769 70.1978 178.84 73.0749 179.323 73.8997C179.805 74.7245 179.663 87.4661 179.663 87.4661L178.702 89.2949L177.06 87.2445L177.081 70.4214L176.176 68.6523Z" fill="#3F3D56"/>
<path opacity="0.1" fill-rule="evenodd" clip-rule="evenodd" d="M176.176 68.6523L179.784 68.7737L178.769 70.1978C178.769 70.1978 178.84 73.0749 179.323 73.8997C179.805 74.7245 179.663 87.4661 179.663 87.4661L178.702 89.2949L177.06 87.2445L177.081 70.4214L176.176 68.6523Z" fill="black"/>
<path opacity="0.1" fill-rule="evenodd" clip-rule="evenodd" d="M181.826 64.9141L178.46 68.6525L180.383 70.6624L183.571 67.5464L181.826 64.9141V64.9141Z" fill="black"/>
<path fill-rule="evenodd" clip-rule="evenodd" d="M181.826 64.6733L178.46 68.4118L180.383 70.4217L183.571 67.3057L181.826 64.6733V64.6733Z" fill="#F2C50D"/>
<path opacity="0.1" fill-rule="evenodd" clip-rule="evenodd" d="M177.038 68.4713L173.63 65.0547L173.309 66.843L174.873 70.7626L177.038 68.4713V68.4713Z" fill="black"/>
<path fill-rule="evenodd" clip-rule="evenodd" d="M177.158 68.2306L173.751 64.814L173.431 66.6023L174.994 70.5219L177.158 68.2306V68.2306Z" fill="#F2C50D"/>
<path opacity="0.1" fill-rule="evenodd" clip-rule="evenodd" d="M188.629 107.548C186.993 108.33 185.241 108.838 183.442 109.053C180.135 109.475 177.972 105.255 177.972 105.255L176.71 106.903C176.308 108.652 170.197 109.094 167.713 108.431C167.198 108.303 166.713 108.073 166.288 107.754C166.322 106.881 166.33 106.159 166.33 106.159L170.818 104.471L176.581 102.623L181.43 104.954L188.525 106.321L188.629 107.548Z" fill="black"/>
<path opacity="0.1" fill-rule="evenodd" clip-rule="evenodd" d="M184.412 67.7696L182.57 100.711L172.549 98.6005L170.56 85.3963L172.524 67.6675L174.003 67.8602C173.965 68.506 173.893 69.1493 173.786 69.7872C173.546 70.9146 175.029 78.9137 175.029 78.9137C175.029 78.9137 177.847 87.8841 179.115 86.5911C180.383 85.298 182.189 78.4705 182.189 78.4705C183.413 75.9384 182.21 68.8353 182.12 68.6927C182.057 68.4826 182.018 68.266 182.005 68.0471L184.412 67.7696Z" fill="black"/>
<path opacity="0.1" fill-rule="evenodd" clip-rule="evenodd" d="M188.74 93.2609L188.825 96.4887L187.899 97.3308L187.274 89.5166H188.658L188.74 93.2609Z" fill="black"/>
<path opacity="0.1" fill-rule="evenodd" clip-rule="evenodd" d="M166.981 87.3062V87.3062C166.967 87.5656 166.93 87.8233 166.872 88.0764C166.872 88.0051 166.872 87.9647 166.856 87.9589C166.799 87.9435 166.868 87.6489 166.981 87.3062Z" fill="black"/>
<path opacity="0.1" fill-rule="evenodd" clip-rule="evenodd" d="M168.756 89.5168L168.124 97.3252C168.124 97.3252 167.177 96.4638 165.951 95.3423L166.097 93.9587C166.097 93.9587 166.614 90.5593 166.802 88.8828C166.888 89.1062 166.999 89.319 167.133 89.5168H168.756Z" fill="black"/>
<path fill-rule="evenodd" clip-rule="evenodd" d="M174.191 64.9332C174.191 64.9332 173.592 64.0486 172.77 65.756C172.77 65.756 170.626 67.0028 169.888 67.1435C169.15 67.2842 166.526 68.2091 166.526 68.2091C166.129 68.4965 165.653 68.651 165.164 68.6504C164.341 68.6504 163.659 70.4599 163.759 71.4446C163.859 72.4294 163.7 73.1539 162.939 73.1944C162.178 73.2349 162.597 74.8208 162.597 74.8208L167.667 80.6502C167.667 80.6502 167.988 86.017 167.828 86.1789C167.669 86.3407 167.087 87.9132 167.227 87.9672C167.367 88.0211 166.458 93.9564 166.458 93.9564L165.237 105.474C165.237 105.474 165.237 107.401 167.723 108.066C170.209 108.731 176.324 108.292 176.718 106.542L177.98 104.892C177.98 104.892 180.143 109.115 183.449 108.693C186.756 108.271 188.861 107.064 188.861 107.064L188.5 93.2608L188.26 83.3114L193.422 74.8035C193.422 74.8035 192.039 72.1499 192.16 70.9494C192.281 69.7488 192.519 68.8393 189.574 68.4173C189.574 68.4173 187.09 68.0453 185.626 67.0298C184.756 66.4239 183.805 65.9438 182.802 65.6038C182.802 65.6038 181.976 64.0621 181.401 64.5901C181.401 64.5901 181.978 66.7696 181.93 67.0953C181.882 67.421 182.02 68.8932 182.11 69.0455C182.201 69.1977 183.403 76.2912 182.179 78.8233C182.179 78.8233 180.383 85.6508 179.106 86.9439C177.828 88.2369 175.019 79.2665 175.019 79.2665C175.019 79.2665 173.536 71.2654 173.776 70.14C174.016 69.0146 174.191 64.9332 174.191 64.9332Z" fill="#3F3D56"/>
<path fill-rule="evenodd" clip-rule="evenodd" d="M178.479 91.2856C178.966 91.2856 179.361 90.8896 179.361 90.4011C179.361 89.9126 178.966 89.5166 178.479 89.5166C177.992 89.5166 177.597 89.9126 177.597 90.4011C177.597 90.8896 177.992 91.2856 178.479 91.2856Z" fill="#3F3D56"/>
<path fill-rule="evenodd" clip-rule="evenodd" d="M178.479 95.456C178.966 95.456 179.361 95.06 179.361 94.5715C179.361 94.083 178.966 93.687 178.479 93.687C177.992 93.687 177.597 94.083 177.597 94.5715C177.597 95.06 177.992 95.456 178.479 95.456Z" fill="#3F3D56"/>
<path opacity="0.1" fill-rule="evenodd" clip-rule="evenodd" d="M178.479 91.2856C178.966 91.2856 179.361 90.8896 179.361 90.4011C179.361 89.9126 178.966 89.5166 178.479 89.5166C177.992 89.5166 177.597 89.9126 177.597 90.4011C177.597 90.8896 177.992 91.2856 178.479 91.2856Z" fill="black"/>
<path opacity="0.1" fill-rule="evenodd" clip-rule="evenodd" d="M178.479 95.456C178.966 95.456 179.361 95.06 179.361 94.5715C179.361 94.083 178.966 93.687 178.479 93.687C177.992 93.687 177.597 94.083 177.597 94.5715C177.597 95.06 177.992 95.456 178.479 95.456Z" fill="black"/>
<path opacity="0.1" fill-rule="evenodd" clip-rule="evenodd" d="M186.404 147.284C186.404 147.284 190.024 147.565 190.383 147.846C190.742 148.128 186.404 147.284 186.404 147.284Z" fill="black" stroke="#6C63FF" stroke-width="0.5"/>
<path opacity="0.1" fill-rule="evenodd" clip-rule="evenodd" d="M164.854 144.43C164.854 144.43 165.623 145.393 165.296 145.836C164.97 146.28 164.854 144.43 164.854 144.43Z" fill="black" stroke="#6C63FF" stroke-width="0.5"/>
<path opacity="0.1" fill-rule="evenodd" clip-rule="evenodd" d="M165.776 147.904C165.776 147.904 167.179 146.979 167.74 147.594C168.301 148.209 165.776 147.904 165.776 147.904Z" fill="black" stroke="#6C63FF" stroke-width="0.5"/>
<path opacity="0.1" fill-rule="evenodd" clip-rule="evenodd" d="M183.24 58.1443C183.241 58.6261 183.18 59.106 183.059 59.5722C182.817 59.4612 182.668 59.2109 182.687 58.944C182.712 58.7147 182.863 58.5047 182.831 58.2773C182.783 57.9265 182.36 57.7839 182.137 57.5065C181.862 57.1711 181.922 56.6836 181.945 56.25C181.968 55.8164 181.859 55.2865 181.453 55.1381C181.332 55.0938 181.2 55.0899 181.082 55.0398C180.764 54.9049 180.666 54.508 180.452 54.2343C180.026 53.6832 179.179 53.6948 178.531 53.9568C178.249 54.0924 177.961 54.2133 177.667 54.3191C177.369 54.4245 177.041 54.4 176.762 54.2517C176.635 54.1707 176.533 54.059 176.403 53.978C175.968 53.7159 175.4 53.978 175.023 54.3153C174.647 54.6525 174.345 55.1053 173.87 55.3115C173.657 55.4079 173.394 55.4657 173.294 55.6738C173.245 55.7871 173.224 55.9108 173.233 56.0342C173.233 56.7838 173.321 57.545 173.165 58.2792C173.065 58.7513 172.735 59.287 172.257 59.2292C172.197 59.2204 172.138 59.2055 172.082 59.1849C171.689 57.08 172.517 54.9334 174.22 53.6421C175.923 52.3508 178.208 52.137 180.12 53.0901C182.032 54.0431 183.242 55.999 183.244 58.1404L183.24 58.1443Z" fill="black"/>
<path fill-rule="evenodd" clip-rule="evenodd" d="M171.83 58.8649C171.974 58.8977 172.111 58.9728 172.259 58.9921C172.737 59.0499 173.068 58.5142 173.167 58.0421C173.323 57.3079 173.242 56.5467 173.237 55.797C173.226 55.6738 173.246 55.5499 173.296 55.4367C173.406 55.2286 173.669 55.1708 173.872 55.0744C174.337 54.8663 174.641 54.4231 175.025 54.0781C175.409 53.7332 175.968 53.4788 176.403 53.7409C176.531 53.818 176.635 53.9336 176.762 54.0145C177.042 54.1607 177.37 54.1851 177.669 54.082C177.966 53.9933 178.245 53.8372 178.531 53.7197C179.173 53.4576 180.022 53.448 180.452 53.9953C180.666 54.2708 180.764 54.6659 181.083 54.8008C181.2 54.8509 181.332 54.8566 181.453 54.901C181.859 55.0532 181.963 55.5793 181.945 56.0129C181.928 56.4465 181.87 56.934 182.137 57.2693C182.36 57.543 182.783 57.6856 182.831 58.0401C182.862 58.2675 182.712 58.4795 182.687 58.7069C182.675 58.8776 182.732 59.0458 182.845 59.174C182.958 59.3022 183.118 59.3797 183.288 59.3891C183.788 59.3891 184.097 58.8283 184.564 58.6491C184.756 58.5739 184.988 58.5624 185.14 58.4101C185.254 58.262 185.298 58.0711 185.259 57.8879C185.165 57.1498 184.575 56.5081 184.639 55.7681C184.698 55.059 185.353 54.4404 185.215 53.7428C185.145 53.4856 185.013 53.2495 184.831 53.0549C184.625 52.7749 184.356 52.5472 184.047 52.39C183.78 52.2744 183.471 52.2474 183.227 52.1068C182.5 51.7079 182.502 50.6672 182.074 49.9581C181.699 49.3606 181.023 49.0231 180.322 49.0832C179.782 49.1372 179.292 49.4243 178.758 49.5207C178.026 49.6517 177.284 49.4108 176.591 49.1352C175.897 48.8597 175.196 48.5571 174.453 48.5571C173.709 48.5571 172.904 48.9425 172.678 49.6478C172.558 50.0332 172.618 50.4456 172.526 50.833C172.364 51.5209 171.757 52.0104 171.146 52.3515C170.726 52.5866 170.22 52.8564 170.17 53.3362C170.138 53.6407 170.305 53.9143 170.411 54.2092C170.59 54.7079 170.586 55.2548 170.399 55.7508C170.259 56.115 170.024 56.4349 169.882 56.7972C169.678 57.2945 169.696 57.8558 169.932 58.3388C170.113 58.6907 170.431 58.9521 170.81 59.0615C171.189 59.152 171.427 58.7763 171.83 58.8649Z" fill="#3F3D56"/>
<g opacity="0.1">
<path fill-rule="evenodd" clip-rule="evenodd" d="M173.167 57.622C173.067 58.0942 172.735 58.6299 172.256 58.5721C172.109 58.5528 171.974 58.4777 171.828 58.4449C171.426 58.3563 171.188 58.734 170.81 58.6376C170.43 58.5283 170.112 58.267 169.93 57.915C169.829 57.7188 169.769 57.5046 169.751 57.2848C169.713 57.626 169.775 57.971 169.93 58.2772C170.112 58.6292 170.43 58.8906 170.81 58.9999C171.194 59.0885 171.426 58.7108 171.828 58.8072C171.969 58.8563 172.112 58.8981 172.256 58.9324C172.735 58.9922 173.067 58.4565 173.167 57.9843C173.246 57.5672 173.277 57.1424 173.259 56.7183C173.257 57.0218 173.227 57.3244 173.167 57.622Z" fill="black"/>
<path fill-rule="evenodd" clip-rule="evenodd" d="M170.535 54.7199C170.559 54.4041 170.516 54.0867 170.408 53.7891C170.321 53.5912 170.247 53.3878 170.187 53.1802C170.179 53.2125 170.172 53.2454 170.168 53.2785C170.135 53.581 170.304 53.8566 170.408 54.1514C170.475 54.3345 170.518 54.5256 170.535 54.7199V54.7199Z" fill="black"/>
<path fill-rule="evenodd" clip-rule="evenodd" d="M185.213 53.7046C185.122 54.2519 184.681 54.7664 184.636 55.3426C184.626 55.4412 184.626 55.5407 184.636 55.6393C184.732 54.9668 185.326 54.3713 185.213 53.7046Z" fill="black"/>
<path fill-rule="evenodd" clip-rule="evenodd" d="M185.245 57.771C185.229 57.8516 185.191 57.9262 185.136 57.9868C184.994 58.1391 184.752 58.1506 184.559 58.2258C184.093 58.405 183.791 58.9715 183.284 58.9658C183.018 58.9507 182.789 58.7729 182.707 58.5187C182.696 58.5605 182.687 58.6029 182.681 58.6459C182.67 58.8163 182.727 58.984 182.84 59.1118C182.953 59.2395 183.112 59.3167 183.282 59.3261C183.783 59.3261 184.091 58.7654 184.558 58.5881C184.75 58.5129 184.984 58.5013 185.134 58.3491C185.248 58.201 185.292 58.0101 185.253 57.8269C185.251 57.8038 185.247 57.7883 185.245 57.771Z" fill="black"/>
<path fill-rule="evenodd" clip-rule="evenodd" d="M182.836 57.6109C182.788 57.2602 182.366 57.1176 182.143 56.8401C182.006 56.6578 181.932 56.4361 181.931 56.208C181.916 56.5664 181.922 56.9326 182.143 57.2024C182.364 57.4722 182.7 57.5878 182.807 57.8653C182.835 57.7834 182.844 57.6968 182.836 57.6109V57.6109Z" fill="black"/>
<path fill-rule="evenodd" clip-rule="evenodd" d="M181.943 55.5931C181.958 55.1595 181.855 54.6296 181.449 54.4812C181.33 54.4369 181.198 54.4311 181.08 54.3829C180.761 54.248 180.662 53.8511 180.45 53.5774C180.022 53.0282 179.175 53.0379 178.529 53.2999C178.241 53.4175 177.966 53.5736 177.666 53.6622C177.369 53.7676 177.041 53.7431 176.762 53.5948C176.635 53.5138 176.531 53.4021 176.402 53.3211C175.966 53.0591 175.398 53.3211 175.023 53.6584C174.648 53.9956 174.345 54.4465 173.87 54.6546C173.655 54.751 173.394 54.8088 173.282 55.0169C173.234 55.1304 173.213 55.2541 173.223 55.3773C173.223 55.4524 173.223 55.5276 173.223 55.6028C173.225 55.5251 173.244 55.4489 173.279 55.3792C173.39 55.1711 173.651 55.1133 173.866 55.0169C174.331 54.8088 174.635 54.3656 175.019 54.0206C175.403 53.6757 175.962 53.4213 176.399 53.6834C176.527 53.7605 176.631 53.8761 176.758 53.9551C177.036 54.1044 177.365 54.1289 177.663 54.0226C177.956 53.9177 178.244 53.7974 178.525 53.6622C179.169 53.4001 180.016 53.3886 180.446 53.9378C180.658 54.2114 180.758 54.6084 181.077 54.7433C181.194 54.7934 181.326 54.7992 181.445 54.8435C181.774 54.9668 181.905 55.3368 181.933 55.703L181.943 55.5931Z" fill="black"/>
</g>
<g opacity="0.1">
<path fill-rule="evenodd" clip-rule="evenodd" d="M172.482 57.6106C172.504 56.9536 172.957 56.3906 173.592 56.229C174.449 56.0189 175.348 56.0597 176.182 56.3465C178.005 56.9516 175.951 59.1292 175.951 59.1292C175.951 59.1292 174.585 60.4781 173.312 59.5358C172.935 59.2506 172.672 58.8409 172.568 58.3795C172.506 58.1282 172.477 57.8696 172.482 57.6106V57.6106Z" fill="black"/>
<path fill-rule="evenodd" clip-rule="evenodd" d="M182.505 57.6104C182.482 56.9528 182.028 56.3896 181.392 56.2287C180.536 56.019 179.638 56.0598 178.805 56.3462C176.981 56.9513 179.035 59.1289 179.035 59.1289C179.035 59.1289 180.399 60.4778 181.675 59.5355C182.051 59.2503 182.314 58.8407 182.418 58.3793C182.481 58.1279 182.51 57.8694 182.505 57.6104V57.6104Z" fill="black"/>
<path fill-rule="evenodd" clip-rule="evenodd" d="M175.838 56.1689V56.2592H179.168V56.1516L175.838 56.1689V56.1689Z" fill="black"/>
<path fill-rule="evenodd" clip-rule="evenodd" d="M176.9 57.1343H177.006V56.8281C177.006 56.8281 177.344 56.5643 177.905 56.8281V57.1015H178.096V56.9224H178.002C178.002 56.9224 178.041 56.5508 177.415 56.6105C177.415 56.6105 176.912 56.5624 176.924 56.882H176.808L176.9 57.1343Z" fill="black"/>
</g>
<path fill-rule="evenodd" clip-rule="evenodd" d="M172.481 57.4851C172.504 56.8281 172.956 56.265 173.592 56.1034C174.449 55.8948 175.347 55.9356 176.181 56.221C178.005 56.828 175.951 59.0036 175.951 59.0036C175.951 59.0036 174.585 60.3526 173.311 59.4102C172.934 59.1257 172.671 58.7158 172.568 58.254C172.505 58.0027 172.476 57.7441 172.481 57.4851V57.4851Z" fill="#3F3D56"/>
<path fill-rule="evenodd" clip-rule="evenodd" d="M182.504 57.4852C182.481 56.8276 182.028 56.2643 181.392 56.1035C180.536 55.8948 179.638 55.9355 178.804 56.221C176.981 56.828 179.034 59.0037 179.034 59.0037C179.034 59.0037 180.398 60.3526 181.674 59.4103C182.051 59.1258 182.315 58.7158 182.418 58.254C182.48 58.0027 182.509 57.7442 182.504 57.4852Z" fill="#3F3D56"/>
<path fill-rule="evenodd" clip-rule="evenodd" d="M175.838 56.0474V56.1396H179.167V56.0301L175.838 56.0474V56.0474Z" fill="#3F3D56"/>
<path fill-rule="evenodd" clip-rule="evenodd" d="M176.9 57.0128H177.006V56.7066C177.006 56.7066 177.344 56.4447 177.904 56.7066V56.982H178.096V56.801H178.002C178.002 56.801 178.041 56.4313 177.415 56.489C177.415 56.489 176.912 56.4428 176.923 56.7605H176.808L176.9 57.0128Z" fill="#3F3D56"/>
<rect x="23.4812" y="88.1021" width="1.09122" height="24.6469" fill="#535461"/>
<path fill-rule="evenodd" clip-rule="evenodd" d="M31.4314 112.674L31.3623 113.784L31.2662 115.35L31.2259 116.004L31.1298 117.572L31.0876 118.226L30.9915 119.792L29.8907 137.612C29.7932 139.203 28.4778 140.444 26.8879 140.444H21.1666C19.5771 140.444 18.2623 139.203 18.1658 137.612L17.0592 119.792L16.9631 118.226L16.9228 117.572L16.8286 116L16.7883 115.347L16.6922 113.78L16.6231 112.67C16.5966 112.239 16.7487 111.817 17.0434 111.503C17.3381 111.189 17.7491 111.01 18.1792 111.011H29.8772C30.3079 111.01 30.7194 111.189 31.0139 111.504C31.3085 111.819 31.4596 112.243 31.4314 112.674V112.674Z" fill="#3F3D56"/>
<path fill-rule="evenodd" clip-rule="evenodd" d="M31.3619 113.784L31.2658 115.35H16.786L16.6899 113.784H31.3619V113.784Z" fill="#9D9CB5"/>
<path fill-rule="evenodd" clip-rule="evenodd" d="M31.2256 116.004L31.1295 117.573H16.9244L16.8264 116.004H31.2256V116.004Z" fill="#9D9CB5"/>
<path fill-rule="evenodd" clip-rule="evenodd" d="M31.0871 118.226L30.991 119.792H17.0626L16.9646 118.226H31.0871V118.226Z" fill="#9D9CB5"/>
<path fill-rule="evenodd" clip-rule="evenodd" d="M15.0245 97.3403C21.3797 101.952 24.0271 109.167 24.0271 109.167C24.0271 109.167 16.3674 108.903 10.0026 104.291C3.63776 99.6797 1 92.4648 1 92.4648C1 92.4648 8.66738 92.7288 15.0245 97.3403Z" fill="#29AB91"/>
<path d="M1.00977 92.4648C1.00977 92.4648 8.95956 96.8971 11.5089 100.558C14.0583 104.22 24.0273 109.168 24.0273 109.168" stroke="#535461"/>
<path fill-rule="evenodd" clip-rule="evenodd" d="M19.1261 88.0578C22.5842 90.563 24.027 94.4942 24.027 94.4942C24.027 94.4942 19.858 94.3516 16.398 91.8406C12.938 89.3297 11.499 85.4043 11.499 85.4043C11.499 85.4043 15.668 85.5373 19.1261 88.0578Z" fill="#29AB91"/>
<path d="M11.499 85.3945C11.499 85.3945 15.8255 87.8033 17.2126 89.7978C18.5997 91.7923 24.027 94.4844 24.027 94.4844" stroke="#535461"/>
<path fill-rule="evenodd" clip-rule="evenodd" d="M29.0547 94.2858C25.0798 98.666 24.2402 104.389 24.2402 104.389C24.2402 104.389 29.8424 103.011 33.8153 98.6313C37.7883 94.2511 38.6298 88.5259 38.6298 88.5259C38.6298 88.5259 33.0277 89.9037 29.0547 94.2858Z" fill="#29AB91"/>
<path d="M38.6298 88.5259C38.6298 88.5259 33.4542 93.0159 32.1382 96.1107C30.8222 99.2056 24.2402 104.397 24.2402 104.397" stroke="#535461"/>
<defs>
<linearGradient id="paint0_linear" x1="205.801" y1="124.502" x2="205.801" y2="20.7632" gradientUnits="userSpaceOnUse">
<stop stop-color="#808080" stop-opacity="0.25"/>
<stop offset="0.54" stop-color="#808080" stop-opacity="0.12"/>
<stop offset="1" stop-color="#808080" stop-opacity="0.1"/>
</linearGradient>
<linearGradient id="paint1_linear" x1="195.795" y1="156.983" x2="195.795" y2="48.0312" gradientUnits="userSpaceOnUse">
<stop stop-color="#808080" stop-opacity="0.25"/>
<stop offset="0.54" stop-color="#808080" stop-opacity="0.12"/>
<stop offset="1" stop-color="#808080" stop-opacity="0.1"/>
</linearGradient>
</defs>
</svg>
