<?xml version="1.0" encoding="UTF-8"?>
<svg width="44px" height="44px" viewBox="0 0 44 44" version="1.1" xmlns="http://www.w3.org/2000/svg" xmlns:xlink="http://www.w3.org/1999/xlink">
    <!-- Generator: Sketch 53.2 (72643) - https://sketchapp.com -->
    <title>更多</title>
    <desc>Created with Sketch.</desc>
    <g id="小白板" stroke="none" stroke-width="1" fill="none" fill-rule="evenodd">
        <g id="切图" transform="translate(-2030.000000, -1137.000000)" fill="#939DA4">
            <path d="M2040,1162 C2038.34315,1162 2037,1160.65685 2037,1159 C2037,1157.34315 2038.34315,1156 2040,1156 C2041.65685,1156 2043,1157.34315 2043,1159 C2043,1160.65685 2041.65685,1162 2040,1162 Z M2052,1162 C2050.34315,1162 2049,1160.65685 2049,1159 C2049,1157.34315 2050.34315,1156 2052,1156 C2053.65685,1156 2055,1157.34315 2055,1159 C2055,1160.65685 2053.65685,1162 2052,1162 Z M2064,1162 C2062.34315,1162 2061,1160.65685 2061,1159 C2061,1157.34315 2062.34315,1156 2064,1156 C2065.65685,1156 2067,1157.34315 2067,1159 C2067,1160.65685 2065.65685,1162 2064,1162 Z" id="合并形状"></path>
        </g>
    </g>
</svg>