<svg width="30" height="30" viewBox="0 0 30 30" fill="none" xmlns="http://www.w3.org/2000/svg">
<path d="M4.92754 3C4.46377 3 4 3.45 4 3.9V26.1C4 26.55 4.46377 27 4.92754 27H24.4058C24.8696 27 25.3333 26.55 25.3333 26.1V8.25L19.9227 3H4.92754Z" fill="#EA2D2D"/>
<path fill-rule="evenodd" clip-rule="evenodd" d="M16.2308 17.093C16.8789 17.6454 17.6861 17.9743 18.5337 18.0314C19.0613 18.0314 20.0891 18.0314 20.0921 16.9639C20.1237 16.5592 19.9057 15.8698 18.4431 15.839C17.7892 15.839 17.1352 15.9333 16.4824 16.0583C15.7035 15.3391 15.0512 14.4925 14.5532 13.5544C15.0798 11.8005 15.1114 10.6121 14.707 10.0486C14.5135 9.7956 14.2161 9.64602 13.8983 9.64193C13.4939 9.61119 13.1211 9.7997 12.9337 10.1439C12.3735 11.0834 13.1832 12.9295 13.556 13.6804C13.1296 15.0236 12.5775 16.323 11.907 17.5612C8.95112 18.8438 8.88899 19.6265 8.88899 19.9072C8.88457 20.269 9.0909 20.5999 9.4166 20.7535C9.54188 20.8487 9.72828 20.8784 9.88412 20.8784C10.6623 20.8784 11.5647 20.0025 12.5293 18.2814C13.7424 17.7794 14.9555 17.3727 16.2308 17.093ZM14.005 10.6223H13.9113C13.8807 10.6223 13.8166 10.6223 13.786 10.653C13.6617 11.1858 13.7544 11.7492 13.9734 12.2502C14.1538 11.7244 14.1648 11.1548 14.005 10.6223ZM9.86656 20.0107L9.96027 19.9799C10.3952 19.8232 10.7374 19.5117 10.986 19.103C10.5311 19.2863 10.1412 19.6024 9.86656 20.0107ZM14.16 15.1915L14.1905 15.2232L14.2221 15.1597C14.5832 15.714 15.001 16.2287 15.4688 16.6954H15.3751L15.4046 16.7262C14.6866 16.8921 13.9807 17.1021 13.2881 17.3521V17.2896L13.2259 17.3193C13.5694 16.6247 13.881 15.9147 14.16 15.1915ZM18.4539 16.8184C18.1738 16.8184 17.9243 16.8184 17.6452 16.8809C17.9569 17.0366 18.2665 17.1011 18.5782 17.1329C18.7962 17.1626 19.0152 17.1329 19.1995 17.0683C19.1995 16.9761 19.0763 16.8184 18.4539 16.8184Z" fill="white"/>
<path d="M19.7461 3V7.42576C19.7461 7.88678 20.2044 8.37853 20.6934 8.37853H25.0935L19.7461 3Z" fill="white" fill-opacity="0.6"/>
</svg>
