<svg width="30" height="30" viewBox="0 0 30 30" fill="none" xmlns="http://www.w3.org/2000/svg">
<path d="M4.92754 3C4.46377 3 4 3.45 4 3.9V26.1C4 26.55 4.46377 27 4.92754 27H24.4058C24.8696 27 25.3333 26.55 25.3333 26.1V8.25L19.9227 3H4.92754Z" fill="#E25535"/>
<path d="M19.7461 3V7.42576C19.7461 7.88678 20.2044 8.37853 20.6934 8.37853H25.0935L19.7461 3Z" fill="white" fill-opacity="0.6"/>
<path fill-rule="evenodd" clip-rule="evenodd" d="M15.4566 16.2316C16.7468 16.2316 17.7319 15.9818 18.4135 15.4822L18.4135 15.4822C19.0955 14.9834 19.4359 14.2512 19.4355 13.2875C19.4407 12.7043 19.2604 12.1346 18.9209 11.6618C18.5774 11.1778 18.1128 10.8629 17.526 10.7173C16.9393 10.5721 16.2109 10.499 15.3408 10.499H10.1116V20.0487H11.5171V16.2316H15.4566ZM15.4425 11.6327C16.0558 11.6327 16.5259 11.6722 16.852 11.75C17.1786 11.8282 17.4475 12.0145 17.6606 12.3098C17.8728 12.6055 17.9791 12.9439 17.9791 13.3266C17.9791 13.9 17.7871 14.3385 17.4031 14.6426C17.019 14.9462 16.3748 15.0987 15.4718 15.0987H11.518V11.6327H15.4425Z" fill="white"/>
</svg>
