<?xml version="1.0" encoding="UTF-8"?>
<svg width="64px" height="64px" viewBox="0 0 64 64" version="1.1" xmlns="http://www.w3.org/2000/svg" xmlns:xlink="http://www.w3.org/1999/xlink">
    <!-- Generator: Sketch 53.1 (72631) - https://sketchapp.com -->
    <title>processing</title>
    <desc>Created with Sketch.</desc>
    <defs>
        <polygon id="path-1" points="0.00473239437 0.0505871725 55.9978704 0.0505871725 55.9978704 51.8517728 0.00473239437 51.8517728"></polygon>
    </defs>
    <g id="Page-1" stroke="none" stroke-width="1" fill="none" fill-rule="evenodd">
        <g id="Group-34" transform="translate(4.000000, 5.000000)">
            <g id="---↳-icon-copy-2" transform="translate(0.000000, 2.000000)">
                <g id="Group-4">
                    <g id="zhengshifuwushangliebiao_huaban">
                        <g id="Group-3" fill="#29AB91" opacity="0.200000003">
                            <path d="M36.398738,22.9293473 C39.1984225,20.5553071 40.9216451,16.8859982 40.9216451,13.0009033 C40.9216451,5.87815041 35.1063211,0.0505871725 27.9990535,0.0505871725 C20.8915493,0.0505871725 15.076462,5.87815041 15.076462,13.0009033 C15.076462,20.1236563 20.8915493,25.9512195 27.9990535,25.9512195 C40.9216451,25.9512195 50.6135099,34.8005759 51.6902873,47.5350271 L4.30750423,47.5350271 C4.9536338,38.038234 9.90718873,30.915402 17.8762254,27.893925 C18.9530028,27.461958 19.599369,26.1670054 19.1686423,25.0879178 C18.7376,24.0087511 17.4454986,23.3609982 16.3686423,23.7929652 C6.03041127,27.893925 0,37.1749322 0,49.6935976 C0,50.9885501 0.861453521,51.8517728 2.1539493,51.8517728 L53.8442366,51.8517728 C55.1364169,51.8517728 55.9978704,50.9885501 55.9978704,49.6935976 C55.9978704,36.7432814 48.0289127,26.1670054 36.398738,22.9293473 Z" id="Fill-1"></path>
                        </g>
                        <path d="M27.5901875,38.8148148 C28.1422933,38.8148148 28.5103414,38.6296746 28.8783895,38.259055 L32.5590727,34.5553682 C32.9271208,34.1850199 33.1111111,33.4443232 33.1111111,32.8888346 L31.270938,25.4813933 C31.0868803,24.7406967 30.3505145,24 29.430428,24 L25.7497448,24 C24.8295909,24 24.0934947,24.5555564 23.9095043,25.4813933 L22.0689943,32.8888346 C21.8850039,33.4443232 22.0689943,34.1850199 22.6211001,34.5553682 L26.3017833,38.259055 C26.6698314,38.6296746 27.0378795,38.8148148 27.5901875,38.8148148 Z M27.2218698,27.7037546 L27.9582356,27.7037546 L29.2463702,32.7036266 L27.5901875,34.3701601 L25.9337352,32.7036266 L27.2218698,27.7037546 Z" id="Fill-4" fill="#98EBDA"></path>
                    </g>
                </g>
            </g>
            <g id="---↳-icon-copy-3">
                <g id="Group-4">
                    <g id="zhengshifuwushangliebiao_huaban">
                        <g id="Group-3">
                            <mask id="mask-2" fill="white">
                                <use xlink:href="#path-1"></use>
                            </mask>
                            <g id="Clip-2"></g>
                            <path d="M36.398738,22.9293473 C39.1984225,20.5553071 40.9216451,16.8859982 40.9216451,13.0009033 C40.9216451,5.87815041 35.1063211,0.0505871725 27.9990535,0.0505871725 C20.8915493,0.0505871725 15.076462,5.87815041 15.076462,13.0009033 C15.076462,20.1236563 20.8915493,25.9512195 27.9990535,25.9512195 C40.9216451,25.9512195 50.6135099,34.8005759 51.6902873,47.5350271 L4.30750423,47.5350271 C4.9536338,38.038234 9.90718873,30.915402 17.8762254,27.893925 C18.9530028,27.461958 19.599369,26.1670054 19.1686423,25.0879178 C18.7376,24.0087511 17.4454986,23.3609982 16.3686423,23.7929652 C6.03041127,27.893925 0,37.1749322 0,49.6935976 C0,50.9885501 0.861453521,51.8517728 2.1539493,51.8517728 L53.8442366,51.8517728 C55.1364169,51.8517728 55.9978704,50.9885501 55.9978704,49.6935976 C55.9978704,36.7432814 48.0289127,26.1670054 36.398738,22.9293473 Z M19.3840451,13.0009033 C19.3840451,8.25250678 23.260507,4.36733288 27.9990535,4.36733288 C32.7372845,4.36733288 36.6141408,8.25250678 36.6141408,13.0009033 C36.6141408,17.7492999 32.7372845,21.6343948 27.9990535,21.6343948 C23.260507,21.6343948 19.3840451,17.7492999 19.3840451,13.0009033 Z" id="Fill-1" fill="#29AB91" mask="url(#mask-2)"></path>
                        </g>
                        <path d="M27.5901875,38.8148148 C28.1422933,38.8148148 28.5103414,38.6296746 28.8783895,38.259055 L32.5590727,34.5553682 C32.9271208,34.1850199 33.1111111,33.4443232 33.1111111,32.8888346 L31.270938,25.4813933 C31.0868803,24.7406967 30.3505145,24 29.430428,24 L25.7497448,24 C24.8295909,24 24.0934947,24.5555564 23.9095043,25.4813933 L22.0689943,32.8888346 C21.8850039,33.4443232 22.0689943,34.1850199 22.6211001,34.5553682 L26.3017833,38.259055 C26.6698314,38.6296746 27.0378795,38.8148148 27.5901875,38.8148148 Z M27.2218698,27.7037546 L27.9582356,27.7037546 L29.2463702,32.7036266 L27.5901875,34.3701601 L25.9337352,32.7036266 L27.2218698,27.7037546 Z" id="Fill-4" fill="#29AB91"></path>
                    </g>
                </g>
            </g>
        </g>
    </g>
</svg>