<svg width="28" height="22" viewBox="0 0 28 22" fill="none" xmlns="http://www.w3.org/2000/svg">
<path d="M11 14.382C11 15.1253 11.7823 15.6088 12.4472 15.2764L19.2111 11.8944C19.9482 11.5259 19.9482 10.4741 19.2111 10.1056L12.4472 6.72361C11.7823 6.39116 11 6.87465 11 7.61803V14.382Z" fill="#29AB91"/>
<path fill-rule="evenodd" clip-rule="evenodd" d="M23.5025 0.508993C23.5336 0.516578 23.5645 0.524724 23.5953 0.533429C24.5296 0.797752 25.3775 1.30395 26.0536 2.00088C26.7296 2.69782 27.2469 3.73375 27.4827 4.67564L24.8761 5.14582C24.7535 4.65609 24.5039 4.20739 24.1524 3.84503C23.8009 3.48266 23.36 3.21947 22.8742 3.08204C21.0994 2.64865 14 2.64865 14 2.64865C14 0 14.0002 0 14.0002 0L14.0855 0.000111187C14.1398 0.000220795 14.219 0.000438432 14.3199 0.000870775C14.5216 0.00173524 14.8108 0.00345897 15.1629 0.00689809C15.8661 0.0137669 16.8251 0.0275216 17.8434 0.0551484C18.8578 0.0826702 19.9503 0.124458 20.9149 0.188692C21.8109 0.248361 22.8053 0.338732 23.5025 0.508993ZM5.12577 3.12332C6.90061 2.64865 14 2.64865 14 2.64865C14 0 14.0002 0 14.0002 0L13.914 0.000122463C13.8595 0.000242897 13.7802 0.000481734 13.6791 0.000956252C13.4769 0.00190484 13.1873 0.00379591 12.8347 0.00756815C12.1305 0.0151013 11.1699 0.030188 10.1498 0.0605021C9.13388 0.0906906 8.03762 0.136578 7.06845 0.207268C6.17336 0.272555 5.1597 0.372507 4.44146 0.564594L4.40472 0.574704C3.47045 0.839027 2.62247 1.34522 1.94644 2.04216C1.27041 2.7391 0.790272 3.60209 0.55452 4.54398C0.54019 4.60123 0.527778 4.65895 0.517304 4.71703C0.164609 6.6728 -0.00836058 8.65673 0.000552185 10.644C-0.0111066 12.6463 0.161881 14.6454 0.517323 16.6159C0.53284 16.7019 0.552605 16.7871 0.576546 16.8712C0.836452 17.7838 1.32735 18.614 2.0018 19.2815C2.67626 19.949 3.51147 20.4313 4.42674 20.6817L4.44146 20.6857C5.1597 20.8778 6.17336 20.9777 7.06845 21.043C8.03762 21.1137 9.13388 21.1596 10.1498 21.1898C11.1699 21.2201 12.1305 21.2352 12.8347 21.2427C13.1873 21.2465 13.4769 21.2484 13.6791 21.2493C13.7802 21.2498 13.8595 21.25 13.914 21.2502L13.9993 21.2503H14.0007L14.086 21.2502C14.1405 21.25 14.2198 21.2498 14.3209 21.2493C14.5231 21.2484 14.8127 21.2465 15.1653 21.2427C15.8695 21.2352 16.8301 21.2201 17.8502 21.1898C18.8661 21.1596 19.9624 21.1137 20.9315 21.043C21.8266 20.9777 22.8403 20.8778 23.5585 20.6857L23.5953 20.6756C24.5296 20.4112 25.3775 19.9051 26.0536 19.2081C26.7296 18.5112 27.2097 17.6482 27.4455 16.7063C27.4598 16.649 27.4722 16.5913 27.4827 16.5332C27.8328 14.5916 28.0057 12.6223 27.9994 10.6494C28.0112 8.64652 27.8382 6.64679 27.4827 4.67564L24.8761 5.14582C25.2034 6.96059 25.3623 8.80175 25.3508 10.6458C25.3573 12.4622 25.1984 14.2755 24.8761 16.0632C24.7535 16.5529 24.5039 17.0016 24.1524 17.364C23.8009 17.7263 23.36 17.9895 22.8742 18.127C21.0994 18.6016 14 18.6016 14 18.6016C14 18.6016 6.90061 18.6016 5.12577 18.127C4.64988 17.9967 4.21562 17.746 3.86495 17.3989C3.51428 17.0519 3.25904 16.6202 3.12391 16.1457C2.79656 14.331 2.63766 12.4898 2.64924 10.6458C2.64019 8.81553 2.79908 6.98831 3.12391 5.18709C3.24648 4.69737 3.49612 4.24866 3.84762 3.8863C4.19911 3.52394 4.64 3.26075 5.12577 3.12332Z" fill="#29AB91"/>
</svg>
