<svg width="44" height="48" viewBox="0 0 44 48" fill="none" xmlns="http://www.w3.org/2000/svg">
<path fill-rule="evenodd" clip-rule="evenodd" d="M38.4 43.2V24C41.051 24 43.2 21.851 43.2 19.2V14.4C43.2 11.749 41.051 9.6 38.4 9.6H35.5903C35.8556 8.84933 36 8.04152 36 7.2C36 3.22355 32.7765 0 28.8 0C24.8235 0 21.6 3.22355 21.6 7.2C21.6 3.22355 18.3764 0 14.4 0C10.4235 0 7.2 3.22355 7.2 7.2C7.2 8.04152 7.34437 8.84933 7.60969 9.6H4.8C2.14903 9.6 0 11.749 0 14.4V19.2C0 21.851 2.14903 24 4.8 24V43.2C4.8 45.851 6.94903 48 9.6 48H33.6C36.251 48 38.4 45.851 38.4 43.2ZM19.2 19.2V14.4H4.8V19.2H19.2ZM24 19.2V14.4H38.4V19.2H24ZM9.6 43.2V24H33.6V43.2H9.6ZM14.4 9.6H16.8V7.2C16.8 5.87452 15.7255 4.8 14.4 4.8C13.0745 4.8 12 5.87452 12 7.2C12 8.52548 13.0745 9.6 14.4 9.6ZM31.2 7.2C31.2 8.52548 30.1255 9.6 28.8 9.6H26.4V7.2C26.4 5.87452 27.4745 4.8 28.8 4.8C30.1255 4.8 31.2 5.87452 31.2 7.2Z" fill="#29AB91"/>
</svg>
