<?xml version="1.0" encoding="UTF-8"?>
<svg width="28px" height="28px" viewBox="0 0 28 28" version="1.1" xmlns="http://www.w3.org/2000/svg" xmlns:xlink="http://www.w3.org/1999/xlink">
    <!-- Generator: Sketch 53.2 (72643) - https://sketchapp.com -->
    <title>search_delete_icon@1x</title>
    <desc>Created with Sketch.</desc>
    <g id="Page-1" stroke="none" stroke-width="1" fill="none" fill-rule="evenodd">
        <g id="修改参与人-copy-2" transform="translate(-669.000000, -166.000000)" fill="#CCCCCC">
            <g id="Group-3" transform="translate(30.000000, 151.000000)">
                <path d="M653,43 C645.268014,43 639,36.7319865 639,29 C639,21.2680135 645.268014,15 653,15 C660.731986,15 667,21.2680135 667,29 C667,36.7319865 660.731986,43 653,43 Z M655.446566,29 L658.742938,25.7036273 C659.296064,25.150502 659.293131,24.2670034 658.746397,23.7202694 C658.195852,23.1697236 657.311684,23.175084 656.763039,23.7237284 L653.466667,27.020101 L650.170294,23.7237284 C649.617169,23.170603 648.73367,23.1735354 648.186936,23.7202694 C647.63639,24.2708151 647.641751,25.154983 648.190395,25.7036273 L651.486768,29 L648.190395,32.2963727 C647.63727,32.849498 647.640202,33.7329966 648.186936,34.2797306 C648.737482,34.8302764 649.62165,34.824916 650.170294,34.2762716 L653.466667,30.979899 L656.763039,34.2762716 C657.316165,34.829397 658.199663,34.8264646 658.746397,34.2797306 C659.296943,33.7291849 659.291583,32.845017 658.742938,32.2963727 L655.446566,29 Z" id="search_delete_icon"></path>
            </g>
        </g>
    </g>
</svg>