<svg width="36" height="36" viewBox="0 0 36 36" fill="none" xmlns="http://www.w3.org/2000/svg">
<path d="M35.5 18C35.5 27.665 27.665 35.5 18 35.5C8.33502 35.5 0.5 27.665 0.5 18C0.5 8.33502 8.33502 0.5 18 0.5C27.665 0.5 35.5 8.33502 35.5 18Z" stroke="white"/>
<path fill-rule="evenodd" clip-rule="evenodd" d="M8.15792 18.9393C7.91588 19.2306 7.96028 19.6375 8.23488 19.8993L14.2906 25.6712C14.7355 26.0952 15.4452 26.1133 15.8774 25.7013L29.7696 12.4601C30.0605 12.1829 30.0807 11.7631 29.8032 11.4986L29.4844 11.1947C29.2294 10.9517 28.7736 10.9325 28.4827 11.1578L15.5392 21.1816C15.2979 21.3684 14.8532 21.3898 14.5949 21.2252L9.69649 18.1044C9.38978 17.909 8.95584 17.9791 8.72386 18.2583L8.15792 18.9393Z" fill="white"/>
</svg>
