<?xml version="1.0" encoding="UTF-8"?>
<svg width="59px" height="68px" viewBox="0 0 59 68" version="1.1" xmlns="http://www.w3.org/2000/svg" xmlns:xlink="http://www.w3.org/1999/xlink">
    <!-- Generator: Sketch 53.2 (72643) - https://sketchapp.com -->
    <title>其他格式</title>
    <desc>Created with Sketch.</desc>
    <g id="小白板" stroke="none" stroke-width="1" fill="none" fill-rule="evenodd">
        <g id="切图" transform="translate(-2008.000000, -994.000000)" fill-rule="nonzero">
            <g id="其他格式" transform="translate(2008.000000, 994.000000)">
                <g id="word-copy-3">
                    <path d="M2.53526012,0 C1.26763006,0 0,1.275 0,2.55 L0,65.45 C0,66.725 1.26763006,68 2.53526012,68 L55.7757225,68 C57.0433526,68 58.3109827,66.725 58.3109827,65.45 L58.3109827,14.875 L43.5219653,0 L2.53526012,0 Z" id="路径" fill="#9FA2A0"></path>
                    <path d="M43.5483743,0 L43.5483743,12.24 C43.5483743,13.515 44.8160043,14.875 46.1681431,14.875 L58.3373916,14.875 L43.5483743,0 Z" id="路径" fill-opacity="0.6" fill="#FFFFFF"></path>
                </g>
                <path d="M27.076578,42.942 L30.9639769,42.942 L30.9639769,47.022 L27.076578,47.022 L27.076578,42.942 L27.076578,42.942 Z M34.9189827,23.018 C33.499237,21.726 31.6400462,21.08 29.4090173,21.08 C28.3611098,21.08 27.3470058,21.25 26.3667052,21.59 C25.3864046,21.93 24.4399075,22.474 23.6624277,23.188 C22.8511445,23.936 22.2426821,24.752 21.9046474,25.636 C21.5666127,26.52 21.3637919,27.676 21.3299884,29.206 L21.296185,29.818 L24.7441387,29.818 L24.7779422,29.274 C25.0483699,25.84 26.4681156,24.242 29.3414104,24.242 C30.6597457,24.242 31.6400462,24.582 32.417526,25.296 C33.1612023,25.976 33.499237,26.894 33.499237,28.05 C33.499237,28.798 33.3640231,29.444 33.0597919,29.92 C32.8569711,30.294 32.2485087,31.076 30.6259422,32.776 C29.2061965,34.238 28.3273064,35.462 27.8878613,36.482 C27.4484162,37.502 27.2117919,38.76 27.1779884,40.222 L27.144185,40.834 L30.7611561,40.834 L30.7611561,40.256 C30.7611561,38.454 30.9977803,37.638 31.2006012,37.23 C31.403422,36.822 32.0118844,35.972 33.7358613,34.306 C35.1218035,33.014 36.0344971,31.994 36.4401387,31.178 C36.8795838,30.362 37.1162081,29.376 37.1162081,28.288 C37.0824046,26.112 36.3387283,24.344 34.9189827,23.018 L34.9189827,23.018 Z" id="形状" fill="#FFFFFF"></path>
            </g>
        </g>
    </g>
</svg>