<svg width="30" height="30" viewBox="0 0 30 30" fill="none" xmlns="http://www.w3.org/2000/svg">
<path d="M4.91304 3C4.45652 3 4 3.45 4 3.9V26.1C4 26.55 4.45652 27 4.91304 27H24.087C24.5435 27 25 26.55 25 26.1V8.33749L19.75 3H4.91304Z" fill="#5B7DFF"/>
<path d="M19.75 3V7.42232C19.75 7.88298 20.1961 8.33333 20.6774 8.33333H25L19.75 3Z" fill="white" fill-opacity="0.6"/>
<path fill-rule="evenodd" clip-rule="evenodd" d="M18.1778 16.2369L18.1874 16.2162C18.6068 16.0175 18.875 15.5899 18.875 15.1198C18.875 14.6496 18.6068 14.2221 18.1874 14.0234L13.4843 10.8476C12.5669 10.2385 11.875 10.61 11.875 11.7064V18.5539C11.875 19.6503 12.6784 19.9816 13.4843 19.4017L18.1778 16.2369Z" fill="white"/>
</svg>
