<svg width="32" height="48" viewBox="0 0 32 48" fill="none" xmlns="http://www.w3.org/2000/svg">
<path fill-rule="evenodd" clip-rule="evenodd" d="M16 48C7.16344 48 0 26.2975 0 16.9412C0 7.58482 7.16344 0 16 0C24.8366 0 32 7.58482 32 16.9412C32 26.2975 24.8366 48 16 48ZM16 42.6667C17.1643 42.6667 19.9428 39.5012 22.4303 33.8353C24.9522 28.0908 26.6667 20.9964 26.6667 16.9412C26.6667 10.4643 21.8207 5.33333 16 5.33333C10.1793 5.33333 5.33333 10.4643 5.33333 16.9412C5.33333 20.9964 7.04778 28.0908 9.56973 33.8353C12.0572 39.5012 14.8357 42.6667 16 42.6667ZM21.3333 16C21.3333 18.9455 18.9455 21.3333 16 21.3333C13.0545 21.3333 10.6667 18.9455 10.6667 16C10.6667 13.0545 13.0545 10.6667 16 10.6667C18.9455 10.6667 21.3333 13.0545 21.3333 16Z" fill="#29AB91"/>
</svg>
