<svg width="30" height="30" viewBox="0 0 30 30" fill="none" xmlns="http://www.w3.org/2000/svg">
<path d="M4.92754 3C4.46377 3 4 3.45 4 3.9V26.1C4 26.55 4.46377 27 4.92754 27H24.4058C24.8696 27 25.3333 26.55 25.3333 26.1V8.25L19.9227 3H4.92754Z" fill="#2C97FF"/>
<path d="M19.7461 3V7.42576C19.7461 7.88678 20.2044 8.37853 20.6934 8.37853H25.0935L19.7461 3Z" fill="#99D3FF"/>
<path d="M19.2977 19.7516C19.0862 19.7516 18.9011 19.6718 18.7688 19.5122L14.5379 15.0971L10.307 19.5388C10.0954 19.7516 9.77809 19.8314 9.48721 19.725C9.19633 19.6186 9.01123 19.3261 9.01123 19.0335V11.6129C9.01123 11.2139 9.35499 10.8682 9.75165 10.8682C10.1483 10.8682 10.4921 11.2139 10.4921 11.6129V17.1717L14.009 13.5013C14.1412 13.3417 14.3528 13.2619 14.5379 13.2619C14.7494 13.2619 14.9346 13.3417 15.0668 13.5013L18.5309 17.1451V11.6129C18.5309 11.2139 18.8746 10.8682 19.2713 10.8682C19.6679 10.8682 20.0117 11.2139 20.0117 11.6129V19.0335C20.0117 19.3261 19.8266 19.6186 19.5357 19.725C19.4828 19.7516 19.377 19.7516 19.2977 19.7516Z" fill="white"/>
</svg>
