<?xml version="1.0" encoding="UTF-8"?>
<svg width="40px" height="30px" viewBox="0 0 40 30" version="1.1" xmlns="http://www.w3.org/2000/svg" xmlns:xlink="http://www.w3.org/1999/xlink">
    <!-- Generator: Sketch 53.2 (72643) - https://sketchapp.com -->
    <title>形状</title>
    <desc>Created with Sketch.</desc>
    <g id="小白板" stroke="none" stroke-width="1" fill="none" fill-rule="evenodd">
        <g id="绑定企业微信" transform="translate(-360.000000, -309.000000)" fill="#939DA4" fill-rule="nonzero">
            <g id="分组-5" transform="translate(110.000000, 263.000000)">
                <g id="绑定" transform="translate(250.000000, 46.000000)">
                    <path d="M9.09161386,11.1627907 C14.2813755,11.1627907 23.8733902,11.1627907 37.8676579,11.1627907 C38.6642478,11.1627907 39.3100115,10.5088002 39.3100115,9.70206203 L39.3100115,9.69991705 C39.3203265,9.21443754 39.0907019,8.75577489 38.6979114,8.47728072 L27.1167233,0.247007713 C26.4653841,-0.194572219 25.5850535,-0.0285437308 25.1343317,0.620882571 C24.6836098,1.27030887 24.8274913,2.16539913 25.4583344,2.636511 L33.345742,8.24133335 C20.9254018,8.24133335 12.5138328,8.24133335 8.11103496,8.24133335 C6.62910575,8.24133335 4.40621194,8.24133335 1.44235353,8.24133335 C0.645763671,8.24133335 9.78237893e-17,8.89532386 0,9.70206203 C-9.73645227e-17,10.5088002 0.645763671,11.1627907 1.44235353,11.1627907 C4.84202479,11.1627907 7.39177823,11.1627907 9.09161386,11.1627907 Z M24.4019311,18.8372093 C19.3003649,18.8372093 11.6480155,18.8372093 1.44488302,18.8372093 C0.64703928,18.8372093 0.000259140403,19.4871888 0.000259140403,20.2889791 L0.000259140403,20.2932427 C-0.00883307547,20.7759677 0.22181872,21.2315603 0.61544405,21.5083804 L12.2148616,29.6881756 C12.6359728,30.0215528 13.2059993,30.0935926 13.6961358,29.8753786 C14.1862724,29.6571646 14.5161604,29.1844733 14.5533847,28.6470402 C14.5906091,28.1096071 14.3290669,27.5955452 13.8737395,27.3111958 L5.97603808,21.7428806 C14.0767474,21.7428806 20.1522794,21.7428806 24.2026341,21.7428806 C26.045798,21.7428806 30.617916,21.7428806 37.9189882,21.7428806 C38.6958825,21.7129682 39.3103448,21.071355 39.3103448,20.290045 C39.3103448,19.508735 38.6958825,18.8671217 37.9189882,18.8372093 C30.7064925,18.8372093 26.2008068,18.8372093 24.4019311,18.8372093 Z" id="形状"></path>
                </g>
            </g>
        </g>
    </g>
</svg>