<?xml version="1.0" encoding="UTF-8"?>
<svg width="122px" height="122px" viewBox="0 0 122 122" version="1.1" xmlns="http://www.w3.org/2000/svg" xmlns:xlink="http://www.w3.org/1999/xlink">
    <!-- Generator: Sketch 53.2 (72643) - https://sketchapp.com -->
    <title>企业微信</title>
    <desc>Created with Sketch.</desc>
    <g id="小白板" stroke="none" stroke-width="1" fill="none" fill-rule="evenodd">
        <g id="绑定企业微信-成功" transform="translate(-477.000000, -262.000000)">
            <g id="分组-5" transform="translate(110.000000, 263.000000)">
                <g id="企业微信" transform="translate(368.000000, 0.000000)">
                    <circle id="椭圆形-copy" stroke="#CCCCCC" fill="#FFFFFF" cx="60" cy="60" r="60"></circle>
                    <g transform="translate(26.250000, 28.500000)" fill-rule="nonzero" id="路径">
                        <path d="M59.8380042,16.5119198 C58.6062414,13.9933143 56.9830846,11.6846885 55.0286058,9.67148309 C50.0071395,4.47015283 42.9786015,1.1194266 35.2335766,0.237179481 C33.8748269,0.081577681 32.5069886,0.00151070009 31.1376355,0 C29.8773459,0 28.5564654,0.0740241805 27.2174078,0.22207248 C19.4466318,1.06353076 12.377195,4.40519285 7.31937414,9.60199107 C5.35702344,11.610423 3.72518751,13.9154631 2.48422467,16.4318528 C0.852469624,19.7223326 0.00242993136,23.3433773 0,27.0142863 C0,31.7427684 1.43600305,36.3942048 4.15047294,40.4821513 C5.52588515,42.5533171 7.77532027,45.1592697 9.84601242,47.0008095 L8.90988383,54.3639473 C8.87352931,54.4621427 8.83566002,54.560338 8.8114237,54.6675974 C8.7856726,54.7673035 8.78112828,54.8654988 8.77203964,54.9652048 C8.76598054,55.039229 8.74628854,55.1132531 8.74628854,55.1872773 C8.74628854,55.2688549 8.76598054,55.3489219 8.77203964,55.4289888 C8.88884043,56.6505291 9.91530357,57.584731 11.145686,57.5892857 C11.5789106,57.5892857 11.9788102,57.4638979 12.3272075,57.2659965 L12.363562,57.2418254 C12.4120346,57.2176542 12.4665664,57.1874403 12.5150392,57.1557157 L14.7493265,56.031757 L21.4022014,52.6825414 C23.3047539,53.223371 25.2497201,53.5980239 27.215893,53.8034787 C29.8788606,54.0950432 32.5675794,54.085979 35.2290323,53.7793075 C37.9080784,53.4732037 40.5423086,52.8572289 43.0785764,51.9438105 C41.1558866,51.3025106 39.9329082,49.4209552 40.1308317,47.4086977 C38.3193359,47.9870512 36.45532,48.3867823 34.5655625,48.6021484 C32.3345221,48.8593435 30.0815816,48.8659311 27.8490674,48.6217875 C27.626396,48.5976164 27.3976656,48.5613596 27.1704499,48.5311456 C25.6815895,48.3335253 24.2100125,48.0229315 22.7685249,47.6020669 C22.4726735,47.5083207 22.1640279,47.4609253 21.8536032,47.4615721 C21.358273,47.4615721 20.8841496,47.5899813 20.3994229,47.8392463 C20.3342877,47.8770138 20.2752117,47.9042063 20.2100765,47.9389524 L14.746297,51.1642907 L14.5069632,51.3062963 C14.3903258,51.3803205 14.3206463,51.4044916 14.2585407,51.4044916 C14.0553537,51.398728 13.8946243,51.2310221 13.8980252,51.028328 L14.1085784,50.1747842 L14.3448827,49.2472161 L14.746297,47.7274548 L15.1855807,46.0294312 C15.4885349,45.0882669 15.1552852,44.0594821 14.3600304,43.4733316 C13.5606169,42.8791706 12.7982817,42.2369393 12.0772702,41.5502142 C10.8569851,40.3958063 9.77017937,39.1087271 8.8371748,37.7130434 C6.68619981,34.4771301 5.55315096,30.8046254 5.55315096,27.0898211 C5.55315096,24.2089217 6.21056161,21.4050678 7.50720575,18.7598371 C8.50484788,16.74462 9.81507869,14.8990175 11.3895642,13.2911134 C15.5445814,9.01432985 21.391598,6.26939311 27.8505821,5.56842969 C28.9715128,5.44455253 30.0772957,5.38412465 31.1346059,5.38412465 C32.2479627,5.38412465 33.4007036,5.45059533 34.5670773,5.58051523 C40.9987956,6.31320335 46.8109724,9.07022563 50.9341795,13.3470093 C52.5017073,14.9603969 53.8038003,16.8106469 54.7923016,18.8293292 C56.0571355,21.3975143 56.7160609,24.222518 56.7206052,27.0867997 C56.7206052,27.3844071 56.7009132,27.6820144 56.6872802,27.978111 C58.3887428,26.9281483 60.5911115,27.1847131 62.0041269,28.5974969 C62.0798655,28.6715211 62.135912,28.7530987 62.2010472,28.8301442 C62.2510346,28.2213333 62.2767858,27.6170544 62.2767857,26.9976686 C62.2746064,23.3609311 61.4405158,19.7726209 59.8380042,16.505877" fill="#0082F0"></path>
                        <path d="M59.0070142,54.1784071 C58.8404022,54.1379727 58.6715315,54.1085145 58.5013963,54.0902059 C55.7120436,53.5454518 53.170367,52.0582292 51.2660334,49.8565454 C50.995226,49.5770845 50.5969339,49.4814852 50.2368443,49.6095164 C49.8767547,49.7375475 49.6165128,50.0672908 49.5643777,50.4615752 C49.5090759,50.8553572 49.6688852,51.2484305 49.9783339,51.4797581 L50.2666248,51.7830466 C52.0894214,53.6957012 53.3302356,56.1305027 53.8325617,58.7803465 C53.9403823,60.6880187 55.2051722,62.3081438 56.9697583,62.7989196 C58.4253366,63.2029525 59.9762865,62.7635028 61.0383564,61.6461137 C62.1251563,60.5019586 62.5362521,58.8323476 62.1131641,57.2809251 C61.6918988,55.7305347 60.5005939,54.5411068 59.0011005,54.1737649" fill="#FB6500"></path>
                        <path d="M73.7681418,42.8181833 C72.622866,41.6084772 70.914468,41.2011745 69.3830678,41.772729 C67.8504091,42.3457849 66.7686306,43.7921456 66.6030074,45.4897286 C66.0886548,48.406969 64.6815324,51.068855 62.5948907,53.0719754 C62.3107788,53.3536263 62.2059642,53.7812538 62.3253458,54.1716777 C62.4447274,54.5621016 62.7671257,54.8460566 63.1544368,54.9019066 C63.5416797,54.9545655 63.9231151,54.7680885 64.1336423,54.4231905 L64.4178328,54.118974 C66.2243651,52.2081111 68.532733,50.9049447 71.0484535,50.3757222 C72.8620894,50.2517567 74.3968556,48.925178 74.8592565,47.081846 C75.2435177,45.5563512 74.8283135,43.9315399 73.7681418,42.8120064" fill="#0082F0"></path>
                        <path d="M55.4733382,30.7681973 C54.325679,31.9796445 53.9410261,33.7714597 54.4832246,35.3804093 C55.0226246,36.9875806 56.3951426,38.1281948 58.0128099,38.3136279 C60.7956374,38.8574032 63.3313552,40.3413856 65.231343,42.5381423 C65.5013719,42.8280578 65.9059366,42.9309244 66.2729278,42.8029806 C66.6399189,42.6750368 66.9047742,42.3387909 66.9548194,41.9372881 C67.0073953,41.5362866 66.8381127,41.1387787 66.518048,40.9116656 C64.5394037,38.962145 63.1919184,36.4143425 62.6638353,33.6241853 C62.5570107,31.7216675 61.2974324,30.1049724 59.5385587,29.6128274 C58.084665,29.2073441 56.534587,29.6455335 55.4733382,30.7620188" fill="#2DBC00"></path>
                        <path d="M50.5460846,47.1972892 L50.5814238,46.9285988 C51.0958821,44.0085927 52.5040245,41.3440662 54.5924263,39.3388677 C54.876466,39.0574364 54.9814299,38.6301104 54.8623921,38.2397903 C54.7433544,37.8494702 54.4214123,37.5653333 54.0343609,37.5089937 C53.6466257,37.4557068 53.2644609,37.6422568 53.0536974,37.9876949 C51.2101062,40.0635875 48.7914004,41.479853 46.1389882,42.0365809 C44.3253791,42.1605425 42.7906355,43.4870798 42.3282414,45.3303543 C41.9439859,46.8558015 42.359184,48.4805621 43.4193401,49.6000606 C44.5322574,50.7699444 46.1762988,51.187409 47.6762447,50.6809989 C49.1774869,50.1731588 50.2829669,48.8291435 50.5416672,47.1972892" fill="#FFCC00"></path>
                    </g>
                </g>
            </g>
        </g>
    </g>
</svg>