<?xml version="1.0" encoding="UTF-8"?>
<svg width="120px" height="120px" viewBox="0 0 120 120" version="1.1" xmlns="http://www.w3.org/2000/svg" xmlns:xlink="http://www.w3.org/1999/xlink">
    <!-- Generator: Sketch 53.2 (72643) - https://sketchapp.com -->
    <title>小程序</title>
    <desc>Created with Sketch.</desc>
    <g id="小白板" stroke="none" stroke-width="1" fill="none" fill-rule="evenodd">
        <g id="绑定企业微信-成功" transform="translate(-160.000000, -264.000000)">
            <g id="分组-5" transform="translate(110.000000, 263.000000)">
                <g id="小程序" transform="translate(50.000000, 1.000000)">
                    <circle id="椭圆形" fill="#FFFFFF" cx="60" cy="60" r="60"></circle>
                    <g id="小程序-(2)" fill="#00B240" fill-rule="nonzero">
                        <path d="M60,0 C26.862915,-2.02906125e-15 4.05812251e-15,26.862915 0,60 C-4.05812251e-15,93.137085 26.862915,120 60,120 C93.137085,120 120,93.137085 120,60 C120,44.0870106 113.67859,28.8257758 102.426407,17.5735931 C91.1742242,6.32141042 75.9129894,9.74389576e-16 60,0 Z M90.084,53.928 C87.7458467,57.6768879 84.0975618,60.4227249 79.848,61.632 C78.9213468,61.9343751 77.9546108,62.0961719 76.98,62.112 C75.0978136,62.112 73.572,60.5861864 73.572,58.704 C73.572,56.8218136 75.0978136,55.296 76.98,55.296 C77.2393432,55.3019472 77.4970028,55.2528692 77.736,55.152 C80.465235,54.4737228 82.8184541,52.7497528 84.288,50.352 C85.142934,48.9544125 85.591703,47.3463234 85.584,45.708 C85.584,40.32 80.604,35.88 74.532,35.88 C72.4307576,35.8844445 70.3654764,36.4255482 68.532,37.452 C65.4545302,39.0725899 63.4943097,42.2309779 63.408,45.708 L63.408,74.328 C63.3473547,80.2318592 60.0842257,85.6367038 54.888,88.44 C52.0355351,90.0438129 48.8122758,90.8713506 45.54,90.84 C35.652,90.84 27.54,83.4 27.54,74.196 C27.5575036,71.3087279 28.3579282,68.4802843 29.856,66.012 C32.1941533,62.2631121 35.8424382,59.5172751 40.092,58.308 C41.0197353,58.0100573 41.9858093,57.8483712 42.96,57.828 C44.8421864,57.828 46.368,59.3538136 46.368,61.236 C46.368,63.1181864 44.8421864,64.644 42.96,64.644 C42.7006568,64.6380528 42.4429972,64.6871308 42.204,64.788 C39.4982211,65.515752 37.161647,67.2275279 35.652,69.588 C34.797066,70.9855875 34.348297,72.5936766 34.356,74.232 C34.356,79.62 39.336,84.06 45.48,84.06 C47.5812424,84.0555555 49.6465236,83.5144518 51.48,82.488 C54.5528268,80.8642314 56.5080771,77.7064562 56.592,74.232 L56.592,45.744 C56.6583912,39.8354578 59.9249202,34.427997 65.124,31.62 C67.9248446,29.9415918 71.1349034,29.0695189 74.4,29.1 C84.288,29.1 92.4,36.54 92.4,45.744 C92.3824964,48.6312721 91.5820718,51.4597157 90.084,53.928 L90.084,53.928 Z" id="形状"></path>
                    </g>
                </g>
            </g>
        </g>
    </g>
</svg>